<svg width="372" height="80" viewBox="0 0 372 80" fill="none" xmlns="http://www.w3.org/2000/svg">
<path d="M74.0687 79.0062L35.5562 40.4937L74.0687 1.98125L81.1458 9.05833L49.7104 40.4937L81.1458 71.9292L74.0687 79.0062ZM0.5 79.5V0.5H10.375V79.5H0.5Z" fill="black"/>
<path d="M99.208 54L91.48 32.496H98.2L102.088 44.688L103.336 48.96H103.816L104.536 45.168L107.848 32.496H115.528L119.032 45.168L119.704 48.96H120.184L121.48 44.592L125.128 32.496H131.848L131.08 35.424L124.168 54H116.488L112.504 40.8L112.024 38.544H111.544L110.968 40.8L106.888 54H99.208ZM141.08 54C139.48 54 138.248 53.792 137.384 53.376C136.52 52.96 135.896 52.432 135.512 51.792C135.16 51.152 134.936 50.48 134.84 49.776C134.776 49.072 134.744 48.432 134.744 47.856V38.64C134.744 38.16 134.776 37.584 134.84 36.912C134.936 36.208 135.16 35.52 135.512 34.848C135.896 34.176 136.52 33.616 137.384 33.168C138.28 32.72 139.512 32.496 141.08 32.496H151.4C153.512 32.496 155.16 32.704 156.344 33.12C157.56 33.504 158.408 34.144 158.888 35.04C159.4 35.936 159.656 37.136 159.656 38.64V45.744H151.256C148.376 45.744 146.024 45.68 144.2 45.552C142.408 45.424 141.208 45.344 140.6 45.312V47.952C140.568 49.232 141.336 49.872 142.904 49.872H145.352C147.08 49.872 148.76 49.856 150.392 49.824C152.056 49.76 153.576 49.696 154.952 49.632C156.328 49.536 157.432 49.456 158.264 49.392L160.184 52.512C160.184 53.504 157.032 54 150.728 54H141.08ZM140.6 41.616H153.8V38.544C153.8 37.904 153.72 37.456 153.56 37.2C153.432 36.944 153.016 36.784 152.312 36.72C151.608 36.656 150.408 36.624 148.712 36.624H142.904C141.368 36.624 140.6 37.264 140.6 38.544V41.616ZM164.989 54V23.568H170.845V33.072C172.221 32.912 173.837 32.784 175.693 32.688C177.581 32.56 179.725 32.496 182.125 32.496H184.573C186.173 32.496 187.405 32.704 188.269 33.12C189.133 33.536 189.741 34.064 190.093 34.704C190.477 35.344 190.701 36.016 190.765 36.72C190.861 37.424 190.909 38.064 190.909 38.64V47.856C190.909 48.336 190.861 48.928 190.765 49.632C190.701 50.304 190.477 50.976 190.093 51.648C189.741 52.32 189.133 52.88 188.269 53.328C187.405 53.776 186.173 54 184.573 54H182.125C179.469 54 177.149 53.936 175.165 53.808C173.181 53.648 171.533 53.488 170.221 53.328L168.925 54H164.989ZM172.333 49.872H182.749C184.285 49.872 185.053 49.232 185.053 47.952V38.544C185.085 37.84 184.941 37.344 184.621 37.056C184.301 36.768 183.677 36.624 182.749 36.624H180.349C178.301 36.624 176.477 36.672 174.877 36.768C173.309 36.832 171.965 36.912 170.845 37.008V48.384C170.845 49.056 170.909 49.472 171.037 49.632C171.197 49.792 171.629 49.872 172.333 49.872ZM212.611 54C211.011 54 209.779 53.792 208.915 53.376C208.051 52.96 207.427 52.432 207.043 51.792C206.691 51.152 206.467 50.48 206.371 49.776C206.307 49.072 206.275 48.432 206.275 47.856V38.64C206.275 38.16 206.307 37.584 206.371 36.912C206.467 36.208 206.691 35.52 207.043 34.848C207.427 34.176 208.051 33.616 208.915 33.168C209.811 32.72 211.043 32.496 212.611 32.496H215.059C218.003 32.496 220.371 32.56 222.163 32.688C223.987 32.784 225.379 32.896 226.339 33.024V23.568H232.195V54H228.259L226.387 53.04C225.043 53.264 223.427 53.488 221.539 53.712C219.651 53.904 217.475 54 215.011 54H212.611ZM214.435 49.872H224.851C225.523 49.872 225.939 49.792 226.099 49.632C226.259 49.472 226.339 49.072 226.339 48.432V36.96C225.251 36.896 223.875 36.832 222.211 36.768C220.547 36.672 218.771 36.624 216.883 36.624H214.435C212.899 36.624 212.131 37.264 212.131 38.544V47.952C212.131 49.232 212.899 49.872 214.435 49.872ZM244.299 54C242.699 54 241.467 53.792 240.603 53.376C239.739 52.96 239.115 52.432 238.73 51.792C238.379 51.152 238.155 50.48 238.059 49.776C237.995 49.072 237.963 48.432 237.963 47.856V38.64C237.963 38.16 237.995 37.584 238.059 36.912C238.155 36.208 238.379 35.52 238.73 34.848C239.115 34.176 239.739 33.616 240.603 33.168C241.499 32.72 242.731 32.496 244.299 32.496H254.619C256.731 32.496 258.379 32.704 259.562 33.12C260.779 33.504 261.627 34.144 262.107 35.04C262.619 35.936 262.875 37.136 262.875 38.64V45.744H254.475C251.595 45.744 249.243 45.68 247.419 45.552C245.627 45.424 244.427 45.344 243.819 45.312V47.952C243.787 49.232 244.555 49.872 246.123 49.872H248.571C250.299 49.872 251.979 49.856 253.611 49.824C255.275 49.76 256.795 49.696 258.171 49.632C259.547 49.536 260.651 49.456 261.483 49.392L263.403 52.512C263.403 53.504 260.251 54 253.947 54H244.299ZM243.819 41.616H257.019V38.544C257.019 37.904 256.939 37.456 256.779 37.2C256.651 36.944 256.235 36.784 255.531 36.72C254.827 36.656 253.627 36.624 251.931 36.624H246.123C244.587 36.624 243.819 37.264 243.819 38.544V41.616ZM273.632 54C271.488 54 269.968 53.888 269.072 53.664C268.176 53.44 267.728 53.216 267.728 52.992L269.168 49.392C270.096 49.488 271.792 49.6 274.256 49.728C276.752 49.824 279.824 49.872 283.472 49.872H285.872C286.672 49.872 287.168 49.664 287.36 49.248C287.584 48.8 287.696 48.208 287.696 47.472C287.696 46.736 287.568 46.144 287.312 45.696C287.088 45.248 286.608 45.024 285.872 45.024H274.064C271.824 45.024 270.208 44.608 269.216 43.776C268.224 42.912 267.728 41.632 267.728 39.936V38.016C267.728 37.568 267.776 37.04 267.872 36.432C267.968 35.824 268.208 35.216 268.592 34.608C268.976 34 269.6 33.504 270.464 33.12C271.328 32.704 272.528 32.496 274.064 32.496H287.312C289.232 32.496 290.592 32.608 291.392 32.832C292.192 33.056 292.592 33.28 292.592 33.504L292.112 37.104C291.184 37.008 289.472 36.912 286.976 36.816C284.48 36.688 281.424 36.624 277.808 36.624H275.408C274.608 36.624 274.096 36.848 273.872 37.296C273.68 37.712 273.584 38.208 273.584 38.784C273.584 39.392 273.68 39.904 273.872 40.32C274.096 40.704 274.608 40.896 275.408 40.896H287.216C289.392 40.896 290.992 41.344 292.016 42.24C293.04 43.136 293.552 44.272 293.552 45.648V48.48C293.552 49.056 293.504 49.664 293.408 50.304C293.344 50.944 293.12 51.552 292.736 52.128C292.352 52.672 291.728 53.12 290.864 53.472C290 53.824 288.784 54 287.216 54H273.632ZM302.226 29.472C301.042 29.472 300.178 29.232 299.634 28.752C299.09 28.272 298.818 27.472 298.818 26.352C298.818 25.2 299.074 24.4 299.586 23.952C300.13 23.472 301.01 23.232 302.226 23.232C303.442 23.232 304.322 23.472 304.866 23.952C305.41 24.4 305.682 25.2 305.682 26.352C305.682 27.44 305.41 28.24 304.866 28.752C304.322 29.232 303.442 29.472 302.226 29.472ZM299.298 54V32.496H305.154V54H299.298ZM327.219 62.448C323.699 62.448 320.835 62.416 318.627 62.352C316.419 62.288 314.723 62.192 313.539 62.064C312.355 61.936 311.539 61.776 311.091 61.584C310.675 61.392 310.467 61.184 310.467 60.96L311.907 57.36C312.419 57.52 313.315 57.712 314.595 57.936C315.907 58.192 317.571 58.32 319.587 58.32H327.795C328.979 58.32 329.811 58.144 330.291 57.792C330.803 57.44 331.059 56.816 331.059 55.92V53.04C329.683 53.296 328.051 53.52 326.163 53.712C324.307 53.904 322.163 54 319.731 54H317.331C315.731 54 314.499 53.792 313.635 53.376C312.771 52.96 312.147 52.432 311.763 51.792C311.411 51.152 311.187 50.48 311.091 49.776C311.027 49.072 310.995 48.432 310.995 47.856V38.64C310.995 38.16 311.027 37.584 311.091 36.912C311.187 36.208 311.411 35.52 311.763 34.848C312.147 34.176 312.771 33.616 313.635 33.168C314.531 32.72 315.763 32.496 317.331 32.496H319.779C323.139 32.496 325.747 32.56 327.603 32.688C329.491 32.816 330.867 32.96 331.731 33.12L332.979 32.496H336.915V56.304C336.915 56.88 336.819 57.52 336.627 58.224C336.467 58.928 336.131 59.6 335.619 60.24C335.107 60.88 334.371 61.408 333.411 61.824C332.451 62.24 331.187 62.448 329.619 62.448H327.219ZM319.155 49.872H329.571C330.307 49.872 330.739 49.808 330.867 49.68C330.995 49.552 331.059 49.136 331.059 48.432V36.96C329.971 36.896 328.595 36.832 326.931 36.768C325.267 36.672 323.491 36.624 321.603 36.624H319.155C317.619 36.624 316.851 37.264 316.851 38.544V47.952C316.819 49.232 317.587 49.872 319.155 49.872ZM342.693 54V32.496H346.629L348.549 33.456C349.893 33.2 351.509 32.976 353.397 32.784C355.285 32.592 357.445 32.496 359.877 32.496H362.277C363.877 32.496 365.109 32.72 365.973 33.168C366.837 33.616 367.445 34.176 367.797 34.848C368.181 35.52 368.405 36.208 368.469 36.912C368.565 37.584 368.613 38.16 368.613 38.64V54H362.757V38.544C362.757 37.264 361.989 36.624 360.453 36.624H349.989C349.381 36.624 348.981 36.688 348.789 36.816C348.629 36.912 348.549 37.2 348.549 37.68V54H342.693Z" fill="black"/>
</svg>
