<svg width="201" height="133" viewBox="0 0 201 133" fill="none" xmlns="http://www.w3.org/2000/svg">
<path d="M191.955 0.757812H60.309C55.5105 0.757812 51.6206 4.64774 51.6206 9.44621V93.6202C51.6206 98.4186 55.5105 102.309 60.309 102.309H191.955C196.753 102.309 200.643 98.4186 200.643 93.6202V9.44621C200.643 4.64774 196.753 0.757812 191.955 0.757812Z" fill="#6C33EB"/>
<path d="M149.944 124.137H102.32L107.293 102.305H144.97L149.944 124.137Z" fill="#6C33EB"/>
<path d="M190.483 9.21875H61.7808V84.5825H190.483V9.21875Z" fill="white"/>
<path d="M155.78 124.141H96.4734C94.2199 124.141 92.3931 125.967 92.3931 128.221C92.3931 130.474 94.2199 132.301 96.4734 132.301H155.78C158.033 132.301 159.86 130.474 159.86 128.221C159.86 125.967 158.033 124.141 155.78 124.141Z" fill="#6C33EB"/>
<path d="M189.884 19.6237H62.3998C62.1306 19.6237 61.8724 19.5168 61.6821 19.3265C61.4917 19.1361 61.3848 18.8779 61.3848 18.6087C61.3848 18.3396 61.4917 18.0814 61.6821 17.891C61.8724 17.7007 62.1306 17.5938 62.3998 17.5938H189.884C190.153 17.5938 190.411 17.7007 190.601 17.891C190.792 18.0814 190.899 18.3396 190.899 18.6087C190.899 18.8779 190.792 19.1361 190.601 19.3265C190.411 19.5168 190.153 19.6237 189.884 19.6237Z" fill="#6C33EB"/>
<path d="M68.7337 15.9741C69.8268 15.9741 70.7129 15.088 70.7129 13.9949C70.7129 12.9018 69.8268 12.0156 68.7337 12.0156C67.6405 12.0156 66.7544 12.9018 66.7544 13.9949C66.7544 15.088 67.6405 15.9741 68.7337 15.9741Z" fill="#6C33EB"/>
<path d="M76.407 15.9741C77.5001 15.9741 78.3862 15.088 78.3862 13.9949C78.3862 12.9018 77.5001 12.0156 76.407 12.0156C75.3139 12.0156 74.4277 12.9018 74.4277 13.9949C74.4277 15.088 75.3139 15.9741 76.407 15.9741Z" fill="#6C33EB"/>
<path d="M84.0803 15.9741C85.1734 15.9741 86.0596 15.088 86.0596 13.9949C86.0596 12.9018 85.1734 12.0156 84.0803 12.0156C82.9872 12.0156 82.1011 12.9018 82.1011 13.9949C82.1011 15.088 82.9872 15.9741 84.0803 15.9741Z" fill="#6C33EB"/>
<path d="M131.298 24.7188H76.4072V46.9067H131.298V24.7188Z" fill="#6C33EB"/>
<path d="M131.298 47.9109H76.4071C76.1379 47.9109 75.8797 47.8039 75.6894 47.6136C75.499 47.4232 75.3921 47.1651 75.3921 46.8959V24.7181C75.3921 24.4489 75.499 24.1908 75.6894 24.0004C75.8797 23.8101 76.1379 23.7031 76.4071 23.7031H131.298C131.567 23.7031 131.826 23.8101 132.016 24.0004C132.206 24.1908 132.313 24.4489 132.313 24.7181V46.8959C132.313 47.1651 132.206 47.4232 132.016 47.6136C131.826 47.8039 131.567 47.9109 131.298 47.9109ZM77.4221 45.8809H130.283V25.7331H77.4221V45.8809Z" fill="#6C33EB"/>
<path d="M76.4072 47.9144C76.2581 47.9147 76.1108 47.8821 75.9757 47.8189C75.8406 47.7557 75.7211 47.6636 75.6257 47.549C75.5408 47.4458 75.4771 47.3269 75.4383 47.199C75.3995 47.0712 75.3863 46.9369 75.3995 46.8039C75.4127 46.671 75.452 46.5419 75.5152 46.4242C75.5784 46.3065 75.6642 46.2024 75.7677 46.1179L93.784 31.309C93.9656 31.1597 94.1934 31.0781 94.4285 31.0781C94.6636 31.0781 94.8914 31.1597 95.0731 31.309L109.405 43.2454C109.507 43.3307 109.592 43.4354 109.654 43.5535C109.717 43.6716 109.755 43.8008 109.767 43.9337C109.779 44.0666 109.765 44.2006 109.726 44.328C109.686 44.4555 109.622 44.5739 109.537 44.6766C109.451 44.7792 109.347 44.864 109.229 44.9262C109.111 44.9884 108.981 45.0267 108.849 45.039C108.716 45.0512 108.582 45.0372 108.454 44.9976C108.327 44.9581 108.208 44.8938 108.106 44.8085L94.4235 33.3999L77.0466 47.7013C76.864 47.8431 76.6384 47.9183 76.4072 47.9144V47.9144Z" fill="white"/>
<path d="M131.298 47.9094C131.071 47.9072 130.851 47.8325 130.669 47.6962L114.429 34.826L106.177 42.1035C105.973 42.2676 105.714 42.3467 105.454 42.3244C105.193 42.302 104.951 42.1799 104.778 41.9836C104.606 41.7873 104.515 41.5318 104.526 41.2705C104.537 41.0092 104.649 40.7622 104.837 40.581L113.719 32.7351C113.901 32.5832 114.131 32.5 114.368 32.5C114.605 32.5 114.835 32.5832 115.018 32.7351L131.917 46.1331C132.082 46.2649 132.201 46.4445 132.259 46.647C132.316 46.8495 132.309 47.065 132.239 47.2635C132.169 47.462 132.039 47.6337 131.866 47.7549C131.694 47.8761 131.489 47.9407 131.278 47.9398L131.298 47.9094Z" fill="white"/>
<path d="M173.4 26.7409H141.935C141.666 26.7409 141.408 26.634 141.218 26.4437C141.027 26.2533 140.92 25.9951 140.92 25.7259C140.92 25.4567 141.027 25.1986 141.218 25.0082C141.408 24.8179 141.666 24.7109 141.935 24.7109H173.4C173.67 24.7109 173.928 24.8179 174.118 25.0082C174.308 25.1986 174.415 25.4567 174.415 25.7259C174.415 25.9951 174.308 26.2533 174.118 26.4437C173.928 26.634 173.67 26.7409 173.4 26.7409Z" fill="#6C33EB"/>
<path d="M173.4 35.7097H141.935C141.666 35.7097 141.408 35.6028 141.218 35.4124C141.027 35.2221 140.92 34.9639 140.92 34.6947C140.92 34.4255 141.027 34.1673 141.218 33.977C141.408 33.7866 141.666 33.6797 141.935 33.6797H173.4C173.67 33.6797 173.928 33.7866 174.118 33.977C174.308 34.1673 174.415 34.4255 174.415 34.6947C174.415 34.9639 174.308 35.2221 174.118 35.4124C173.928 35.6028 173.67 35.7097 173.4 35.7097Z" fill="#6C33EB"/>
<path d="M166.711 44.655H141.915C141.646 44.655 141.388 44.5481 141.197 44.3577C141.007 44.1674 140.9 43.9092 140.9 43.64C140.9 43.3708 141.007 43.1126 141.197 42.9223C141.388 42.7319 141.646 42.625 141.915 42.625H166.711C166.981 42.625 167.239 42.7319 167.429 42.9223C167.619 43.1126 167.726 43.3708 167.726 43.64C167.726 43.9092 167.619 44.1674 167.429 44.3577C167.239 44.5481 166.981 44.655 166.711 44.655Z" fill="#6C33EB"/>
<path d="M99.8131 54.2891H76.4072V70.7422H99.8131V54.2891Z" fill="#6C33EB"/>
<path d="M137.49 54.2891H114.084V70.7422H137.49V54.2891Z" fill="#6C33EB"/>
<path d="M175.167 54.2891H151.761V70.7422H175.167V54.2891Z" fill="#6C33EB"/>
<path d="M93.1545 79.4362H83.0755C82.8064 79.4362 82.5482 79.3293 82.3578 79.139C82.1675 78.9486 82.0605 78.6904 82.0605 78.4212C82.0605 78.1521 82.1675 77.8939 82.3578 77.7035C82.5482 77.5132 82.8064 77.4062 83.0755 77.4062H93.1545C93.4237 77.4062 93.6819 77.5132 93.8722 77.7035C94.0626 77.8939 94.1695 78.1521 94.1695 78.4212C94.1695 78.6904 94.0626 78.9486 93.8722 79.139C93.6819 79.3293 93.4237 79.4362 93.1545 79.4362Z" fill="#6C33EB"/>
<path d="M130.831 79.4362H120.742C120.473 79.4362 120.215 79.3293 120.024 79.139C119.834 78.9486 119.727 78.6904 119.727 78.4212C119.727 78.1521 119.834 77.8939 120.024 77.7035C120.215 77.5132 120.473 77.4062 120.742 77.4062H130.831C131.1 77.4062 131.359 77.5132 131.549 77.7035C131.739 77.8939 131.846 78.1521 131.846 78.4212C131.846 78.6904 131.739 78.9486 131.549 79.139C131.359 79.3293 131.1 79.4362 130.831 79.4362Z" fill="#6C33EB"/>
<path d="M168.508 79.4362H158.419C158.15 79.4362 157.891 79.3293 157.701 79.139C157.511 78.9486 157.404 78.6904 157.404 78.4212C157.404 78.1521 157.511 77.8939 157.701 77.7035C157.891 77.5132 158.15 77.4062 158.419 77.4062H168.508C168.777 77.4062 169.035 77.5132 169.226 77.7035C169.416 77.8939 169.523 78.1521 169.523 78.4212C169.523 78.6904 169.416 78.9486 169.226 79.139C169.035 79.3293 168.777 79.4362 168.508 79.4362Z" fill="#6C33EB"/>
<path d="M62.2579 28.9141H6.38211C3.39428 28.9141 0.972168 31.3362 0.972168 34.324V126.912C0.972168 129.9 3.39428 132.322 6.38211 132.322H62.2579C65.2457 132.322 67.6678 129.9 67.6678 126.912V34.324C67.6678 31.3362 65.2457 28.9141 62.2579 28.9141Z" fill="#6C33EB"/>
<path d="M59.4463 42.6328H9.19362C7.75856 42.6328 6.59521 43.7962 6.59521 45.2312V114.332C6.59521 115.767 7.75856 116.931 9.19362 116.931H59.4463C60.8813 116.931 62.0447 115.767 62.0447 114.332V45.2312C62.0447 43.7962 60.8813 42.6328 59.4463 42.6328Z" fill="white"/>
<path d="M25.7079 35.5427C26.19 35.5427 26.5808 35.1519 26.5808 34.6698C26.5808 34.1877 26.19 33.7969 25.7079 33.7969C25.2258 33.7969 24.835 34.1877 24.835 34.6698C24.835 35.1519 25.2258 35.5427 25.7079 35.5427Z" fill="white"/>
<path d="M43.7948 35.6862H29.9198C29.6506 35.6862 29.3924 35.5793 29.2021 35.389C29.0117 35.1986 28.9048 34.9404 28.9048 34.6712C28.9048 34.4021 29.0117 34.1439 29.2021 33.9535C29.3924 33.7632 29.6506 33.6562 29.9198 33.6562H43.8456C44.1148 33.6562 44.373 33.7632 44.5633 33.9535C44.7536 34.1439 44.8606 34.4021 44.8606 34.6712C44.8606 34.9404 44.7536 35.1986 44.5633 35.389C44.373 35.5793 44.1148 35.6862 43.8456 35.6862H43.7948Z" fill="white"/>
<path d="M34.315 129.602C36.3387 129.602 37.9792 127.961 37.9792 125.938C37.9792 123.914 36.3387 122.273 34.315 122.273C32.2914 122.273 30.6509 123.914 30.6509 125.938C30.6509 127.961 32.2914 129.602 34.315 129.602Z" fill="white"/>
<path d="M55.4065 50.625H13.3145V77.1571H55.4065V50.625Z" fill="#6C33EB"/>
<path d="M50.9912 100.859H17.7297C15.2912 100.859 13.3145 102.836 13.3145 105.275C13.3145 107.713 15.2912 109.69 17.7297 109.69H50.9912C53.4297 109.69 55.4065 107.713 55.4065 105.275C55.4065 102.836 53.4297 100.859 50.9912 100.859Z" fill="#6C33EB"/>
<path d="M55.417 85.5925H13.3148C13.0456 85.5925 12.7874 85.4856 12.5971 85.2952C12.4067 85.1049 12.2998 84.8467 12.2998 84.5775C12.2998 84.3083 12.4067 84.0501 12.5971 83.8598C12.7874 83.6694 13.0456 83.5625 13.3148 83.5625H55.417C55.6862 83.5625 55.9444 83.6694 56.1347 83.8598C56.3251 84.0501 56.432 84.3083 56.432 84.5775C56.432 84.8467 56.3251 85.1049 56.1347 85.2952C55.9444 85.4856 55.6862 85.5925 55.417 85.5925Z" fill="#6C33EB"/>
<path d="M45.947 93.7331H13.3148C13.0456 93.7331 12.7874 93.6262 12.5971 93.4358C12.4067 93.2455 12.2998 92.9873 12.2998 92.7181C12.2998 92.4489 12.4067 92.1908 12.5971 92.0004C12.7874 91.8101 13.0456 91.7031 13.3148 91.7031H45.947C46.2162 91.7031 46.4744 91.8101 46.6648 92.0004C46.8551 92.1908 46.962 92.4489 46.962 92.7181C46.962 92.9873 46.8551 93.2455 46.6648 93.4358C46.4744 93.6262 46.2162 93.7331 45.947 93.7331Z" fill="#6C33EB"/>
<path d="M41.6126 74.6302C41.466 74.6302 41.3211 74.5985 41.1879 74.5372C41.0548 74.4758 40.9365 74.3864 40.8412 74.275L28.1334 59.6488L14.6948 73.6964C14.5077 73.8903 14.2513 74.0018 13.9819 74.0066C13.7126 74.0113 13.4524 73.9089 13.2585 73.7218C13.0647 73.5347 12.9532 73.2783 12.9484 73.009C12.9436 72.7396 13.0461 72.4794 13.2332 72.2856L27.4432 57.4361C27.5382 57.3331 27.6536 57.2509 27.782 57.1947C27.9104 57.1384 28.049 57.1094 28.1892 57.1094C28.3294 57.1094 28.468 57.1384 28.5964 57.1947C28.7248 57.2509 28.8402 57.3331 28.9352 57.4361L42.3738 72.9047C42.55 73.108 42.6383 73.373 42.6193 73.6413C42.6002 73.9097 42.4754 74.1595 42.2723 74.3359C42.0959 74.5116 41.8611 74.6164 41.6126 74.6302Z" fill="white"/>
<path d="M55.4065 71.8687C55.1681 71.8663 54.9381 71.7801 54.7569 71.6251L45.9975 64.1953L39.2376 70.7928C39.0437 70.9812 38.783 71.0849 38.5127 71.0811C38.2424 71.0773 37.9847 70.9663 37.7963 70.7725C37.6078 70.5787 37.5041 70.3179 37.5079 70.0476C37.5117 69.7773 37.6227 69.5196 37.8166 69.3312L45.2362 62.0942C45.4233 61.9231 45.6677 61.8281 45.9213 61.8281C46.1749 61.8281 46.4194 61.9231 46.6065 62.0942L56.0663 70.1127C56.2279 70.2466 56.344 70.4273 56.3987 70.63C56.4534 70.8326 56.4439 71.0472 56.3715 71.2443C56.2992 71.4413 56.1675 71.611 55.9947 71.7301C55.8219 71.8492 55.6164 71.9118 55.4065 71.9093V71.8687Z" fill="white"/>
</svg>
