<svg width="228" height="125" viewBox="0 0 228 125" fill="none" xmlns="http://www.w3.org/2000/svg">
<path d="M60.9725 83.9138C61.2721 83.1728 61.3211 82.3542 61.1122 81.5827C60.9033 80.8113 60.4479 80.1293 59.8154 79.6407C58.6989 78.8185 57.5317 78.0471 56.3746 77.2757C56.2057 77.1894 56.0691 77.0509 55.985 76.8809C55.9009 76.7109 55.8738 76.5184 55.9076 76.3317C55.9888 75.1543 56.0193 73.9871 56.0295 72.8097C56.0134 72.6622 56.044 72.5134 56.1168 72.3842C56.1896 72.255 56.301 72.1518 56.4354 72.0891C57.6636 71.3989 58.9019 70.7188 60.0895 69.9575C60.7702 69.5346 61.2905 68.8967 61.5681 68.1449C61.8457 67.393 61.8647 66.5701 61.6221 65.8062C61.0537 64.03 60.3635 62.2943 59.7038 60.5384C59.4179 59.5987 58.7834 58.8039 57.9304 58.317C57.0774 57.8301 56.0704 57.6879 55.1159 57.9196C53.8776 58.1429 52.6394 58.3764 51.4112 58.6302C51.2683 58.6753 51.1147 58.6741 50.9725 58.6267C50.8303 58.5793 50.7068 58.4881 50.6195 58.3663C49.7872 57.4122 48.9042 56.4885 48.0211 55.5852C47.9043 55.492 47.8198 55.3643 47.7797 55.2203C47.7396 55.0764 47.746 54.9235 47.7978 54.7833C48.1429 53.545 48.4677 52.327 48.8128 51.0887C49.064 50.2299 49.0055 49.3101 48.6474 48.4901C48.2893 47.6701 47.6545 47.0019 46.8538 46.6024C45.108 45.76 43.3318 44.9581 41.5555 44.1969C40.7979 43.8681 39.9517 43.8034 39.1528 44.0132C38.3539 44.2231 37.6488 44.6952 37.1505 45.354C36.2776 46.5009 35.496 47.7189 34.684 48.9267C34.6107 49.0543 34.5011 49.1572 34.3692 49.2223C34.2372 49.2874 34.0889 49.3117 33.943 49.2921C32.725 49.2211 31.4969 49.1907 30.2688 49.1907C30.1303 49.2083 29.9899 49.1801 29.8689 49.1105C29.748 49.0409 29.6531 48.9335 29.5988 48.805C28.9188 47.587 28.2387 46.369 27.4978 45.1814C27.0775 44.4912 26.4392 43.9607 25.6836 43.674C24.9281 43.3872 24.0986 43.3605 23.3261 43.598C21.4179 44.2172 19.5301 44.9073 17.6828 45.628C16.8253 45.9537 16.1181 46.5843 15.6967 47.399C15.2753 48.2137 15.1693 49.1552 15.399 50.0433C15.6426 51.3425 15.9167 52.6417 16.14 53.951C16.1478 54.0499 16.1356 54.1495 16.1042 54.2436C16.0728 54.3378 16.0229 54.4246 15.9573 54.4991C15.0235 55.4228 14.0795 56.316 13.1051 57.199C13.0278 57.2653 12.9366 57.3134 12.8382 57.3398C12.7398 57.3661 12.6368 57.3701 12.5367 57.3513C11.2984 57.0468 10.0703 56.7118 8.8421 56.3363C7.98126 56.0643 7.05168 56.108 6.22017 56.4596C5.38866 56.8112 4.70967 57.4476 4.30505 58.2546C3.4017 60.0613 2.5694 61.9086 1.78785 63.7762C1.48542 64.51 1.43083 65.3224 1.63235 66.09C1.83387 66.8576 2.2805 67.5385 2.90435 68.0291C4.0919 68.9121 5.3302 69.7241 6.55835 70.5463C6.67785 70.6217 6.77363 70.7294 6.83467 70.8569C6.89572 70.9844 6.91956 71.1265 6.90345 71.2669C6.8324 72.4951 6.80195 73.7334 6.80195 74.9717C6.81439 75.1029 6.78596 75.2348 6.72055 75.3493C6.65514 75.4637 6.55595 75.5552 6.43655 75.6111C5.29975 76.2404 4.1731 76.8799 3.06675 77.5396C2.2329 77.9918 1.59614 78.7369 1.27936 79.631C0.962574 80.5251 0.988237 81.5049 1.3514 82.3812C1.9401 84.0052 2.5491 85.6292 3.1784 87.2532C3.47638 88.1824 4.11901 88.9622 4.97419 89.4323C5.82937 89.9023 6.83212 90.0269 7.77635 89.7805C9.0451 89.547 10.3138 89.3136 11.5826 89.0396C11.7028 89.0077 11.8299 89.0141 11.9463 89.0577C12.0627 89.1014 12.1626 89.1802 12.2322 89.2832C13.0239 90.1459 13.8055 91.0188 14.6378 91.841C14.7694 91.9549 14.8626 92.1068 14.9044 92.2759C14.9462 92.4449 14.9346 92.6227 14.8712 92.7849C14.5261 93.9928 14.2013 95.2006 13.8562 96.4288C13.6027 97.2598 13.6452 98.1531 13.9765 98.9564C14.3078 99.7596 14.9074 100.423 15.673 100.834C17.5 101.747 19.3575 102.58 21.2353 103.371C21.9779 103.667 22.797 103.711 23.567 103.496C24.337 103.282 25.0154 102.821 25.4982 102.184C26.3508 101.057 27.1222 99.8696 27.9038 98.7024C27.9839 98.5561 28.106 98.4373 28.2544 98.3613C28.4028 98.2853 28.5706 98.2556 28.7361 98.2761C29.9541 98.3573 31.1721 98.3978 32.4002 98.408C32.5312 98.397 32.6623 98.4274 32.7752 98.4947C32.8881 98.5621 32.977 98.6631 33.0296 98.7836C33.669 99.9102 34.3287 101.017 34.9682 102.143C35.4262 102.942 36.142 103.561 36.9982 103.899C37.7717 104.242 38.6474 104.275 39.4444 103.99C41.18 103.402 42.8953 102.752 44.6107 102.103C45.5726 101.821 46.3876 101.176 46.8837 100.305C47.3798 99.4344 47.5183 98.4048 47.27 97.4336C47.0366 96.1953 46.8031 94.957 46.5493 93.7187C46.5113 93.5927 46.5144 93.4579 46.5582 93.3338C46.6021 93.2096 46.6843 93.1027 46.793 93.0285C47.7064 92.1962 48.6199 91.3639 49.503 90.491C49.6013 90.3781 49.7318 90.2981 49.8771 90.2617C50.0223 90.2254 50.1752 90.2346 50.315 90.288C51.5432 90.6331 52.7713 90.968 54.0096 91.303C54.865 91.5621 55.7844 91.5118 56.6065 91.1611C57.4286 90.8104 58.1011 90.1815 58.506 89.3846C59.3722 87.5712 60.1943 85.7476 60.9725 83.9138ZM25.8129 85.9438C23.3962 84.8376 21.3618 83.0397 19.9669 80.7773C18.572 78.5149 17.8793 75.8897 17.9764 73.2337C18.0734 70.5776 18.9559 68.01 20.5122 65.8555C22.0685 63.7009 24.2287 62.0563 26.7197 61.1294C29.2106 60.2026 31.9205 60.0352 34.5066 60.6484C37.0927 61.2617 39.439 62.628 41.2486 64.5746C43.0582 66.5212 44.2499 68.9607 44.6732 71.5846C45.0964 74.2085 44.732 76.899 43.6261 79.3159C42.8955 80.9243 41.8549 82.3729 40.5639 83.5788C39.2729 84.7847 37.7567 85.7243 36.1022 86.3436C34.4477 86.963 32.6873 87.2501 30.9218 87.1885C29.1562 87.1268 27.4202 86.7177 25.8129 85.9844V85.9438Z" fill="#6C33EB"/>
<path d="M38.338 105.177C37.7374 105.174 37.1435 105.049 36.5922 104.811C35.5465 104.38 34.6749 103.612 34.1156 102.629C33.8415 102.132 33.5573 101.614 33.2731 101.167L32.2581 99.4013C30.9386 99.4013 29.8221 99.3404 28.7564 99.2795L28.3301 99.9088C27.7008 100.863 27.0512 101.837 26.3001 102.771C25.6872 103.594 24.8177 104.189 23.8289 104.463C22.8401 104.737 21.7883 104.674 20.8394 104.283C18.8094 103.431 16.9621 102.599 15.2061 101.726C14.2331 101.209 13.4684 100.373 13.0412 99.3572C12.6139 98.3418 12.5505 97.2101 12.8615 96.1533C13.1761 94.9252 13.5009 93.7173 13.8765 92.5095C13.0442 91.6772 12.3032 90.855 11.5826 90.0532C10.3747 90.3069 9.16687 90.5302 7.94887 90.7637C6.77869 91.0357 5.54912 90.8621 4.50006 90.2766C3.45101 89.691 2.65773 88.7357 2.27502 87.5969C1.63557 85.9729 1.03672 84.3387 0.437873 82.7046C-0.0158532 81.6026 -0.0472085 80.372 0.349818 79.2483C0.746844 78.1246 1.54435 77.1869 2.58967 76.6146C3.60467 75.9751 4.73132 75.3661 5.82752 74.7571C5.82752 73.397 5.82752 72.2907 5.91887 71.2655L5.32002 70.8595C4.30502 70.1896 3.29002 69.5096 2.33592 68.7788C1.52904 68.158 0.948805 67.289 0.684669 66.3059C0.420533 65.3227 0.487177 64.2799 0.874323 63.3384C1.71677 61.3084 2.54907 59.4915 3.41182 57.7559C3.93608 56.7547 4.79604 55.9701 5.84091 55.5395C6.88578 55.1089 8.04888 55.0599 9.12627 55.4011C10.2834 55.7157 11.4303 56.0304 12.5874 56.3247C13.4197 55.5736 14.2419 54.7819 15.1249 53.9192C15.0133 53.3 14.8915 52.6707 14.7697 52.0516C14.6479 51.4324 14.5362 50.8336 14.4246 50.2246C14.1527 49.1111 14.2953 47.9368 14.8257 46.9207C15.3561 45.9047 16.2382 45.1164 17.3072 44.703C19.1443 43.9316 21.0728 43.2312 23.0419 42.5918C24.0307 42.2842 25.094 42.317 26.0619 42.685C27.0297 43.053 27.8462 43.7349 28.3808 44.6218C29.0812 45.7383 29.7308 46.9055 30.3601 48.022L30.4311 48.154C31.7709 48.154 32.8773 48.154 33.9227 48.2453L34.3084 47.6668C34.958 46.6518 35.6381 45.6368 36.3384 44.7233C36.9729 43.8833 37.871 43.2807 38.8887 43.012C39.9065 42.7433 40.985 42.8241 41.9514 43.2414C43.9205 44.0838 45.6663 44.8857 47.2903 45.6672C48.3033 46.1677 49.1089 47.0074 49.5669 48.0403C50.0249 49.0732 50.1065 50.234 49.7973 51.3208C49.4793 52.5185 49.141 53.7162 48.7823 54.9139C49.7973 55.9289 50.5687 56.7815 51.2894 57.5935C52.5175 57.3397 53.7152 57.1164 54.9129 56.8931C56.1029 56.6241 57.3506 56.8104 58.4101 57.4153C59.4696 58.0202 60.2643 58.9999 60.6375 60.1614L61.145 61.5114C61.6322 62.8004 62.16 64.1301 62.566 65.48C62.8718 66.4559 62.8465 67.5055 62.4941 68.4655C62.1416 69.4256 61.4818 70.2422 60.6172 70.7885C59.5413 71.4787 58.4045 72.1181 57.3185 72.7271L57.0241 72.8895C57.0241 74.2598 56.9632 75.356 56.8922 76.3811C58.1406 77.2134 59.2876 77.9747 60.3939 78.7968C61.2158 79.4175 61.8082 80.2936 62.0783 81.2874C62.3483 82.2813 62.2807 83.3367 61.886 84.288V84.288C61.0232 86.318 60.2112 88.0841 59.3891 89.7588C58.8815 90.7661 58.0367 91.5635 57.0019 92.0123C55.9671 92.4611 54.8076 92.5329 53.7254 92.2151C52.5175 91.9106 51.3097 91.5757 50.1018 91.2001C49.1782 92.1035 48.2647 92.9358 47.544 93.5854C47.7876 94.7831 48.0211 95.9605 48.2444 97.148C48.5277 98.3547 48.3454 99.6238 47.7339 100.702C47.1224 101.78 46.1267 102.588 44.9456 102.964L44.5396 103.116C42.9461 103.715 41.3525 104.304 39.7488 104.862C39.299 105.044 38.8223 105.15 38.338 105.177V105.177ZM28.665 97.2394H28.8071C29.9033 97.3003 31.0503 97.3409 32.4307 97.3612C32.742 97.3552 33.0488 97.4367 33.3161 97.5964C33.5835 97.7561 33.8007 97.9875 33.943 98.2645L35.0189 100.142L35.8715 101.604C36.2102 102.206 36.7435 102.675 37.3839 102.934C37.9259 103.174 38.5392 103.2 39.0992 103.005C40.6826 102.456 42.266 101.868 43.8393 101.269L44.2351 101.127C44.6024 101.028 44.9465 100.858 45.2477 100.625C45.5488 100.393 45.801 100.103 45.9897 99.7732C46.1784 99.443 46.2999 99.0787 46.3472 98.7013C46.3944 98.3239 46.3665 97.9409 46.2651 97.5743C46.0317 96.3563 45.7982 95.1282 45.5445 93.8899C45.4728 93.5895 45.4871 93.275 45.5858 92.9824C45.6846 92.6898 45.8637 92.4309 46.1027 92.2354C46.8437 91.5655 47.8181 90.6825 48.7823 89.7284C49.0107 89.4942 49.2993 89.3276 49.6163 89.247C49.9333 89.1665 50.2664 89.1749 50.5789 89.2716C51.7969 89.6269 53.025 89.9618 54.2532 90.2866C54.8816 90.4892 55.5617 90.4616 56.1716 90.2087C56.7816 89.9558 57.2817 89.4941 57.5824 88.9062C58.3944 87.2518 59.1962 85.4857 60.0387 83.5166C60.2467 82.9871 60.278 82.4046 60.128 81.8559C59.978 81.3072 59.6547 80.8216 59.2064 80.4716C58.1305 79.6799 56.9835 78.9186 55.8163 78.1472C55.4961 77.9582 55.2382 77.6798 55.0741 77.3462C54.91 77.0127 54.8469 76.6384 54.8926 76.2695C54.9637 75.2545 55.0043 74.1583 55.0144 72.8286C54.9977 72.5008 55.0759 72.175 55.2398 71.8906C55.4036 71.6061 55.6461 71.3749 55.9381 71.2249L56.3441 71.0016C57.3591 70.4028 58.5162 69.7836 59.5413 69.1239C60.0323 68.821 60.4085 68.3633 60.6106 67.823C60.8128 67.2827 60.8294 66.6905 60.6578 66.1398C60.2417 64.8406 59.7443 63.5312 59.2673 62.2726L58.7598 60.9024C58.5513 60.189 58.0737 59.5848 57.4277 59.2173C56.7818 58.8498 56.0183 58.7479 55.2986 58.9333C54.0705 59.1566 52.8423 59.39 51.6142 59.6438C51.2984 59.7256 50.9656 59.7145 50.656 59.6118C50.3463 59.5092 50.0728 59.3194 49.8684 59.0652C49.1173 58.2126 48.2748 57.3194 47.2903 56.3146C47.0484 56.0935 46.875 55.8077 46.7904 55.4911C46.7059 55.1746 46.7138 54.8404 46.8132 54.5282C47.1583 53.3 47.4933 52.082 47.8282 50.8539C48.0229 50.222 47.9868 49.5415 47.7266 48.9337C47.4664 48.3258 46.9988 47.8301 46.4072 47.5348C44.8035 46.7634 43.0882 45.9819 41.1495 45.1394C40.5975 44.9067 39.9838 44.8642 39.405 45.0185C38.8262 45.1729 38.3151 45.5153 37.9523 45.992C37.2722 46.8954 36.6125 47.8799 35.9832 48.834L35.5264 49.5039C35.3559 49.7779 35.1131 49.9996 34.8249 50.1446C34.5366 50.2896 34.2139 50.3524 33.8923 50.3261C32.7961 50.255 31.6491 50.2246 30.2687 50.2246C29.9507 50.2379 29.6357 50.1587 29.3619 49.9966C29.088 49.8344 28.8671 49.5963 28.7259 49.3111L28.5838 49.0573C27.9748 47.951 27.3354 46.8142 26.6553 45.7383C26.3544 45.2285 25.889 44.8363 25.3356 44.626C24.7823 44.4157 24.1738 44.3999 23.6103 44.5812C21.7021 45.2003 19.8244 45.8905 18.038 46.6112C17.3969 46.8484 16.8692 47.319 16.5605 47.9289C16.2518 48.5387 16.185 49.2427 16.3734 49.8998C16.4749 50.5088 16.5967 51.1076 16.7083 51.7065C16.82 52.3053 16.9824 53.1173 17.1042 53.8177C17.1448 54.0769 17.1247 54.342 17.0454 54.5921C16.9661 54.8422 16.8299 55.0705 16.6474 55.259C15.6324 56.274 14.6885 57.157 13.7648 57.9995C13.5592 58.1789 13.3142 58.3074 13.0497 58.3744C12.7852 58.4414 12.5086 58.4451 12.2423 58.3852C11.0142 58.0705 9.77587 57.7356 8.53757 57.3702C7.91291 57.16 7.23428 57.176 6.62021 57.4153C6.00614 57.6547 5.49566 58.1021 5.17792 58.6795C4.33547 60.3746 3.52347 62.161 2.69117 64.1402C2.47873 64.6682 2.44406 65.2509 2.5924 65.8004C2.74074 66.3498 3.06403 66.8359 3.51332 67.1852C4.43697 67.8856 5.43167 68.5555 6.39592 69.2152L7.11657 69.7024C7.38164 69.8702 7.59562 70.1075 7.73521 70.3885C7.8748 70.6695 7.93466 70.9833 7.90827 71.296C7.84737 72.382 7.81692 73.5391 7.80677 74.9703C7.81948 75.2804 7.74307 75.5876 7.58657 75.8557C7.43007 76.1237 7.20004 76.3413 6.92372 76.4826C5.79707 77.1119 4.68057 77.7412 3.58437 78.401C2.94826 78.7246 2.45903 79.278 2.21589 79.949C1.97274 80.62 1.99389 81.3584 2.27502 82.0144C2.86372 83.6282 3.46257 85.2522 4.09187 86.8661C4.30831 87.5707 4.79095 88.1631 5.43724 88.5175C6.08353 88.8719 6.84254 88.9604 7.55302 88.7641C8.82177 88.5307 10.0804 88.2972 11.3491 88.0232C11.641 87.9603 11.9445 87.9781 12.227 88.0747C12.5096 88.1713 12.7605 88.3429 12.9528 88.5713C13.7141 89.4137 14.4956 90.2765 15.3178 91.0986C15.5803 91.3383 15.7672 91.6494 15.8555 91.9938C15.9439 92.3381 15.9298 92.7008 15.8151 93.0373C15.47 94.2451 15.1452 95.4428 14.8001 96.6608C14.6025 97.2665 14.6221 97.922 14.8555 98.5148C15.0889 99.1075 15.5216 99.6005 16.079 99.9088C17.7944 100.761 19.6011 101.573 21.5905 102.416C22.1222 102.62 22.7056 102.647 23.2541 102.494C23.8026 102.34 24.287 102.014 24.6355 101.563C25.3155 100.66 25.9448 99.7058 26.564 98.7923L27.0106 98.1123C27.1804 97.8296 27.4244 97.5989 27.716 97.445C28.0077 97.2912 28.3358 97.22 28.665 97.2394V97.2394ZM31.3548 88.2262C29.2852 88.2279 27.2406 87.7739 25.3663 86.8965V86.8965C23.6228 86.0947 22.0563 84.9539 20.7581 83.5407C19.4599 82.1274 18.4558 80.47 17.8045 78.6649C17.1545 76.903 16.8602 75.0297 16.9386 73.1534C17.017 71.277 17.4666 69.4349 18.2613 67.7333C19.8794 64.2772 22.7909 61.5955 26.3682 60.2664C29.9454 58.9372 33.9016 59.0672 37.3839 60.6283C40.8678 62.2247 43.577 65.1368 44.9182 68.7267C46.2595 72.3165 46.1233 76.2917 44.5396 79.7814C43.3754 82.3014 41.5143 84.4356 39.1762 85.932C36.8381 87.4284 34.1206 88.2245 31.3446 88.2262H31.3548ZM31.3548 61.3287C28.981 61.3413 26.6603 62.0321 24.666 63.3197C22.6717 64.6072 21.087 66.4379 20.0984 68.5961C19.417 70.0561 19.032 71.6368 18.9658 73.2467C18.8996 74.8566 19.1535 76.4636 19.7127 77.9747C20.2737 79.5318 21.1387 80.9618 22.2574 82.1815C23.3761 83.4013 24.7261 84.3864 26.229 85.0797V85.0797C27.6925 85.7622 29.2772 86.1469 30.8908 86.2114C32.5043 86.2758 34.1146 86.0188 35.6279 85.4552C37.1855 84.8979 38.6161 84.0354 39.8362 82.9182C41.0562 81.8011 42.041 80.4516 42.7329 78.9491C44.0931 75.9493 44.2095 72.5328 43.0568 69.4474C41.904 66.3619 39.5759 63.8588 36.582 62.4858C34.9467 61.7286 33.167 61.3339 31.3649 61.3287H31.3548Z" fill="#6C33EB"/>
<path d="M56.3235 20.4648C56.3001 19.9226 56.1 19.4029 55.7536 18.9851C55.4072 18.5672 54.9337 18.2742 54.4052 18.1506C53.4815 17.9578 52.5477 17.8055 51.6139 17.6634C51.4861 17.6546 51.3644 17.6057 51.266 17.5237C51.1676 17.4417 51.0975 17.3308 51.0658 17.2067C50.7816 16.4556 50.467 15.7248 50.1523 15.0041C50.0922 14.9235 50.0597 14.8256 50.0597 14.725C50.0597 14.6244 50.0922 14.5265 50.1523 14.4459C50.7207 13.6745 51.2993 12.9031 51.8169 12.0911C52.1153 11.6391 52.2552 11.1009 52.2148 10.5609C52.1744 10.0209 51.9559 9.50948 51.5936 9.10696C50.741 8.16301 49.8275 7.29011 48.9242 6.38676C48.4836 5.88876 47.8695 5.57781 47.2073 5.51744C46.5451 5.45707 45.8849 5.65185 45.3615 6.06196C44.6612 6.54916 43.9608 7.07697 43.2706 7.54387C43.196 7.61176 43.1017 7.65422 43.0014 7.66516C42.9011 7.6761 42.7999 7.65496 42.7124 7.60477C41.9207 7.24952 41.1188 6.92472 40.317 6.58977C40.2192 6.56757 40.1314 6.51379 40.0672 6.43675C40.003 6.3597 39.9659 6.26367 39.9617 6.16347C39.8196 5.30072 39.6877 4.45826 39.5354 3.60566C39.4483 3.00557 39.154 2.45486 38.7035 2.04891C38.2531 1.64295 37.6749 1.40731 37.069 1.38281C35.7495 1.38281 34.43 1.38281 33.1105 1.38281C32.5513 1.39649 32.0128 1.59674 31.5806 1.95171C31.1484 2.30667 30.8473 2.79596 30.7252 3.34176C30.5121 4.29586 30.37 5.27027 30.2076 6.23452C30.1994 6.33463 30.161 6.42991 30.0976 6.50781C30.0342 6.58572 29.9487 6.64261 29.8523 6.67097C29.0809 6.97547 28.3197 7.30027 27.5584 7.68597C27.4832 7.74524 27.3903 7.77747 27.2945 7.77747C27.1988 7.77747 27.1058 7.74524 27.0306 7.68597C26.2694 7.12772 25.5081 6.55932 24.7164 6.04167C24.2621 5.72404 23.7134 5.57013 23.1602 5.60517C22.6069 5.64021 22.082 5.86211 21.6714 6.23452C20.6564 7.14802 19.6414 8.11226 18.7685 9.10696C18.3324 9.54819 18.0739 10.1344 18.0421 10.7539C18.0102 11.3734 18.2074 11.983 18.596 12.4666C19.1136 13.2076 19.611 13.9282 20.1489 14.6692C20.176 14.7316 20.19 14.799 20.19 14.8671C20.19 14.9352 20.176 15.0025 20.1489 15.065C19.8241 15.8973 19.4993 16.7195 19.1339 17.5315C19.1022 17.5934 19.0577 17.648 19.0035 17.6917C18.9493 17.7355 18.8866 17.7673 18.8193 17.7852C17.9768 17.9476 17.1242 18.0796 16.2716 18.2217C15.6669 18.2876 15.105 18.5652 14.6852 19.0054C14.2655 19.4456 14.0148 20.0201 13.9777 20.6272C13.9371 21.9806 13.9371 23.3339 13.9777 24.6872C14.001 25.2242 14.199 25.7388 14.5416 26.1529C14.8842 26.5669 15.3527 26.8578 15.8758 26.9811C16.8908 27.2044 17.8449 27.3465 18.8396 27.5191C18.9326 27.5289 19.0207 27.5659 19.0929 27.6255C19.1651 27.685 19.2182 27.7645 19.2456 27.854C19.5501 28.6356 19.885 29.407 20.2606 30.1784C20.3099 30.2519 20.3362 30.3385 20.3362 30.427C20.3362 30.5156 20.3099 30.6022 20.2606 30.6757C19.7328 31.3862 19.2456 32.0967 18.7178 32.8072C18.3316 33.3216 18.1492 33.9605 18.2054 34.6012C18.2616 35.2419 18.5525 35.8392 19.0223 36.2785C19.8444 37.121 20.6666 37.9533 21.5192 38.7754C21.9632 39.2645 22.5773 39.5653 23.2359 39.6162C23.8945 39.6672 24.5476 39.4644 25.0615 39.0495C25.7822 38.542 26.5028 38.0345 27.2133 37.5168C27.2801 37.4696 27.3599 37.4443 27.4417 37.4443C27.5235 37.4443 27.6033 37.4696 27.6701 37.5168C28.4009 37.8416 29.1317 38.1563 29.8828 38.4303C29.9973 38.461 30.0989 38.5281 30.1721 38.6215C30.2453 38.7148 30.2862 38.8294 30.2888 38.948C30.4106 39.7904 30.5527 40.6227 30.7049 41.4753C30.7832 42.0577 31.0604 42.5951 31.4895 42.9965C31.9187 43.3979 32.4734 43.6386 33.0597 43.6779C34.4503 43.6779 35.8307 43.6779 37.2111 43.6779C37.7529 43.6517 38.2713 43.4491 38.6873 43.1009C39.1033 42.7528 39.394 42.2781 39.5151 41.7494C39.7181 40.8156 39.8602 39.8716 40.0125 38.9277C40.0214 38.8148 40.0638 38.7071 40.1344 38.6185C40.2049 38.5299 40.3003 38.4643 40.4083 38.4303C41.1899 38.136 41.9511 37.8213 42.7022 37.4762C42.7809 37.4326 42.8714 37.4149 42.9608 37.4259C43.0501 37.4368 43.1337 37.4758 43.1996 37.5371C43.9101 38.0548 44.6307 38.5521 45.3412 39.0596C45.8392 39.4275 46.4481 39.6138 47.0667 39.5874C47.6394 39.582 48.1881 39.3567 48.5994 38.9581C49.5027 38.1055 50.3858 37.2225 51.2688 36.3394C51.7804 35.8921 52.0997 35.2646 52.1602 34.5877C52.2207 33.9108 52.0178 33.2367 51.5936 32.7057C51.0963 32.0054 50.5786 31.3152 50.1016 30.6757C50.0445 30.6073 50.0091 30.5234 50.0001 30.4348C49.991 30.3462 50.0087 30.2569 50.0508 30.1784C50.3858 29.407 50.7106 28.6356 51.0658 27.8439C51.0952 27.7471 51.154 27.6619 51.234 27.6001C51.3141 27.5382 51.4114 27.5028 51.5124 27.4988C52.365 27.3702 53.2176 27.2281 54.0702 27.0725C54.6723 26.9941 55.2274 26.7058 55.6378 26.2584C56.0481 25.8109 56.2874 25.2329 56.3134 24.6263C56.354 23.2053 56.3573 21.8181 56.3235 20.4648ZM35.1912 31.6298C33.3845 31.6298 31.6183 31.0941 30.1161 30.0903C28.6138 29.0865 27.443 27.6598 26.7516 25.9906C26.0602 24.3214 25.8793 22.4847 26.2317 20.7127C26.5842 18.9406 27.4542 17.3129 28.7318 16.0354C30.0093 14.7578 31.6371 13.8878 33.4091 13.5353C35.1811 13.1829 37.0178 13.3638 38.687 14.0552C40.3562 14.7466 41.7829 15.9174 42.7867 17.4197C43.7905 18.9219 44.3262 20.6881 44.3262 22.4948C44.3235 24.9158 43.3599 27.2367 41.6471 28.9477C39.9342 30.6586 37.6122 31.6197 35.1912 31.6197V31.6298Z" fill="#6C33EB"/>
<path d="M35.1407 44.6845C34.4404 44.6845 33.7603 44.6845 33.1107 44.6845C32.2902 44.6373 31.5111 44.3086 30.9047 43.754C30.2983 43.1993 29.9016 42.4525 29.7815 41.6395C29.6496 40.8579 29.5176 40.0764 29.3958 39.2948C28.7868 39.0614 28.1778 38.7975 27.6297 38.564L25.7317 39.914C25.024 40.4684 24.1342 40.7374 23.2379 40.6679C22.3415 40.5984 21.5038 40.1954 20.8901 39.5384C20.0375 38.7061 19.2052 37.8637 18.3729 37.0212C17.7363 36.416 17.3434 35.5984 17.2686 34.7232C17.1938 33.8479 17.4422 32.9756 17.9669 32.271C18.4135 31.6214 18.8703 30.9921 19.3372 30.3527C19.0631 29.7437 18.7992 29.1245 18.5556 28.5054L18.2714 28.4546C17.4594 28.3227 16.6271 28.1907 15.805 28.008C15.063 27.8319 14.3989 27.4184 13.9134 26.8303C13.4279 26.2422 13.1477 25.5118 13.1152 24.7499C13.1152 23.2578 13.1152 21.8977 13.1152 20.5681C13.1593 19.7259 13.4989 18.9263 14.0745 18.3099C14.65 17.6935 15.4246 17.2999 16.2617 17.1983C17.0027 17.0765 17.7436 16.9648 18.4744 16.8329C18.7383 16.2036 18.9921 15.5946 19.2255 14.9653L18.5861 14.0619L17.8553 13.0469C17.3365 12.3729 17.0767 11.535 17.1233 10.6856C17.1698 9.8363 17.5196 9.03185 18.109 8.41853C19.0327 7.40353 20.0375 6.38853 21.0728 5.48518C21.6479 4.96609 22.3806 4.65496 23.1535 4.60159C23.9264 4.54822 24.6948 4.75571 25.3358 5.19083C26.0666 5.66788 26.7568 6.20584 27.4572 6.69304C28.0763 6.41899 28.6853 6.15509 29.3045 5.91149V5.61714C29.4364 4.82544 29.5684 4.01344 29.7409 3.21159C29.9131 2.44366 30.3375 1.75552 30.9465 1.25697C31.5554 0.758409 32.3138 0.47816 33.1006 0.460938C34.5622 0.460938 35.8715 0.460938 37.0997 0.460938C37.938 0.488684 38.7403 0.807997 39.3684 1.36385C39.9965 1.91969 40.411 2.67725 40.5405 3.50594C40.6826 4.27734 40.8044 5.04874 40.9262 5.82014C41.6672 6.10434 42.3066 6.37839 42.8953 6.63214L44.7832 5.29234C45.5039 4.74558 46.4027 4.48731 47.3037 4.56803C48.2047 4.64874 49.0432 5.06264 49.6552 5.72879L50.3657 6.43929C51.0255 7.08889 51.7055 7.76894 52.3957 8.46929C52.9043 9.04269 53.2114 9.76673 53.27 10.5309C53.3286 11.2951 53.1357 12.0575 52.7205 12.7018C52.2435 13.4326 51.7055 14.133 51.2285 14.8232C51.533 15.5134 51.7867 16.1122 51.9999 16.6908C52.9438 16.8329 53.7964 16.975 54.6693 17.1577C55.4218 17.3294 56.0964 17.745 56.5883 18.3397C57.0802 18.9344 57.3619 19.675 57.3895 20.4463V20.4463C57.3895 21.918 57.3895 23.2578 57.3895 24.5063C57.3553 25.3404 57.0332 26.137 56.4781 26.7605C55.923 27.3841 55.1691 27.7962 54.3445 27.9268L52.0202 28.3125C51.7766 28.9317 51.5127 29.5508 51.2488 30.17C51.6954 30.779 52.1318 31.3981 52.5683 32.0274C53.1327 32.7525 53.4015 33.6645 53.3205 34.5797C53.2395 35.495 52.8148 36.3456 52.1318 36.9603L51.8882 37.2141C51.0762 38.0159 50.2744 38.8178 49.4522 39.5993C48.8561 40.1641 48.0707 40.4862 47.2497 40.5027C46.4115 40.5285 45.5879 40.2789 44.905 39.7922L43.9611 39.1223L42.9461 38.4321C42.266 38.7264 41.6672 38.9802 41.0886 39.2035L41.0277 39.5181C40.9059 40.2895 40.7841 41.0812 40.6014 41.8729C40.4374 42.6237 40.0282 43.2986 39.4383 43.7911C38.8483 44.2836 38.1113 44.5658 37.3433 44.5931C36.5617 44.6845 35.8411 44.6845 35.1407 44.6845ZM27.5079 36.4021C27.7239 36.4079 27.9371 36.4526 28.1372 36.534C28.8477 36.8487 29.5684 37.1633 30.289 37.4272C30.5734 37.5206 30.825 37.6935 31.0139 37.9257C31.2028 38.1578 31.3211 38.4392 31.3548 38.7366C31.4766 39.579 31.6187 40.4113 31.7608 41.2436C31.7991 41.6 31.9595 41.9322 32.2148 42.1838C32.4701 42.4354 32.8046 42.5909 33.1615 42.624C34.4607 42.624 35.7903 42.624 37.2215 42.624C37.537 42.6076 37.8385 42.4888 38.0803 42.2854C38.3222 42.0821 38.491 41.8054 38.5613 41.4974C38.7237 40.7564 38.8455 40.0053 38.9673 39.2644L39.0586 38.7163C39.093 38.4313 39.2063 38.1616 39.3856 37.9375C39.5649 37.7133 39.8032 37.5437 40.0736 37.4475C40.7638 37.1836 41.4743 36.8893 42.3269 36.5137C42.5713 36.3964 42.8437 36.3504 43.113 36.3809C43.3823 36.4115 43.6376 36.5173 43.8494 36.6863L45.0167 37.5287L45.9708 38.1986C46.2908 38.4327 46.681 38.5508 47.0771 38.5336C47.2373 38.5345 47.3961 38.5036 47.5442 38.4426C47.6923 38.3816 47.8268 38.2918 47.9399 38.1783C48.7417 37.4171 49.5334 36.6254 50.3251 35.8337L50.5789 35.5799C50.7477 35.4417 50.8873 35.2712 50.9895 35.0785C51.0918 34.8858 51.1547 34.6746 51.1745 34.4573C51.1944 34.2401 51.1708 34.021 51.1051 33.8129C51.0394 33.6049 50.933 33.412 50.792 33.2454C50.3048 32.5552 49.777 31.8752 49.3101 31.2154C49.1485 31.0016 49.0488 30.7473 49.022 30.4806C48.9951 30.2139 49.0421 29.9449 49.1579 29.7031C49.4827 28.952 49.8075 28.2009 50.1018 27.4295C50.1886 27.1609 50.3503 26.9227 50.5679 26.7429C50.7855 26.5631 51.0499 26.4491 51.33 26.4145L53.8776 25.9983C54.2483 25.9559 54.592 25.784 54.8483 25.5129C55.1045 25.2418 55.2568 24.8889 55.2783 24.5164C55.2783 23.268 55.2783 21.9688 55.2783 20.5275C55.2614 20.2125 55.1438 19.9113 54.9428 19.6683C54.7418 19.4253 54.468 19.2532 54.1618 19.1775C53.2889 18.9948 52.4059 18.8527 51.4315 18.7005C51.1229 18.6641 50.8313 18.5394 50.5918 18.3413C50.3524 18.1433 50.1752 17.8803 50.0815 17.584C49.8379 16.9445 49.5537 16.2645 49.1883 15.4423C49.0629 15.1918 49.0115 14.9107 49.0402 14.632C49.069 14.3534 49.1767 14.0887 49.3507 13.8691L49.5537 13.595C50.0308 12.9353 50.5687 12.2552 50.9646 11.565C51.1459 11.3023 51.2335 10.9862 51.2132 10.6677C51.193 10.3492 51.0661 10.0467 50.8529 9.80909C50.2439 9.13919 49.574 8.47944 48.9346 7.77909L48.2241 7.06859C48.0889 6.90479 47.9226 6.76947 47.7347 6.67047C47.5469 6.57147 47.3412 6.51077 47.1297 6.49188C46.9182 6.473 46.705 6.4963 46.5026 6.56045C46.3002 6.62461 46.1125 6.72832 45.9505 6.86558C45.2603 7.34263 44.5599 7.88059 43.9205 8.33734C43.6998 8.50912 43.4353 8.61543 43.1571 8.64414C42.879 8.67286 42.5983 8.62282 42.3472 8.49974C41.5758 8.15464 40.7943 7.83999 40.0026 7.53549C39.7354 7.44943 39.4982 7.28927 39.3185 7.07365C39.1388 6.85802 39.024 6.59579 38.9876 6.31748C38.8556 5.46488 38.7135 4.61229 38.5613 3.76984C38.5141 3.40124 38.3388 3.06097 38.066 2.80861C37.7932 2.55625 37.4404 2.40787 37.0692 2.38944C35.8715 2.38944 34.5926 2.38944 33.1615 2.38944C32.8288 2.39908 32.5087 2.51895 32.2515 2.73021C31.9943 2.94148 31.8146 3.23219 31.7405 3.55669C31.5781 4.29764 31.4563 5.04874 31.3243 5.84044L31.233 6.39869C31.1947 6.67517 31.0792 6.93523 30.8996 7.14892C30.72 7.3626 30.4837 7.52123 30.218 7.60654C29.4669 7.90089 28.7158 8.22569 27.9748 8.56064C27.7277 8.68561 27.4499 8.73674 27.1745 8.70794C26.8991 8.67914 26.6378 8.57162 26.4219 8.39824L26.2798 8.28659C25.5794 7.77909 24.8791 7.27159 24.1584 6.78439C23.8953 6.60092 23.5781 6.51118 23.2578 6.52959C22.9375 6.54799 22.6327 6.67348 22.3923 6.88589C21.3773 7.79939 20.4232 8.74334 19.5402 9.69744C19.262 9.96956 19.0986 10.3379 19.0835 10.7267C19.0684 11.1156 19.2027 11.4955 19.459 11.7883L20.1796 12.8033C20.4638 13.1992 20.748 13.595 21.0221 14.001C21.146 14.193 21.2242 14.411 21.2506 14.638C21.277 14.865 21.2509 15.0951 21.1743 15.3104C20.8495 16.1731 20.5146 17.0054 20.1593 17.8377C20.0673 18.0485 19.9278 18.235 19.7517 18.3829C19.5756 18.5308 19.3678 18.636 19.1443 18.6903C18.2917 18.8426 17.429 18.9847 16.5662 19.1166C16.1958 19.149 15.8489 19.3116 15.5869 19.5754C15.3249 19.8392 15.1649 20.1873 15.1351 20.5579C15.1351 21.8368 15.1351 23.1665 15.1351 24.6179C15.1519 24.9302 15.2684 25.2289 15.4676 25.4701C15.6667 25.7112 15.9379 25.8822 16.2414 25.9577C17.0128 26.1303 17.8045 26.2521 18.5861 26.384L19.1443 26.4754C19.4163 26.5194 19.671 26.6374 19.8804 26.8164C20.0899 26.9954 20.2461 27.2286 20.3319 27.4904C20.6364 28.2618 20.9612 29.023 21.3469 29.7741C21.4678 30.0123 21.5187 30.2799 21.4935 30.5458C21.4684 30.8118 21.3682 31.0651 21.2048 31.2763C20.677 31.9868 20.1898 32.6872 19.6721 33.3977C19.4192 33.7171 19.2982 34.1213 19.3341 34.5272C19.37 34.9331 19.5599 35.3098 19.865 35.5799C20.6871 36.4122 21.5093 37.2445 22.3416 38.0565C22.478 38.2178 22.6451 38.3504 22.8332 38.4465C23.0213 38.5426 23.2266 38.6004 23.4372 38.6164C23.6478 38.6325 23.8595 38.6065 24.06 38.54C24.2605 38.4735 24.4458 38.3678 24.605 38.2291L26.7264 36.7167C26.9461 36.5287 27.2197 36.415 27.5079 36.3919V36.4021ZM35.2524 32.6364H35.1712C33.8266 32.6322 32.4962 32.3608 31.2573 31.8381C30.0184 31.3154 28.8958 30.5517 27.9545 29.5914C27.0256 28.6584 26.2921 27.5495 25.7972 26.3295C25.3022 25.1094 25.0556 23.8029 25.0719 22.4864C25.088 19.8051 26.1645 17.239 28.0662 15.3486C29.968 13.4583 32.5405 12.3973 35.2219 12.3973V12.3973C37.9139 12.3973 40.4956 13.4667 42.3991 15.3702C44.3026 17.2737 45.3719 19.8554 45.3719 22.5473C45.3664 23.8903 45.0943 25.2187 44.5717 26.4558C44.049 27.6928 43.286 28.8138 42.3269 29.7538C40.4495 31.6102 37.9129 32.6468 35.2727 32.6364H35.2524ZM35.1915 14.4172C34.1229 14.4091 33.0634 14.6136 32.0745 15.0188C31.0857 15.424 30.1873 16.0218 29.4317 16.7774C28.6761 17.533 28.0783 18.4314 27.6731 19.4202C27.2679 20.4091 27.0634 21.4686 27.0715 22.5372C27.0601 23.586 27.257 24.6267 27.6508 25.5989C28.0445 26.5712 28.6273 27.4556 29.3654 28.2009C30.119 28.9724 31.0187 29.5861 32.012 30.006C33.0054 30.426 34.0724 30.6439 35.1509 30.647H35.2219C37.3222 30.6473 39.3369 29.8151 40.8247 28.3328C41.5938 27.5816 42.2061 26.6852 42.626 25.6956C43.0459 24.7059 43.2651 23.6427 43.2709 22.5676C43.2709 20.4141 42.4154 18.3487 40.8926 16.8259C39.3698 15.3031 37.3044 14.4476 35.1509 14.4476L35.1915 14.4172Z" fill="#6C33EB"/>
<path d="M42.5196 5.10156H203.306C204.789 5.10156 206.212 5.69078 207.26 6.73961C208.309 7.78843 208.898 9.21095 208.898 10.6942V111.494H36.9371V10.7247C36.9331 9.98852 37.0744 9.25883 37.3531 8.57744C37.6317 7.89606 38.0421 7.27638 38.5608 6.75396C39.0794 6.23154 39.6961 5.81664 40.3754 5.53309C41.0548 5.24953 41.7834 5.10289 42.5196 5.10156V5.10156Z" fill="#6C33EB"/>
<path d="M208.889 112.539H36.9374C36.6682 112.539 36.41 112.433 36.2196 112.242C36.0293 112.052 35.9224 111.794 35.9224 111.524V10.7248C35.9224 8.97414 36.6171 7.295 37.8541 6.05611C39.0911 4.81723 40.7692 4.11988 42.5199 4.11719H203.306C205.057 4.11988 206.735 4.81723 207.972 6.05611C209.209 7.295 209.904 8.97414 209.904 10.7248V111.524C209.904 111.794 209.797 112.052 209.606 112.242C209.416 112.433 209.158 112.539 208.889 112.539V112.539ZM37.9524 110.509H207.874V10.7248C207.874 9.51253 207.393 8.34972 206.536 7.49153C205.68 6.63335 204.518 6.14988 203.306 6.14719H42.5199C41.3076 6.14988 40.1458 6.63335 39.2895 7.49153C38.4332 8.34972 37.9524 9.51253 37.9524 10.7248V110.509Z" fill="#6C33EB"/>
<path d="M19.0531 111.523H226.773V117.959C226.773 119.415 226.194 120.812 225.165 121.841C224.135 122.871 222.738 123.45 221.282 123.45H24.5341C23.0778 123.45 21.6811 122.871 20.6513 121.841C19.6215 120.812 19.043 119.415 19.043 117.959V111.523H19.0531Z" fill="#6C33EB"/>
<path d="M221.292 124.454H24.5341C22.8121 124.451 21.1613 123.766 19.9437 122.548C18.726 121.331 18.0408 119.68 18.0381 117.958V111.523C18.0381 111.254 18.145 110.995 18.3354 110.805C18.5257 110.615 18.7839 110.508 19.0531 110.508H226.773C227.042 110.508 227.3 110.615 227.491 110.805C227.681 110.995 227.788 111.254 227.788 111.523V117.958C227.785 119.68 227.1 121.331 225.882 122.548C224.665 123.766 223.014 124.451 221.292 124.454V124.454ZM20.0681 112.538V117.958C20.0681 119.142 20.5386 120.278 21.3762 121.116C22.2137 121.953 23.3496 122.424 24.5341 122.424H221.292C222.476 122.424 223.612 121.953 224.45 121.116C225.287 120.278 225.758 119.142 225.758 117.958V112.538H20.0681Z" fill="#6C33EB"/>
<path d="M140.975 111.523H104.861V117.481H140.975V111.523Z" fill="white"/>
<path d="M140.965 118.496H104.861C104.592 118.496 104.334 118.389 104.143 118.199C103.953 118.008 103.846 117.75 103.846 117.481V111.523C103.846 111.254 103.953 110.995 104.143 110.805C104.334 110.615 104.592 110.508 104.861 110.508H140.965C141.234 110.508 141.492 110.615 141.682 110.805C141.873 110.995 141.98 111.254 141.98 111.523V117.481C141.98 117.75 141.873 118.008 141.682 118.199C141.492 118.389 141.234 118.496 140.965 118.496ZM105.876 116.466H139.95V112.538H105.876V116.466Z" fill="#6C33EB"/>
<path d="M200.809 13.3203H45.0166V103.036H200.809V13.3203Z" fill="white"/>
<path d="M200.809 104.051H45.0165C44.7473 104.051 44.4891 103.944 44.2988 103.753C44.1084 103.563 44.0015 103.305 44.0015 103.036V13.3197C44.0015 13.0505 44.1084 12.7923 44.2988 12.602C44.4891 12.4116 44.7473 12.3047 45.0165 12.3047H200.809C201.078 12.3047 201.336 12.4116 201.527 12.602C201.717 12.7923 201.824 13.0505 201.824 13.3197V103.036C201.824 103.305 201.717 103.563 201.527 103.753C201.336 103.944 201.078 104.051 200.809 104.051ZM46.0315 102.021H199.794V14.3347H46.0315V102.021Z" fill="#6C33EB"/>
<path d="M173.13 77.5708H72.6448C69.0456 77.5708 65.5939 76.141 63.0489 73.5961C60.504 71.0511 59.0742 67.5994 59.0742 64.0002C59.0742 60.4011 60.504 56.9494 63.0489 54.4044C65.5939 51.8594 69.0456 50.4297 72.6448 50.4297H173.13C176.729 50.4297 180.181 51.8594 182.726 54.4044C185.271 56.9494 186.7 60.4011 186.7 64.0002C186.7 67.5994 185.271 71.0511 182.726 73.5961C180.181 76.141 176.729 77.5708 173.13 77.5708V77.5708ZM72.6448 52.4597C69.584 52.4597 66.6486 53.6756 64.4844 55.8398C62.3201 58.0041 61.1042 60.9395 61.1042 64.0002C61.1042 67.061 62.3201 69.9964 64.4844 72.1606C66.6486 74.3249 69.584 75.5408 72.6448 75.5408H173.13C176.191 75.5408 179.126 74.3249 181.29 72.1606C183.454 69.9964 184.67 67.061 184.67 64.0002C184.67 60.9395 183.454 58.0041 181.29 55.8398C179.126 53.6756 176.191 52.4597 173.13 52.4597H72.6448Z" fill="#6C33EB"/>
<path d="M89.3415 22.5156H53.918V30.7676H89.3415V22.5156Z" fill="#6C33EB"/>
<path d="M89.3418 31.7921H53.9183C53.6491 31.7921 53.391 31.6852 53.2006 31.4948C53.0103 31.3045 52.9033 31.0463 52.9033 30.7771V22.515C52.9033 22.2458 53.0103 21.9876 53.2006 21.7973C53.391 21.6069 53.6491 21.5 53.9183 21.5H89.3418C89.611 21.5 89.8692 21.6069 90.0595 21.7973C90.2499 21.9876 90.3568 22.2458 90.3568 22.515V30.7771C90.3568 31.0463 90.2499 31.3045 90.0595 31.4948C89.8692 31.6852 89.611 31.7921 89.3418 31.7921ZM54.9333 29.7621H88.3268V23.53H54.9333V29.7621Z" fill="#6C33EB"/>
<path d="M165.067 77.954L160.998 82.0234L175.761 96.7868L179.83 92.7174L165.067 77.954Z" fill="#6C33EB"/>
<path d="M175.759 97.7993C175.625 97.8001 175.493 97.7745 175.369 97.724C175.245 97.6734 175.133 97.599 175.038 97.5049L160.28 82.7367C160.091 82.5465 159.985 82.2893 159.985 82.0211C159.985 81.753 160.091 81.4957 160.28 81.3056L164.34 77.2456C164.434 77.1504 164.547 77.0749 164.67 77.0234C164.794 76.9719 164.927 76.9453 165.061 76.9453C165.195 76.9453 165.327 76.9719 165.451 77.0234C165.575 77.0749 165.687 77.1504 165.781 77.2456L180.539 92.0036C180.635 92.098 180.71 92.2103 180.762 92.334C180.813 92.4576 180.84 92.5903 180.84 92.7243C180.84 92.8583 180.813 92.991 180.762 93.1146C180.71 93.2383 180.635 93.3506 180.539 93.4449L176.479 97.5049C176.385 97.599 176.272 97.6734 176.148 97.724C176.025 97.7745 175.892 97.8001 175.759 97.7993V97.7993ZM162.432 82.0262L175.759 95.343L178.398 92.7142L165.071 79.3872L162.432 82.0262Z" fill="#6C33EB"/>
<path d="M148.11 91.6626C162.797 91.6626 174.703 79.7565 174.703 65.0696C174.703 50.3827 162.797 38.4766 148.11 38.4766C133.423 38.4766 121.517 50.3827 121.517 65.0696C121.517 79.7565 133.423 91.6626 148.11 91.6626Z" fill="#6C33EB"/>
<path d="M148.11 92.6769C143.571 92.6747 139.102 91.5533 135.1 89.412C131.098 87.2707 127.685 84.1756 125.164 80.4006C122.643 76.6257 121.092 72.2875 120.648 67.7701C120.204 63.2527 120.881 58.6955 122.618 54.502C124.355 50.3084 127.1 46.608 130.609 43.7282C134.117 40.8485 138.282 38.8783 142.734 37.9922C147.186 37.106 151.787 37.3312 156.131 38.6478C160.475 39.9644 164.428 42.3318 167.639 45.5403V45.5403C171.497 49.4033 174.125 54.3235 175.188 59.679C176.252 65.0346 175.704 70.5853 173.614 75.6296C171.524 80.674 167.986 84.9857 163.447 88.02C158.907 91.0542 153.57 92.6748 148.11 92.6769ZM148.11 39.4909C142.192 39.4914 136.458 41.5436 131.884 45.298C127.31 49.0524 124.179 54.2766 123.025 60.0806C121.871 65.8845 122.765 71.9091 125.555 77.1278C128.345 82.3464 132.858 86.4363 138.325 88.7005C143.792 90.9647 149.876 91.2632 155.538 89.5451C161.201 87.827 166.093 84.1986 169.38 79.2781C172.667 74.3576 174.147 68.4495 173.567 62.5605C172.986 56.6714 170.382 51.1658 166.197 46.9816V46.9816C163.829 44.5975 161.01 42.7076 157.905 41.4218C154.8 40.1359 151.471 39.4795 148.11 39.4909V39.4909Z" fill="#6C33EB"/>
<path d="M148.11 83.8737C158.498 83.8737 166.918 75.4531 166.918 65.0658C166.918 54.6784 158.498 46.2578 148.11 46.2578C137.723 46.2578 129.302 54.6784 129.302 65.0658C129.302 75.4531 137.723 83.8737 148.11 83.8737Z" fill="white"/>
<path d="M148.11 84.8881C144.85 84.888 141.641 84.084 138.766 82.5473C135.891 81.0105 133.439 78.7885 131.628 76.078C129.817 73.3675 128.703 70.2521 128.383 67.008C128.064 63.7638 128.549 60.4909 129.797 57.4792C131.044 54.4674 133.015 51.8098 135.535 49.7418C138.055 47.6738 141.046 46.2591 144.243 45.6231C147.44 44.9871 150.745 45.1494 153.865 46.0957C156.984 47.042 159.822 48.7429 162.127 51.048V51.048C164.9 53.8203 166.788 57.3524 167.553 61.1978C168.318 65.0431 167.925 69.0289 166.425 72.6511C164.924 76.2733 162.383 79.3693 159.123 81.5474C155.863 83.7256 152.031 84.8882 148.11 84.8881ZM148.11 47.2722C143.999 47.2762 140.017 48.7052 136.841 51.3159C133.665 53.9265 131.493 57.5573 130.694 61.5898C129.895 65.6224 130.518 69.8072 132.458 73.4317C134.398 77.0561 137.535 79.896 141.333 81.4675C145.132 83.0391 149.358 83.2452 153.292 82.0507C157.225 80.8562 160.623 78.335 162.906 74.9165C165.19 71.498 166.218 67.3936 165.815 63.3025C165.412 59.2113 163.603 55.3864 160.696 52.4791C159.046 50.8227 157.085 49.5096 154.924 48.6159C152.764 47.7221 150.448 47.2654 148.11 47.2722Z" fill="#6C33EB"/>
<path d="M175.555 89.5033L172.555 92.5033C171.414 93.6449 171.414 95.4957 172.555 96.6373L198.501 122.583C199.642 123.724 201.493 123.724 202.635 122.583L205.635 119.583C206.776 118.441 206.776 116.59 205.635 115.449L179.689 89.5033C178.548 88.3617 176.697 88.3617 175.555 89.5033Z" fill="#6C33EB"/>
<path d="M154.525 26.4128H117.711C117.442 26.4128 117.183 26.3059 116.993 26.1155C116.803 25.9252 116.696 25.667 116.696 25.3978C116.696 25.1286 116.803 24.8704 116.993 24.6801C117.183 24.4897 117.442 24.3828 117.711 24.3828H154.525C154.794 24.3828 155.052 24.4897 155.243 24.6801C155.433 24.8704 155.54 25.1286 155.54 25.3978C155.54 25.667 155.433 25.9252 155.243 26.1155C155.052 26.3059 154.794 26.4128 154.525 26.4128Z" fill="#6C33EB"/>
<path d="M171.537 26.4128H161.904C161.635 26.4128 161.377 26.3059 161.186 26.1155C160.996 25.9252 160.889 25.667 160.889 25.3978C160.889 25.1286 160.996 24.8704 161.186 24.6801C161.377 24.4897 161.635 24.3828 161.904 24.3828H171.537C171.806 24.3828 172.064 24.4897 172.254 24.6801C172.445 24.8704 172.552 25.1286 172.552 25.3978C172.552 25.667 172.445 25.9252 172.254 26.1155C172.064 26.3059 171.806 26.4128 171.537 26.4128Z" fill="#6C33EB"/>
<path d="M191.714 26.4128H180.245C179.976 26.4128 179.718 26.3059 179.527 26.1155C179.337 25.9252 179.23 25.667 179.23 25.3978C179.23 25.1286 179.337 24.8704 179.527 24.6801C179.718 24.4897 179.976 24.3828 180.245 24.3828H191.714C191.984 24.3828 192.242 24.4897 192.432 24.6801C192.623 24.8704 192.729 25.1286 192.729 25.3978C192.729 25.667 192.623 25.9252 192.432 26.1155C192.242 26.3059 191.984 26.4128 191.714 26.4128Z" fill="#6C33EB"/>
<path d="M81.912 60.1239C81.6826 59.8468 81.3802 59.6394 81.0391 59.5251C80.7138 59.4051 80.3708 59.3399 80.0241 59.3322C79.8263 59.3329 79.6291 59.3533 79.4354 59.3931C79.2354 59.4428 79.0413 59.5143 78.8569 59.6063C78.6828 59.6983 78.5332 59.8305 78.4204 59.992C78.299 60.1558 78.238 60.3567 78.2479 60.5604C78.2383 60.7223 78.2707 60.8839 78.3418 61.0297C78.4129 61.1755 78.5204 61.3005 78.6539 61.3927C78.9673 61.605 79.309 61.7724 79.6689 61.89L80.9985 62.296C81.4667 62.4255 81.9143 62.6203 82.3282 62.8746C82.739 63.1316 83.0861 63.4787 83.3432 63.8896C83.6369 64.3971 83.7779 64.9786 83.7492 65.5643C83.76 66.1674 83.6315 66.7648 83.3736 67.3101C83.1315 67.7932 82.7848 68.2162 82.3586 68.5484C81.9195 68.882 81.4196 69.1268 80.8869 69.2691C80.3092 69.4337 79.7112 69.5157 79.1106 69.5127C78.375 69.5177 77.644 69.3976 76.9487 69.1574C76.2539 68.9027 75.6184 68.509 75.0811 68.0003L76.9588 65.9703C77.227 66.3237 77.5748 66.6088 77.9738 66.8026C78.371 67.0013 78.8086 67.1055 79.2527 67.1071C79.4749 67.1042 79.6962 67.077 79.9125 67.0259C80.1172 66.9763 80.315 66.9013 80.5012 66.8026C80.6707 66.7037 80.8163 66.5686 80.9275 66.4068C81.0616 66.1803 81.1097 65.9132 81.0632 65.6541C81.0166 65.3951 80.8783 65.1614 80.6737 64.9959C80.3626 64.7694 80.0208 64.5883 79.6587 64.458C79.2426 64.3159 78.7858 64.1636 78.2986 64.0215C77.8264 63.8763 77.3732 63.6753 76.9487 63.4227C76.5399 63.1629 76.1934 62.8164 75.9337 62.4077C75.6403 61.9223 75.4989 61.3602 75.5277 60.7938C75.5136 60.2067 75.6425 59.625 75.9032 59.0988C76.1525 58.6262 76.4983 58.2112 76.9182 57.8808C77.3591 57.5478 77.8582 57.3 78.39 57.15C78.9436 56.9867 79.518 56.9047 80.0952 56.9064C80.7587 56.9025 81.419 56.9983 82.0541 57.1906C82.6892 57.3835 83.2745 57.7126 83.7695 58.1548L81.912 60.1239Z" fill="#6C33EB"/>
<path d="M85.7996 57.2031H93.9196V59.6391H88.4081V61.8721H93.6252V64.3081H88.4183V66.7543H94.2342V69.1903H85.7793L85.7996 57.2031Z" fill="#6C33EB"/>
<path d="M95.726 63.1849C95.716 62.2928 95.8779 61.4072 96.2031 60.5764C96.5018 59.8105 96.9623 59.1181 97.553 58.5464C98.1376 57.9939 98.8282 57.5657 99.583 57.2878C101.26 56.7062 103.083 56.7062 104.76 57.2878C105.515 57.5634 106.206 57.9919 106.79 58.5464C107.38 59.1181 107.841 59.8105 108.139 60.5764C108.789 62.2548 108.789 64.1151 108.139 65.7935C107.841 66.54 107.388 67.2152 106.811 67.7749C106.234 68.3346 105.545 68.7662 104.79 69.0415C103.116 69.6369 101.288 69.6369 99.6135 69.0415C98.8568 68.7674 98.1654 68.3388 97.5835 67.7829C96.9927 67.2112 96.5323 66.5188 96.2335 65.7529C95.9021 64.9371 95.7298 64.0654 95.726 63.1849ZM98.4665 63.1849C98.4614 63.7142 98.5507 64.2401 98.7304 64.7379C98.8958 65.1905 99.1514 65.6049 99.4815 65.9559C99.8134 66.3028 100.215 66.576 100.659 66.7577C101.637 67.1444 102.726 67.1444 103.704 66.7577C104.148 66.576 104.549 66.3028 104.881 65.9559C105.211 65.6049 105.467 65.1905 105.632 64.7379C105.817 64.2413 105.906 63.7145 105.896 63.1849C105.904 62.6588 105.814 62.1358 105.632 61.6421C105.467 61.1864 105.212 60.7687 104.881 60.414C104.549 60.067 104.148 59.7938 103.704 59.6121C102.723 59.2382 101.639 59.2382 100.659 59.6121C100.215 59.7938 99.8134 60.067 99.4815 60.414C99.1511 60.7687 98.8956 61.1864 98.7304 61.6421C98.5533 62.1371 98.464 62.6592 98.4665 63.1849V63.1849Z" fill="#6C33EB"/>
<path d="M131.332 70.7996C131.188 70.7994 131.046 70.7686 130.914 70.7091C130.783 70.6496 130.666 70.5628 130.571 70.4545C130.392 70.2538 130.3 69.9904 130.316 69.7222C130.331 69.4539 130.452 69.2026 130.652 69.0234L143.725 57.4219C143.926 57.2433 144.189 57.1515 144.458 57.1667C144.726 57.1819 144.977 57.3029 145.156 57.5031L152.83 66.019L187.401 43.2627C187.512 43.1867 187.637 43.1337 187.769 43.1066C187.901 43.0796 188.037 43.079 188.169 43.1051C188.301 43.1312 188.427 43.1833 188.539 43.2584C188.651 43.3335 188.747 43.4301 188.821 43.5426C188.895 43.6551 188.946 43.7812 188.971 43.9136C188.995 44.046 188.994 44.182 188.965 44.3137C188.937 44.4455 188.883 44.5702 188.806 44.6808C188.729 44.7914 188.631 44.8855 188.517 44.9577L153.215 68.1911C153.013 68.3273 152.768 68.3858 152.525 68.356C152.283 68.3261 152.06 68.2099 151.896 68.0287L144.375 59.6042L132.053 70.5459C131.855 70.7211 131.596 70.8121 131.332 70.7996Z" fill="#6C33EB"/>
<path d="M188.842 46.5137C190.423 46.5137 191.705 45.2322 191.705 43.6514C191.705 42.0706 190.423 40.7891 188.842 40.7891C187.261 40.7891 185.98 42.0706 185.98 43.6514C185.98 45.2322 187.261 46.5137 188.842 46.5137Z" fill="#6C33EB"/>
<path d="M188.842 47.528C188.076 47.526 187.327 47.2969 186.691 46.8696C186.055 46.4424 185.559 45.8361 185.267 45.1275C184.975 44.4188 184.9 43.6396 185.051 42.8881C185.202 42.1366 185.572 41.4467 186.114 40.9055C186.657 40.3643 187.348 39.996 188.1 39.8472C188.852 39.6984 189.631 39.7758 190.339 40.0695C191.046 40.3633 191.651 40.8603 192.077 41.4977C192.503 42.1351 192.73 42.8843 192.73 43.6507C192.73 44.1608 192.629 44.6658 192.434 45.1369C192.238 45.6079 191.952 46.0358 191.59 46.396C191.229 46.7562 190.801 47.0416 190.329 47.2358C189.858 47.4301 189.352 47.5294 188.842 47.528ZM188.842 41.8034C188.477 41.8054 188.121 41.9155 187.819 42.1197C187.516 42.3239 187.281 42.6131 187.143 42.9508C187.005 43.2885 186.969 43.6596 187.042 44.0173C187.114 44.375 187.291 44.7032 187.55 44.9605C187.808 45.2178 188.138 45.3928 188.496 45.4632C188.854 45.5337 189.225 45.4965 189.562 45.3564C189.899 45.2163 190.187 44.9795 190.389 44.676C190.592 44.3724 190.7 44.0157 190.7 43.6507C190.697 43.1599 190.5 42.69 190.152 42.3439C189.804 41.9977 189.333 41.8034 188.842 41.8034V41.8034Z" fill="#6C33EB"/>
<path d="M153.571 70.209C155.152 70.209 156.433 68.9275 156.433 67.3467C156.433 65.7659 155.152 64.4844 153.571 64.4844C151.99 64.4844 150.708 65.7659 150.708 67.3467C150.708 68.9275 151.99 70.209 153.571 70.209Z" fill="#6C33EB"/>
<path d="M153.571 71.228C152.801 71.23 152.048 71.0035 151.407 70.5771C150.767 70.1507 150.267 69.5437 149.971 68.8329C149.676 68.1222 149.598 67.3397 149.748 66.5847C149.897 65.8296 150.268 65.136 150.812 64.5917C151.356 64.0475 152.05 63.677 152.805 63.5273C153.56 63.3777 154.342 63.4555 155.053 63.751C155.764 64.0465 156.371 64.5463 156.797 65.1871C157.224 65.828 157.45 66.581 157.448 67.3507C157.448 68.379 157.04 69.3652 156.313 70.0924C155.585 70.8195 154.599 71.228 153.571 71.228ZM153.571 65.4933C153.203 65.4913 152.843 65.5985 152.536 65.8014C152.229 66.0042 151.99 66.2936 151.848 66.6328C151.705 66.9721 151.667 67.3458 151.738 67.7068C151.808 68.0678 151.984 68.3997 152.244 68.6605C152.503 68.9213 152.834 69.0992 153.195 69.1717C153.555 69.2442 153.929 69.208 154.269 69.0677C154.609 68.9274 154.9 68.6894 155.104 68.3837C155.309 68.078 155.418 67.7185 155.418 67.3507C155.42 67.1073 155.373 66.866 155.281 66.6407C155.188 66.4154 155.052 66.2105 154.881 66.0379C154.709 65.8653 154.505 65.7283 154.28 65.6348C154.055 65.5414 153.814 65.4933 153.571 65.4933V65.4933Z" fill="#6C33EB"/>
<path d="M144.172 60.3887C145.753 60.3887 147.034 59.1072 147.034 57.5264C147.034 55.9455 145.753 54.6641 144.172 54.6641C142.591 54.6641 141.31 55.9455 141.31 57.5264C141.31 59.1072 142.591 60.3887 144.172 60.3887Z" fill="#6C33EB"/>
<path d="M144.172 61.3999C143.402 61.4019 142.649 61.1753 142.008 60.749C141.368 60.3226 140.868 59.7156 140.572 59.0048C140.277 58.294 140.199 57.5116 140.349 56.7565C140.498 56.0015 140.869 55.3079 141.413 54.7636C141.957 54.2193 142.651 53.8489 143.406 53.6992C144.161 53.5495 144.943 53.6274 145.654 53.9229C146.365 54.2184 146.972 54.7182 147.398 55.359C147.825 55.9999 148.051 56.7529 148.049 57.5226C148.049 58.5509 147.641 59.5371 146.914 60.2643C146.187 60.9914 145.2 61.3999 144.172 61.3999ZM144.172 55.6651C143.804 55.6631 143.444 55.7704 143.137 55.9732C142.831 56.1761 142.591 56.4655 142.449 56.8047C142.307 57.1439 142.268 57.5177 142.339 57.8787C142.409 58.2397 142.585 58.5716 142.845 58.8324C143.104 59.0932 143.435 59.2711 143.796 59.3436C144.156 59.4161 144.53 59.3799 144.87 59.2396C145.21 59.0993 145.501 58.8613 145.706 58.5556C145.91 58.2499 146.019 57.8904 146.019 57.5226C146.021 57.2791 145.974 57.0378 145.882 56.8125C145.789 56.5872 145.654 56.3824 145.482 56.2098C145.31 56.0372 145.106 55.9002 144.881 55.8067C144.656 55.7132 144.415 55.6651 144.172 55.6651V55.6651Z" fill="#6C33EB"/>
</svg>
