<svg width="260" height="167" viewBox="0 0 260 167" fill="none" xmlns="http://www.w3.org/2000/svg">
<g clip-path="url(#clip0_355_279)">
<path d="M243.033 147.328H177.333C174.942 147.326 172.651 146.375 170.961 144.685C169.27 142.995 168.32 140.704 168.317 138.315V34.7014C168.32 32.3116 169.27 30.0204 170.961 28.3306C172.651 26.6407 174.942 25.6902 177.333 25.6875H243.033C245.423 25.6902 247.714 26.6407 249.405 28.3306C251.095 30.0204 252.046 32.3116 252.048 34.7014V138.315C252.046 140.704 251.095 142.995 249.405 144.685C247.714 146.375 245.423 147.326 243.033 147.328V147.328Z" fill="#E6E6E6"/>
<path d="M244.122 31.0625H177.209C176.461 31.0634 175.743 31.361 175.214 31.89C174.685 32.419 174.388 33.1361 174.387 33.8842V138.848C174.388 139.596 174.686 140.313 175.215 140.842C175.744 141.371 176.461 141.669 177.209 141.67H244.122C244.871 141.669 245.588 141.372 246.117 140.843C246.646 140.314 246.944 139.596 246.945 138.848V33.8842C246.944 33.1361 246.646 32.419 246.117 31.89C245.588 31.361 244.871 31.0634 244.122 31.0625V31.0625Z" fill="white"/>
<path d="M178.939 25.6896C178.939 25.5068 179.012 25.3315 179.141 25.2022C179.271 25.0729 179.446 25.0002 179.629 25H184.319C184.502 25 184.677 25.0727 184.806 25.202C184.936 25.3313 185.008 25.5067 185.008 25.6896C185.008 25.8725 184.936 26.0479 184.806 26.1772C184.677 26.3065 184.502 26.3791 184.319 26.3791H179.629C179.446 26.3789 179.271 26.3062 179.141 26.1769C179.012 26.0477 178.939 25.8724 178.939 25.6896Z" fill="#E6E6E6"/>
<path d="M186.664 25.6896C186.664 25.5068 186.737 25.3315 186.866 25.2022C186.995 25.0729 187.17 25.0002 187.353 25H192.043C192.226 25 192.402 25.0727 192.531 25.202C192.66 25.3313 192.733 25.5067 192.733 25.6896C192.733 25.8725 192.66 26.0479 192.531 26.1772C192.402 26.3065 192.226 26.3791 192.043 26.3791H187.353C187.17 26.3789 186.995 26.3062 186.866 26.1769C186.737 26.0477 186.664 25.8724 186.664 25.6896Z" fill="#E6E6E6"/>
<path d="M233.012 25.6896C233.012 25.5068 233.085 25.3315 233.214 25.2022C233.344 25.0729 233.519 25.0002 233.702 25H238.392C238.575 25 238.75 25.0727 238.88 25.202C239.009 25.3313 239.082 25.5067 239.082 25.6896C239.082 25.8725 239.009 26.0479 238.88 26.1772C238.75 26.3065 238.575 26.3791 238.392 26.3791H233.702C233.519 26.3789 233.344 26.3062 233.214 26.1769C233.085 26.0477 233.012 25.8724 233.012 25.6896V25.6896Z" fill="#E6E6E6"/>
<path d="M219.938 139.507C219.938 140.233 219.924 140.955 219.891 141.67H177.209C176.461 141.669 175.744 141.371 175.215 140.842C174.686 140.313 174.388 139.596 174.387 138.848V86.0156C187.097 88.0688 198.662 94.5791 207.008 104.381C215.355 114.182 219.938 126.634 219.938 139.507Z" fill="#F2F2F2"/>
<path d="M218.489 58.0391H202.57C201.846 58.0391 201.259 58.6262 201.259 59.3504V60.9867C201.259 61.7109 201.846 62.298 202.57 62.298H218.489C219.213 62.298 219.8 61.7109 219.8 60.9867V59.3504C219.8 58.6262 219.213 58.0391 218.489 58.0391Z" fill="#6C33EB"/>
<path d="M228.606 66.5547H192.453C191.729 66.5547 191.142 67.1418 191.142 67.866V69.5023C191.142 70.2266 191.729 70.8137 192.453 70.8137H228.606C229.33 70.8137 229.917 70.2266 229.917 69.5023V67.866C229.917 67.1418 229.33 66.5547 228.606 66.5547Z" fill="#E6E6E6"/>
<path d="M228.606 75.0781H192.453C191.729 75.0781 191.142 75.6652 191.142 76.3894V78.0258C191.142 78.75 191.729 79.3371 192.453 79.3371H228.606C229.33 79.3371 229.917 78.75 229.917 78.0258V76.3894C229.917 75.6652 229.33 75.0781 228.606 75.0781Z" fill="#E6E6E6"/>
<path d="M222.415 134.495C222.208 134.504 222.003 134.45 221.828 134.339C221.652 134.228 221.515 134.066 221.435 133.874C221.355 133.683 221.336 133.471 221.38 133.269C221.424 133.066 221.53 132.882 221.682 132.741L221.751 132.465C221.742 132.443 221.733 132.421 221.724 132.399C221.515 131.906 221.165 131.486 220.718 131.191C220.271 130.896 219.747 130.739 219.211 130.741C218.675 130.743 218.152 130.904 217.707 131.202C217.263 131.5 216.916 131.923 216.711 132.418C215.891 134.392 214.847 136.37 214.59 138.457C214.477 139.38 214.524 140.315 214.731 141.222C212.805 137.022 211.805 132.457 211.799 127.837C211.798 126.678 211.863 125.519 211.992 124.367C212.098 123.422 212.246 122.484 212.435 121.553C213.468 116.501 215.684 111.766 218.902 107.737C220.459 106.887 221.719 105.58 222.511 103.993C222.798 103.422 223 102.813 223.113 102.184C222.937 102.208 222.758 102.222 222.583 102.233C222.528 102.236 222.47 102.239 222.416 102.242L222.395 102.243C222.202 102.252 222.01 102.204 221.844 102.107C221.677 102.009 221.542 101.865 221.455 101.693C221.368 101.52 221.332 101.326 221.353 101.134C221.374 100.942 221.45 100.76 221.571 100.61C221.647 100.516 221.723 100.423 221.799 100.33C221.914 100.186 222.033 100.045 222.148 99.9009C222.161 99.8872 222.174 99.8728 222.185 99.8576C222.318 99.6935 222.45 99.5322 222.583 99.3681C222.341 98.9928 222.016 98.6784 221.632 98.4495C220.304 97.672 218.472 98.2105 217.513 99.4113C216.551 100.612 216.37 102.297 216.704 103.797C217.033 105.074 217.576 106.285 218.311 107.379C218.239 107.472 218.164 107.561 218.092 107.653C216.776 109.345 215.629 111.162 214.667 113.078C214.901 110.932 214.622 108.761 213.852 106.743C213.073 104.863 211.612 103.279 210.325 101.654C208.779 99.7011 205.61 100.553 205.337 103.028C205.335 103.052 205.332 103.076 205.33 103.1C205.521 103.208 205.708 103.322 205.891 103.443C206.121 103.597 206.299 103.817 206.402 104.073C206.505 104.33 206.528 104.612 206.469 104.881C206.409 105.151 206.269 105.397 206.067 105.586C205.865 105.775 205.611 105.899 205.338 105.941L205.31 105.945C205.378 106.634 205.498 107.317 205.67 107.987C206.167 109.859 207.045 111.608 208.25 113.124C209.455 114.64 210.96 115.891 212.672 116.799C212.784 116.857 212.893 116.914 213.006 116.969C212.039 119.707 211.433 122.558 211.203 125.452C211.072 127.16 211.08 128.875 211.226 130.581L211.217 130.521C210.848 128.624 209.836 126.912 208.351 125.674C206.146 123.863 203.03 123.196 200.65 121.74C200.398 121.578 200.104 121.491 199.803 121.49C199.503 121.49 199.208 121.575 198.954 121.736C198.701 121.897 198.498 122.127 198.371 122.399C198.244 122.672 198.198 122.975 198.237 123.272C198.24 123.294 198.244 123.315 198.247 123.336C198.602 123.48 198.947 123.647 199.281 123.834C199.472 123.942 199.659 124.056 199.842 124.177C200.072 124.331 200.25 124.55 200.354 124.807C200.457 125.064 200.48 125.345 200.42 125.615C200.36 125.885 200.22 126.131 200.018 126.32C199.816 126.509 199.562 126.633 199.289 126.675L199.261 126.679C199.241 126.682 199.223 126.685 199.203 126.688C199.809 128.135 200.66 129.466 201.718 130.624C203.025 132.026 204.604 133.147 206.359 133.917C208.115 134.687 210.009 135.09 211.926 135.102H211.928C212.449 137.363 213.203 139.563 214.178 141.668H222.214C222.243 141.579 222.269 141.487 222.295 141.397C221.551 141.444 220.804 141.4 220.071 141.265C220.667 140.534 221.263 139.796 221.86 139.065C221.873 139.051 221.885 139.037 221.897 139.022C222.2 138.647 222.505 138.276 222.807 137.901L222.807 137.901C222.824 136.754 222.692 135.609 222.416 134.495L222.415 134.495ZM213.213 116.396L213.217 116.39L213.213 116.402V116.396ZM211.433 132.439L211.364 132.283C211.367 132.171 211.367 132.059 211.364 131.943C211.364 131.912 211.358 131.88 211.358 131.848C211.384 132.047 211.407 132.246 211.436 132.444L211.433 132.439Z" fill="#CCCCCC"/>
<path d="M240.777 40.3326H180.553C180.423 40.3297 180.299 40.2759 180.208 40.1828C180.117 40.0897 180.066 39.9645 180.066 39.8343C180.066 39.704 180.117 39.5788 180.208 39.4857C180.299 39.3926 180.423 39.3388 180.553 39.3359H240.777C240.908 39.3388 241.032 39.3926 241.123 39.4857C241.214 39.5788 241.265 39.704 241.265 39.8343C241.265 39.9645 241.214 40.0897 241.123 40.1828C241.032 40.2759 240.908 40.3297 240.777 40.3326V40.3326Z" fill="#CACACA"/>
<path d="M183.767 37.8929C184.576 37.8929 185.232 37.2226 185.232 36.3957C185.232 35.5688 184.576 34.8984 183.767 34.8984C182.958 34.8984 182.302 35.5688 182.302 36.3957C182.302 37.2226 182.958 37.8929 183.767 37.8929Z" fill="#3F3D56"/>
<path d="M188.827 37.8929C189.636 37.8929 190.292 37.2226 190.292 36.3957C190.292 35.5688 189.636 34.8984 188.827 34.8984C188.018 34.8984 187.362 35.5688 187.362 36.3957C187.362 37.2226 188.018 37.8929 188.827 37.8929Z" fill="#3F3D56"/>
<path d="M193.888 37.8929C194.697 37.8929 195.353 37.2226 195.353 36.3957C195.353 35.5688 194.697 34.8984 193.888 34.8984C193.079 34.8984 192.423 35.5688 192.423 36.3957C192.423 37.2226 193.079 37.8929 193.888 37.8929Z" fill="#3F3D56"/>
<path d="M238.423 35.4766H235.145C235.08 35.4778 235.018 35.5046 234.973 35.551C234.927 35.5974 234.902 35.6597 234.902 35.7247C234.902 35.7897 234.927 35.8521 234.973 35.8985C235.018 35.9449 235.08 35.9716 235.145 35.9729H238.423C238.488 35.9716 238.55 35.9449 238.596 35.8985C238.641 35.8521 238.667 35.7897 238.667 35.7247C238.667 35.6597 238.641 35.5974 238.596 35.551C238.55 35.5046 238.488 35.4778 238.423 35.4766V35.4766Z" fill="#3F3D56"/>
<path d="M238.423 36.4062H235.145C235.08 36.4075 235.018 36.4342 234.973 36.4806C234.927 36.527 234.902 36.5894 234.902 36.6544C234.902 36.7194 234.927 36.7818 234.973 36.8282C235.018 36.8746 235.08 36.9013 235.145 36.9026H238.423C238.488 36.9013 238.55 36.8746 238.596 36.8282C238.641 36.7818 238.667 36.7194 238.667 36.6544C238.667 36.5894 238.641 36.527 238.596 36.4806C238.55 36.4342 238.488 36.4075 238.423 36.4062V36.4062Z" fill="#3F3D56"/>
<path d="M238.423 37.3438H235.145C235.08 37.345 235.018 37.3717 234.973 37.4181C234.927 37.4645 234.902 37.5269 234.902 37.5919C234.902 37.6569 234.927 37.7193 234.973 37.7657C235.018 37.8121 235.08 37.8388 235.145 37.8401H238.423C238.488 37.8388 238.55 37.8121 238.596 37.7657C238.641 37.7193 238.667 37.6569 238.667 37.5919C238.667 37.5269 238.641 37.4645 238.596 37.4181C238.55 37.3717 238.488 37.345 238.423 37.3438Z" fill="#3F3D56"/>
<path d="M140.711 86.0625H105.794C105.3 86.0632 104.827 86.2601 104.478 86.6097C104.129 86.9594 103.934 87.4332 103.934 87.9271V143.073H142.575V87.9271C142.576 87.6822 142.527 87.4397 142.434 87.2134C142.34 86.9871 142.203 86.7815 142.03 86.6083C141.856 86.4352 141.651 86.2978 141.424 86.2042C141.198 86.1105 140.955 86.0624 140.711 86.0625ZM123.37 117.396C122.278 117.391 121.232 116.955 120.46 116.183C119.688 115.411 119.252 114.365 119.247 113.274V106.913C119.248 105.82 119.683 104.773 120.456 104.001C121.229 103.228 122.277 102.794 123.37 102.794C124.463 102.794 125.511 103.228 126.284 104.001C127.057 104.773 127.492 105.82 127.493 106.913V113.274C127.488 114.365 127.052 115.411 126.28 116.183C125.508 116.955 124.462 117.391 123.37 117.396V117.396Z" fill="#E6E6E6"/>
<path d="M103.814 141.305V146.625C103.815 146.901 103.925 147.165 104.12 147.36C104.315 147.555 104.579 147.665 104.855 147.665H141.655C141.931 147.664 142.195 147.554 142.389 147.359C142.584 147.164 142.694 146.901 142.696 146.625V141.305L103.814 141.305Z" fill="#CCCCCC"/>
<path d="M198.529 0H49.2754C47.993 0.00203961 46.7638 0.512238 45.8571 1.41879C44.9503 2.32534 44.44 3.5543 44.438 4.83636V105.533C44.4392 106.815 44.9493 108.044 45.8562 108.951C46.7631 109.858 47.9928 110.368 49.2754 110.369H198.529C199.812 110.368 201.041 109.858 201.948 108.951C202.855 108.044 203.365 106.815 203.366 105.533V4.83636C203.364 3.5543 202.854 2.32534 201.947 1.41879C201.04 0.512238 199.811 0.00203882 198.529 0Z" fill="#E6E6E6"/>
<path d="M197.283 3.49219H50.5221C49.8355 3.49368 49.1775 3.7674 48.6925 4.2533C48.2075 4.7392 47.9351 5.3976 47.9351 6.08406V104.284C47.9362 104.97 48.2092 105.627 48.6941 106.112C49.179 106.597 49.8363 106.87 50.5221 106.871H197.283C197.969 106.87 198.626 106.597 199.111 106.112C199.596 105.627 199.869 104.97 199.87 104.284V6.08406C199.87 5.3976 199.597 4.7392 199.112 4.2533C198.627 3.7674 197.969 3.49368 197.283 3.49219Z" fill="white"/>
<path d="M199.87 6.08406V104.284C199.869 104.97 199.596 105.627 199.111 106.112C198.626 106.597 197.969 106.87 197.283 106.871H145.532C139.807 101.563 135.11 95.2445 131.677 88.2332C131.451 87.7815 131.236 87.3244 131.032 86.862C127.904 80.0758 126.01 72.7869 125.438 65.3366C125.401 64.8796 125.368 64.4225 125.347 63.96C125.277 62.777 125.245 61.5779 125.245 60.3734C125.234 52.3624 126.747 44.4226 129.703 36.9767C129.881 36.5142 130.069 36.0571 130.263 35.6001C136.212 21.626 146.961 10.2382 160.57 3.49219H197.283C197.97 3.49368 198.628 3.7674 199.113 4.2533C199.598 4.7392 199.87 5.3976 199.87 6.08406Z" fill="#6C33EB"/>
<path d="M189.906 17.0217H52.5824C52.4396 17.0186 52.3037 16.9598 52.2037 16.8577C52.1038 16.7556 52.0479 16.6185 52.0479 16.4757C52.0479 16.3329 52.1038 16.1957 52.2037 16.0936C52.3037 15.9916 52.4396 15.9327 52.5824 15.9297H189.906C190.049 15.9327 190.185 15.9916 190.285 16.0936C190.384 16.1957 190.44 16.3329 190.44 16.4757C190.44 16.6185 190.384 16.7556 190.285 16.8577C190.185 16.9598 190.049 17.0186 189.906 17.0217V17.0217Z" fill="#CACACA"/>
<path d="M61.9299 13.1358C63.6974 13.1358 65.1303 11.6713 65.1303 9.86479C65.1303 8.05824 63.6974 6.59375 61.9299 6.59375C60.1624 6.59375 58.7295 8.05824 58.7295 9.86479C58.7295 11.6713 60.1624 13.1358 61.9299 13.1358Z" fill="#3F3D56"/>
<path d="M72.986 13.1358C74.7536 13.1358 76.1864 11.6713 76.1864 9.86479C76.1864 8.05824 74.7536 6.59375 72.986 6.59375C71.2185 6.59375 69.7856 8.05824 69.7856 9.86479C69.7856 11.6713 71.2185 13.1358 72.986 13.1358Z" fill="#3F3D56"/>
<path d="M84.0417 13.1358C85.8092 13.1358 87.2421 11.6713 87.2421 9.86479C87.2421 8.05824 85.8092 6.59375 84.0417 6.59375C82.2742 6.59375 80.8413 8.05824 80.8413 9.86479C80.8413 11.6713 82.2742 13.1358 84.0417 13.1358Z" fill="#3F3D56"/>
<path d="M183.249 7.40625H175.396C175.24 7.40933 175.092 7.47332 174.983 7.58448C174.874 7.69564 174.812 7.84511 174.812 8.00078C174.812 8.15645 174.874 8.30592 174.983 8.41708C175.092 8.52824 175.24 8.59223 175.396 8.59531H183.249C183.405 8.59223 183.553 8.52824 183.662 8.41708C183.771 8.30592 183.832 8.15645 183.832 8.00078C183.832 7.84511 183.771 7.69564 183.662 7.58448C183.553 7.47332 183.405 7.40933 183.249 7.40625V7.40625Z" fill="#3F3D56"/>
<path d="M183.249 9.64062H175.396C175.24 9.6437 175.092 9.7077 174.983 9.81886C174.874 9.93002 174.812 10.0795 174.812 10.2352C174.812 10.3908 174.874 10.5403 174.983 10.6515C175.092 10.7626 175.24 10.8266 175.396 10.8297H183.249C183.405 10.8266 183.553 10.7626 183.662 10.6515C183.771 10.5403 183.832 10.3908 183.832 10.2352C183.832 10.0795 183.771 9.93002 183.662 9.81886C183.553 9.7077 183.405 9.6437 183.249 9.64062V9.64062Z" fill="#3F3D56"/>
<path d="M183.249 11.8672H175.396C175.24 11.8703 175.092 11.9343 174.983 12.0454C174.874 12.1566 174.812 12.306 174.812 12.4617C174.812 12.6174 174.874 12.7669 174.983 12.878C175.092 12.9892 175.24 13.0532 175.396 13.0563H183.249C183.405 13.0532 183.553 12.9892 183.662 12.878C183.771 12.7669 183.832 12.6174 183.832 12.4617C183.832 12.306 183.771 12.1566 183.662 12.0454C183.553 11.9343 183.405 11.8703 183.249 11.8672V11.8672Z" fill="#3F3D56"/>
<path d="M94.6288 48.9141H75.4254C74.701 48.9141 74.1138 49.5012 74.1138 50.2254V52.2692C74.1138 52.9934 74.701 53.5805 75.4254 53.5805H94.6288C95.3532 53.5805 95.9404 52.9934 95.9404 52.2692V50.2254C95.9404 49.5012 95.3532 48.9141 94.6288 48.9141Z" fill="#6C33EB"/>
<path d="M105.714 58.25H64.3404C63.616 58.25 63.0288 58.8371 63.0288 59.5613V61.6051C63.0288 62.3293 63.616 62.9164 64.3404 62.9164H105.714C106.438 62.9164 107.025 62.3293 107.025 61.6051V59.5613C107.025 58.8371 106.438 58.25 105.714 58.25Z" fill="#E6E6E6"/>
<path d="M105.714 67.5859H64.3404C63.616 67.5859 63.0288 68.173 63.0288 68.8973V70.941C63.0288 71.6653 63.616 72.2523 64.3404 72.2523H105.714C106.438 72.2523 107.025 71.6653 107.025 70.941V68.8973C107.025 68.173 106.438 67.5859 105.714 67.5859Z" fill="#E6E6E6"/>
<path d="M66.6197 101.241C66.6229 103.163 66.2804 105.07 65.6085 106.871H50.5221C49.8363 106.87 49.179 106.597 48.6941 106.112C48.2092 105.628 47.9362 104.97 47.9351 104.285V85.3137C48.778 85.1774 49.6305 85.1091 50.4844 85.1094C52.6034 85.1092 54.7016 85.5264 56.6593 86.3371C58.6169 87.1477 60.3957 88.336 61.8941 89.834C63.3924 91.332 64.5809 93.1104 65.3917 95.0677C66.2025 97.025 66.6198 99.1228 66.6197 101.241V101.241Z" fill="#6C63FF"/>
<path opacity="0.2" d="M200.004 36.9717V35.5951H176.926V19.6406H175.554V35.5951H149.103V19.6406H147.732V35.5951H130.263C130.069 36.0521 129.881 36.5092 129.703 36.9717H147.732V63.955H125.347C125.368 64.4175 125.4 64.8746 125.438 65.3316H147.732V86.857H131.032C131.236 87.3195 131.451 87.7765 131.677 88.2282H147.732V106.323H149.103V88.2282H175.554V106.323H176.926V88.2282H200.004V86.857H176.926V86.857C176.926 84.0302 177.483 81.2312 178.565 78.6196C179.646 76.008 181.232 73.6351 183.232 71.6362C185.231 69.6374 187.604 68.0519 190.216 66.9701C192.828 65.8884 195.628 65.3316 198.455 65.3316H200.004V63.955H176.926V36.9717H200.004ZM175.554 86.857H149.103V65.3316H175.554V86.857ZM175.554 63.955H149.103V63.4173C149.103 56.4035 151.89 49.6769 156.85 44.7174C161.811 39.7579 168.539 36.9717 175.554 36.9717H175.554V63.955Z" fill="black"/>
<path d="M181.422 96.6848C181.128 96.6983 180.837 96.6211 180.588 96.4635C180.339 96.3059 180.144 96.0755 180.03 95.8037C179.917 95.5319 179.889 95.2317 179.952 94.9438C180.015 94.6559 180.164 94.3942 180.381 94.1942C180.417 94.0502 180.443 93.9468 180.479 93.8027C180.466 93.7714 180.453 93.7401 180.44 93.7088C179.117 90.5543 174.632 90.576 173.32 93.7352C172.156 96.5392 170.673 99.3479 170.308 102.313C170.148 103.623 170.215 104.952 170.509 106.239C167.774 100.274 166.354 93.7911 166.345 87.2294C166.344 85.5829 166.436 83.9375 166.619 82.3012C166.77 80.9597 166.98 79.6278 167.249 78.3054C168.715 71.1304 171.862 64.4053 176.432 58.6825C178.644 57.4759 180.433 55.6203 181.558 53.3658C181.965 52.5554 182.253 51.6903 182.413 50.7974C182.163 50.8301 181.91 50.8506 181.66 50.8669C181.582 50.871 181.5 50.8751 181.423 50.8792L181.393 50.8805C181.119 50.8928 180.847 50.8256 180.61 50.6869C180.373 50.5483 180.182 50.3442 180.058 50.0991C179.934 49.854 179.884 49.5784 179.914 49.3056C179.943 49.0327 180.051 48.7741 180.224 48.561C180.332 48.4285 180.439 48.296 180.547 48.1635C180.711 47.959 180.879 47.7586 181.042 47.5542C181.061 47.5347 181.079 47.5142 181.095 47.4928C181.284 47.2597 181.472 47.0306 181.66 46.7975C181.316 46.2645 180.854 45.818 180.31 45.4929C178.424 44.3887 175.823 45.1534 174.46 46.8589C173.094 48.5643 172.836 50.9569 173.311 53.0877C173.716 54.9117 174.599 56.5845 175.594 58.1754C175.491 58.3062 175.385 58.433 175.283 58.5639C173.413 60.9673 171.784 63.5481 170.418 66.2692C170.75 63.2207 170.354 60.137 169.261 57.2715C168.154 54.6011 166.079 52.3521 164.251 50.0435C162.056 47.2705 157.555 48.4807 157.168 51.9959C157.164 52.0299 157.161 52.0639 157.157 52.0979C157.428 52.251 157.694 52.4135 157.954 52.5854C158.281 52.8036 158.534 53.1153 158.68 53.4798C158.827 53.8442 158.859 54.2443 158.774 54.6277C158.689 55.0112 158.491 55.36 158.204 55.6285C157.917 55.897 157.556 56.0727 157.168 56.1325L157.128 56.1387C157.225 57.1168 157.396 58.0861 157.64 59.0383C158.346 61.6966 159.594 64.1804 161.305 66.3339C163.016 68.4875 165.154 70.2643 167.584 71.5532C167.744 71.635 167.899 71.7168 168.059 71.7945C166.686 75.6827 165.825 79.7329 165.498 83.843C165.312 86.2679 165.323 88.7039 165.531 91.127L165.518 91.0411C164.995 88.3466 163.557 85.9154 161.448 84.1579C158.316 81.5854 153.891 80.6381 150.511 78.5704C148.885 77.575 146.8 78.8613 147.084 80.7467C147.089 80.7768 147.093 80.8069 147.098 80.837C147.602 81.0422 148.092 81.2785 148.567 81.5446C148.838 81.6977 149.104 81.8602 149.364 82.0321C149.69 82.2502 149.943 82.562 150.09 82.9264C150.236 83.2908 150.269 83.691 150.184 84.0744C150.099 84.4578 149.9 84.8066 149.614 85.0751C149.327 85.3436 148.966 85.5193 148.578 85.5792L148.538 85.5853C148.509 85.5894 148.485 85.5935 148.456 85.5976C149.317 87.6522 150.525 89.5434 152.027 91.1883C153.883 93.1795 156.126 94.7706 158.619 95.8642C161.112 96.9578 163.802 97.5307 166.525 97.548H166.529C167.268 100.758 168.338 103.884 169.723 106.873H181.136C181.177 106.746 181.214 106.615 181.251 106.488C180.194 106.555 179.134 106.492 178.093 106.3C178.94 105.261 179.786 104.214 180.633 103.176C180.652 103.156 180.67 103.136 180.686 103.114C181.116 102.583 181.549 102.055 181.979 101.523L181.979 101.523C182.002 99.8929 181.815 98.267 181.423 96.685L181.422 96.6848ZM168.353 70.9806L168.359 70.9725L168.353 70.9888V70.9806ZM165.825 93.7649L165.727 93.5441C165.731 93.3846 165.731 93.2251 165.727 93.0615C165.727 93.0165 165.719 92.9715 165.719 92.9265C165.756 93.2087 165.788 93.4909 165.829 93.7731L165.825 93.7649Z" fill="#2F2E41"/>
<path d="M79.7947 69.9926V54.657C79.7947 52.303 78.8594 50.0454 77.1946 48.3809C75.5297 46.7164 73.2716 45.7812 70.9171 45.7812H38.4201C36.0656 45.7812 33.8075 46.7164 32.1427 48.3809C30.4778 50.0454 29.5425 52.303 29.5425 54.657V138.789C29.5425 141.143 30.4778 143.401 32.1427 145.065C33.8075 146.73 36.0656 147.665 38.4201 147.665H70.9172C72.083 147.665 73.2374 147.435 74.3145 146.989C75.3915 146.543 76.3702 145.889 77.1946 145.065C78.0189 144.241 78.6728 143.262 79.119 142.186C79.5651 141.109 79.7947 139.955 79.7947 138.789V80.9087C79.9432 80.9087 80.0856 80.8497 80.1907 80.7447C80.2957 80.6397 80.3547 80.4973 80.3547 80.3489V70.5524C80.3547 70.4039 80.2957 70.2615 80.1907 70.1565C80.0857 70.0515 79.9432 69.9926 79.7947 69.9926V69.9926Z" fill="#E6E6E6"/>
<path d="M77.9054 54.7214V138.732C77.9056 140.477 77.2171 142.151 75.9895 143.392C74.7619 144.632 73.0943 145.338 71.349 145.356C71.3249 145.359 71.3006 145.36 71.2764 145.359H38.6212C36.8631 145.359 35.1771 144.661 33.934 143.418C32.6908 142.175 31.9924 140.489 31.9922 138.732V54.7214C31.9923 52.9637 32.6908 51.278 33.934 50.0351C35.1771 48.7922 36.8631 48.0939 38.6212 48.0938H42.5841C42.3892 48.5721 42.315 49.0909 42.3678 49.6047C42.4207 50.1184 42.599 50.6113 42.8872 51.0399C43.1753 51.4686 43.5643 51.8199 44.0201 52.0629C44.4759 52.3059 44.9845 52.4332 45.5011 52.4336H64.1184C64.6345 52.4322 65.1424 52.3042 65.5975 52.0608C66.0526 51.8174 66.441 51.4661 66.7287 51.0377C67.0163 50.6093 67.1944 50.1168 67.2474 49.6036C67.3004 49.0903 67.2265 48.5719 67.0324 48.0938H71.2764C73.0345 48.0939 74.7205 48.7922 75.9637 50.0351C77.2068 51.278 77.9053 52.9637 77.9054 54.7214Z" fill="white"/>
<path d="M71.4306 142.762C71.4306 143.633 71.4034 144.496 71.349 145.352C71.3249 145.355 71.3006 145.356 71.2764 145.355H38.6212C36.8631 145.355 35.1771 144.657 33.934 143.414C32.6908 142.171 31.9924 140.485 31.9922 138.728V101.289C42.6318 101.825 52.6584 106.429 59.9988 114.148C67.3391 121.867 71.4318 132.111 71.4306 142.762V142.762Z" fill="#F2F2F2"/>
<path d="M29.722 78.5707C29.5217 78.5704 29.3296 78.4907 29.1879 78.3491C29.0462 78.2075 28.9665 78.0154 28.9663 77.8151V72.6774C28.9663 72.477 29.0459 72.2849 29.1876 72.1432C29.3294 72.0015 29.5216 71.9219 29.722 71.9219C29.9224 71.9219 30.1146 72.0015 30.2564 72.1432C30.3981 72.2849 30.4777 72.477 30.4777 72.6774V77.8151C30.4775 78.0154 30.3978 78.2075 30.2561 78.3491C30.1144 78.4907 29.9224 78.5704 29.722 78.5707Z" fill="#E6E6E6"/>
<path d="M58.9581 74.4688H50.939C50.2147 74.4688 49.6274 75.0558 49.6274 75.7801V77.8239C49.6274 78.5481 50.2147 79.1352 50.939 79.1352H58.9581C59.6825 79.1352 60.2697 78.5481 60.2697 77.8239V75.7801C60.2697 75.0558 59.6825 74.4688 58.9581 74.4688Z" fill="#6C33EB"/>
<path d="M70.0432 83.8047H39.8541C39.1297 83.8047 38.5425 84.3918 38.5425 85.116V87.1598C38.5425 87.884 39.1297 88.4711 39.8541 88.4711H70.0432C70.7676 88.4711 71.3548 87.884 71.3548 87.1598V85.116C71.3548 84.3918 70.7676 83.8047 70.0432 83.8047Z" fill="#E6E6E6"/>
<path d="M70.0432 93.1406H39.8541C39.1297 93.1406 38.5425 93.7277 38.5425 94.4519V96.4957C38.5425 97.2199 39.1297 97.807 39.8541 97.807H70.0432C70.7676 97.807 71.3548 97.2199 71.3548 96.4957V94.4519C71.3548 93.7277 70.7676 93.1406 70.0432 93.1406Z" fill="#E6E6E6"/>
<path d="M62.7795 140.577C62.6414 140.584 62.5046 140.548 62.3878 140.474C62.2709 140.4 62.1797 140.292 62.1263 140.164C62.073 140.036 62.0601 139.896 62.0895 139.76C62.119 139.625 62.1892 139.503 62.2907 139.409L62.3369 139.225C62.3309 139.21 62.3247 139.196 62.3186 139.181C62.1794 138.852 61.9462 138.572 61.6483 138.375C61.3503 138.179 61.0009 138.075 60.644 138.076C60.287 138.077 59.9384 138.184 59.6419 138.383C59.3454 138.582 59.1143 138.864 58.9776 139.193C58.4312 140.509 57.7354 141.827 57.5642 143.218C57.4887 143.833 57.5205 144.457 57.6582 145.061C56.3748 142.262 55.7083 139.22 55.704 136.14C55.7038 135.368 55.7467 134.596 55.8327 133.828C55.9037 133.198 56.0022 132.573 56.1283 131.953C56.8162 128.586 58.2931 125.43 60.4378 122.744C61.4758 122.178 62.3153 121.307 62.8431 120.249C63.0343 119.869 63.1694 119.463 63.2443 119.044C63.1272 119.059 63.0081 119.069 62.8911 119.077C62.8546 119.079 62.8162 119.08 62.7797 119.082L62.7659 119.083C62.6373 119.089 62.5096 119.057 62.3985 118.992C62.2873 118.927 62.1973 118.831 62.1393 118.716C62.0813 118.601 62.0578 118.472 62.0716 118.344C62.0854 118.216 62.136 118.095 62.2171 117.995C62.2677 117.932 62.3183 117.87 62.3689 117.808C62.4457 117.712 62.5244 117.618 62.6012 117.522C62.61 117.513 62.6184 117.503 62.6261 117.493C62.7144 117.384 62.8027 117.276 62.8911 117.167C62.7299 116.917 62.5131 116.707 62.2576 116.555C61.3726 116.037 60.1518 116.395 59.5125 117.196C58.8714 117.996 58.7505 119.119 58.9731 120.119C59.1921 120.97 59.5543 121.777 60.0443 122.506C59.9963 122.568 59.9464 122.627 59.8984 122.689C59.0211 123.816 58.2565 125.027 57.6155 126.304C57.7714 124.874 57.5854 123.427 57.0727 122.082C56.5531 120.829 55.5793 119.774 54.7217 118.69C54.4949 118.399 54.1868 118.182 53.8365 118.066C53.4862 117.95 53.1094 117.94 52.7537 118.038C52.3979 118.136 52.0792 118.338 51.8379 118.617C51.5965 118.896 51.4434 119.24 51.3978 119.606C51.396 119.622 51.3943 119.638 51.3926 119.654C51.52 119.726 51.6447 119.802 51.7667 119.883C51.92 119.985 52.0387 120.132 52.1074 120.303C52.1761 120.474 52.1915 120.662 52.1516 120.841C52.1118 121.021 52.0185 121.185 51.884 121.311C51.7495 121.437 51.58 121.52 51.3978 121.548L51.3792 121.551C51.4246 122.01 51.5048 122.464 51.6191 122.911C51.9505 124.159 52.536 125.324 53.339 126.335C54.1421 127.345 55.1452 128.179 56.2857 128.784C56.3605 128.822 56.4335 128.861 56.5084 128.897C55.8644 130.722 55.4604 132.622 55.3067 134.551C55.2197 135.689 55.2248 136.832 55.3221 137.969L55.3163 137.929C55.0706 136.665 54.3959 135.524 53.4063 134.699C51.9364 133.492 49.8598 133.047 48.2741 132.077C48.1055 131.969 47.9096 131.911 47.7093 131.911C47.5091 131.91 47.3128 131.967 47.1438 132.074C46.9747 132.182 46.8399 132.335 46.7552 132.516C46.6705 132.698 46.6395 132.9 46.6658 133.098L46.6723 133.141C46.9087 133.237 47.1389 133.348 47.3614 133.473C47.4888 133.544 47.6135 133.621 47.7355 133.701C47.8888 133.804 48.0075 133.95 48.0762 134.121C48.1449 134.292 48.1604 134.48 48.1205 134.66C48.0806 134.84 47.9873 135.003 47.8528 135.129C47.7183 135.255 47.5488 135.338 47.3667 135.366L47.348 135.369C47.3346 135.371 47.323 135.373 47.3096 135.375C47.7135 136.339 48.2804 137.226 48.9854 137.998C49.8564 138.933 50.909 139.679 52.0789 140.192C53.2487 140.706 54.511 140.974 55.7885 140.983H55.7904C56.1372 142.489 56.6396 143.956 57.2896 145.358H62.6453C62.6645 145.299 62.6818 145.237 62.6991 145.178C62.2033 145.209 61.7057 145.179 61.2171 145.09C61.6145 144.602 62.0118 144.111 62.4092 143.623C62.4181 143.614 62.4264 143.605 62.4342 143.595C62.6357 143.345 62.8392 143.097 63.0408 142.848L63.0409 142.848C63.0516 142.083 62.9638 141.32 62.7797 140.578L62.7795 140.577ZM56.6466 128.515L56.6494 128.512L56.6466 128.519V128.515ZM55.4603 139.207L55.4142 139.104C55.4161 139.029 55.4161 138.954 55.4142 138.877C55.4142 138.856 55.4104 138.835 55.4104 138.814C55.4276 138.946 55.443 139.079 55.4622 139.211L55.4603 139.207Z" fill="#CCCCCC"/>
<path d="M29.5711 68.6019C29.3708 68.6017 29.1787 68.522 29.037 68.3804C28.8954 68.2387 28.8157 68.0467 28.8154 67.8464V62.7087C28.8154 62.5083 28.895 62.3161 29.0368 62.1744C29.1785 62.0327 29.3707 61.9531 29.5711 61.9531C29.7716 61.9531 29.9638 62.0327 30.1055 62.1744C30.2472 62.3161 30.3268 62.5083 30.3268 62.7087V67.8464C30.3266 68.0467 30.2469 68.2387 30.1052 68.3804C29.9636 68.522 29.7715 68.6017 29.5711 68.6019V68.6019Z" fill="#E6E6E6"/>
<path d="M49.6724 48.9509C49.6726 48.7505 49.7523 48.5585 49.894 48.4169C50.0356 48.2752 50.2277 48.1955 50.4281 48.1953H55.5668C55.7672 48.1953 55.9594 48.2749 56.1012 48.4166C56.2429 48.5583 56.3225 48.7505 56.3225 48.9509C56.3225 49.1512 56.2429 49.3434 56.1012 49.4851C55.9594 49.6268 55.7672 49.7064 55.5668 49.7064H50.4281C50.2277 49.7062 50.0356 49.6265 49.894 49.4848C49.7523 49.3432 49.6726 49.1512 49.6724 48.9509Z" fill="white"/>
<path d="M29.722 87.3363C29.5217 87.336 29.3296 87.2564 29.1879 87.1147C29.0462 86.9731 28.9665 86.7811 28.9663 86.5807V81.443C28.9663 81.2427 29.0459 81.0505 29.1876 80.9088C29.3294 80.7671 29.5216 80.6875 29.722 80.6875C29.9224 80.6875 30.1146 80.7671 30.2564 80.9088C30.3981 81.0505 30.4777 81.2427 30.4777 81.443V86.5807C30.4775 86.7811 30.3978 86.9731 30.2561 87.1147C30.1144 87.2564 29.9224 87.336 29.722 87.3363V87.3363Z" fill="#E6E6E6"/>
<path d="M58.4383 49.7064C58.8557 49.7064 59.194 49.3681 59.194 48.9509C59.194 48.5336 58.8557 48.1953 58.4383 48.1953C58.021 48.1953 57.6826 48.5336 57.6826 48.9509C57.6826 49.3681 58.021 49.7064 58.4383 49.7064Z" fill="white"/>
<path d="M259.64 147.665L0.359855 147.758C0.264579 147.758 0.173302 147.72 0.106029 147.652C0.0387562 147.585 0.000976562 147.493 0.000976562 147.398C0.000976562 147.303 0.0387562 147.211 0.106029 147.144C0.173302 147.077 0.264579 147.038 0.359855 147.038L259.64 146.945C259.735 146.945 259.827 146.983 259.895 147.051C259.962 147.118 260 147.21 260 147.305C260 147.401 259.962 147.492 259.895 147.56C259.827 147.627 259.735 147.665 259.64 147.665Z" fill="#CACACA"/>
<path d="M110.868 68.328L109.504 68.6202C109.495 68.0498 109.424 67.4821 109.292 66.9272C109.168 67.6068 108.907 68.254 108.524 68.8293L100.702 70.4993L93.1929 62.5759C93.1814 58.6142 95.3819 55.6035 99.3272 55.6035C99.565 55.6035 99.8114 55.615 100.061 55.6379C102.192 55.2812 104.379 55.7654 106.161 56.9884C107.943 58.2114 109.18 60.0779 109.613 62.1949C112.41 64.9478 111.395 66.5663 110.868 68.328Z" fill="#2F2E41"/>
<path d="M114.713 160.989H117.551L118.901 150.047L114.713 150.047L114.713 160.989Z" fill="#FFB6B6"/>
<path d="M114.01 159.588L118.495 159.32V161.242L122.759 164.186C122.97 164.331 123.128 164.54 123.212 164.782C123.295 165.024 123.299 165.286 123.223 165.531C123.147 165.775 122.995 165.988 122.788 166.14C122.582 166.292 122.333 166.374 122.077 166.374H116.737L115.817 164.473L115.458 166.374H113.444L114.01 159.588Z" fill="#2F2E41"/>
<path d="M81.4736 157.899L83.9414 159.299L90.516 150.449L86.8739 148.383L81.4736 157.899Z" fill="#FFB6B6"/>
<path d="M81.5521 156.344L85.5852 158.324L84.6369 159.995L86.8923 164.66C87.0037 164.89 87.0385 165.15 86.9917 165.402C86.9449 165.653 86.8189 165.883 86.632 166.058C86.4452 166.233 86.2073 166.344 85.9532 166.374C85.699 166.404 85.4419 166.352 85.2192 166.226L80.575 163.591L80.7126 161.484L79.462 162.96L77.7109 161.966L81.5521 156.344Z" fill="#2F2E41"/>
<path d="M125.201 70.2472C124.837 70.2998 124.49 70.4314 124.183 70.6328C123.875 70.8342 123.616 71.1006 123.423 71.413C123.23 71.7254 123.108 72.0764 123.065 72.4412C123.022 72.806 123.06 73.1757 123.176 73.5243L118.834 77.2814L120.474 80.4761L126.531 75.0843C127.104 74.8513 127.571 74.4162 127.845 73.8616C128.118 73.307 128.179 72.6714 128.015 72.0751C127.851 71.4789 127.474 70.9635 126.955 70.6266C126.437 70.2897 125.812 70.1547 125.201 70.2472H125.201Z" fill="#FFB6B6"/>
<path d="M120.829 83.1691C119.381 85.3621 116.135 87.48 111.318 89.3576C111.052 89.4641 110.767 89.5143 110.481 89.5049C110.195 89.4956 109.914 89.4269 109.656 89.3033C107.838 88.4761 106.673 85.4011 106.563 85.1028L103.042 80.3542C102.98 80.285 101.334 78.4168 101.522 76.5802C101.564 76.1953 101.689 75.8242 101.889 75.4923C102.088 75.1604 102.357 74.8756 102.677 74.6575C105.343 72.6821 111.316 79.5428 112.091 80.455L115.99 78.0802L118.83 76.8132L121.123 74.0234L124.352 77.3238L121.448 81.9426C121.293 82.3754 121.085 82.7874 120.829 83.1691V83.1691Z" fill="#2F2E41"/>
<path d="M110.703 91.5781C110.703 91.5781 119.046 104.864 117.534 106.375C116.023 107.886 113.671 108.283 113.671 108.283L108.466 101.539L110.703 91.5781Z" fill="#2F2E41"/>
<path d="M103.327 73.4375L107.259 76.0967C109.087 77.3327 110.461 79.1309 111.174 81.2184C111.887 83.306 111.9 85.5691 111.21 87.6645L110.103 91.0283L103.327 73.4375Z" fill="#2F2E41"/>
<path d="M96.3745 109.702L95.8489 111.532L94.0551 133.607L85.0938 150.304L89.3707 153.358L101.591 137.475L106.424 121.705L114.015 156.617L119.718 156.209L115.757 107.805L108.241 94.1797L96.3745 109.702Z" fill="#2F2E41"/>
<path d="M102.658 74.1016L108.131 78.5729C109.332 79.5542 110.197 80.8858 110.605 82.3819C110.79 83.0612 110.878 83.7634 110.866 84.4675L110.703 94.1769L115.721 107.583C115.721 107.583 102.118 112.721 100.304 108.188C98.4907 103.655 102.658 74.1016 102.658 74.1016Z" fill="#6C33EB"/>
<path d="M104.295 110.545C97.4998 110.545 95.8437 110.596 95.7364 110.574L95.6289 110.553V106.467L97.2814 99.1254C97.0883 96.8462 96.6358 93.841 96.6768 91.2677C96.8249 81.9669 96.3676 72.8816 96.3676 72.8816L99.9642 69.5625L101.598 70.6255L104.629 73.6556C108.152 82.3236 110.947 90.4841 110.965 91.0084L111.186 100.032L110.279 103.659C106.177 106.554 109.925 110.545 104.295 110.545Z" fill="#2F2E41"/>
<path opacity="0.2" d="M97.892 80.9844L97.0659 86.1396L102.658 88.4458L97.892 80.9844Z" fill="black"/>
<path d="M103.526 68.597C106.55 68.597 109.001 66.1461 109.001 63.1227C109.001 60.0993 106.55 57.6484 103.526 57.6484C100.502 57.6484 98.0503 60.0993 98.0503 63.1227C98.0503 66.1461 100.502 68.597 103.526 68.597Z" fill="#FFB6B6"/>
<path opacity="0.2" d="M94.3511 90.8984C95.8083 92.5854 97.785 93.7405 99.9703 94.1821C102.156 94.6238 104.426 94.3269 106.424 93.3382L107.616 92.7485L94.3511 90.8984Z" fill="black"/>
<path d="M113.404 89.6307C113.16 89.3564 112.859 89.1389 112.521 88.9936C112.184 88.8484 111.819 88.7788 111.452 88.7899C111.084 88.801 110.724 88.8925 110.396 89.0578C110.068 89.2232 109.78 89.4584 109.553 89.747L104.025 88.1953L102.262 91.3242L110.1 93.4059C110.61 93.7554 111.231 93.9057 111.845 93.8282C112.458 93.7508 113.022 93.451 113.429 92.9856C113.837 92.5203 114.059 91.9218 114.055 91.3034C114.05 90.6851 113.819 90.0899 113.404 89.6307H113.404Z" fill="#FFB6B6"/>
<path d="M100.212 93.1047C97.5832 93.1049 94.0268 91.5642 89.805 88.5799C89.5697 88.4169 89.3708 88.2069 89.221 87.9631C89.0711 87.7192 88.9735 87.4469 88.9344 87.1634C88.623 85.1909 90.5474 82.5243 90.7361 82.2687L92.7591 76.7144C92.7824 76.6241 93.4343 74.221 95.071 73.366C95.4156 73.1893 95.7944 73.0892 96.1813 73.0727C96.5682 73.0563 96.9541 73.1237 97.3125 73.2705C100.43 74.4055 97.9957 83.1698 97.6615 84.3192L101.792 86.2629L104.415 87.9345L108.007 88.3102L107.032 92.8226L101.576 92.9453C101.13 93.0546 100.671 93.1081 100.212 93.1047V93.1047Z" fill="#2F2E41"/>
<path d="M110.092 59.5204C109.653 60.0905 108.143 60.5947 106.35 61.0014C106.353 60.9642 106.353 60.927 106.353 60.8897C106.344 60.3194 106.273 59.7517 106.141 59.1967C106.017 59.8763 105.755 60.5235 105.373 61.0988C105.344 61.1418 105.316 61.1848 105.284 61.2277C103.745 61.5314 102.118 61.7663 100.843 61.9238C101.72 65.0806 105.081 67.6702 104.717 69.5894L94.8692 71.6004C94.9297 70.8028 94.8659 70.0007 94.6801 69.2228C94.4917 70.2495 93.9938 71.194 93.2532 71.9298L92.4166 72.1016L92.1673 70.8728C90.007 65.685 93.0183 60.3741 97.9521 57.627C98.8317 56.3085 100.198 55.3919 101.751 55.0775L102.98 54.8254C103.756 54.6668 104.555 54.6624 105.332 54.8126C106.109 54.9627 106.848 55.2644 107.509 55.7003C108.169 56.1363 108.737 56.6981 109.18 57.3535C109.623 58.009 109.933 58.7453 110.092 59.5204Z" fill="#2F2E41"/>
<path d="M133.616 158.764L133.762 155.491C135.28 154.679 136.973 154.251 138.694 154.242C136.325 156.179 136.621 159.911 135.015 162.515C134.508 163.324 133.825 164.008 133.018 164.516C132.21 165.025 131.299 165.345 130.351 165.454L128.368 166.668C128.096 165.151 128.156 163.594 128.544 162.104C128.932 160.613 129.638 159.224 130.615 158.032C131.169 157.369 131.805 156.779 132.507 156.275C132.982 157.526 133.616 158.764 133.616 158.764Z" fill="#F2F2F2"/>
<path d="M138.422 166.743H69.3867C69.2914 166.743 69.2002 166.705 69.1329 166.637C69.0656 166.57 69.0278 166.479 69.0278 166.383C69.0278 166.288 69.0656 166.197 69.1329 166.129C69.2002 166.062 69.2914 166.024 69.3867 166.023H138.422C138.469 166.023 138.516 166.032 138.56 166.051C138.604 166.069 138.644 166.095 138.677 166.128C138.711 166.162 138.737 166.202 138.755 166.245C138.774 166.289 138.783 166.336 138.783 166.383C138.783 166.431 138.774 166.477 138.755 166.521C138.737 166.565 138.711 166.605 138.677 166.638C138.644 166.672 138.604 166.698 138.56 166.716C138.516 166.734 138.469 166.743 138.422 166.743Z" fill="#CACACA"/>
</g>
<defs>
<clipPath id="clip0_355_279">
<rect width="260" height="166.746" fill="white"/>
</clipPath>
</defs>
</svg>
