<svg width="261" height="191" viewBox="0 0 261 191" fill="none" xmlns="http://www.w3.org/2000/svg">
<g clip-path="url(#clip0_355_137)">
<path d="M235.115 67.038H234.838C231.827 67.0346 228.94 65.8369 226.811 63.7077C224.682 61.5784 223.484 58.6916 223.48 55.6804V51.8021H189.684V51.2481H224.034V55.6804C224.038 58.4967 225.139 61.2007 227.105 63.2175C229.071 65.2343 231.746 66.405 234.561 66.4805V51.2481H242.595C243.696 51.2468 244.752 50.8087 245.531 50.0297C246.31 49.2507 246.749 48.1945 246.75 47.0928V4.70928C246.749 3.60763 246.31 2.55145 245.531 1.77245C244.752 0.993464 243.696 0.55528 242.595 0.554033H136.774C135.673 0.55528 134.616 0.993464 133.837 1.77245C133.058 2.55145 132.62 3.60763 132.619 4.70928V35.4581H132.065V4.70928C132.066 3.46074 132.563 2.26373 133.446 1.38087C134.329 0.498012 135.526 0.00140555 136.774 0H242.595C243.843 0.00140555 245.04 0.498012 245.923 1.38087C246.806 2.26373 247.302 3.46074 247.304 4.70928V47.0928C247.302 48.3414 246.806 49.5384 245.923 50.4212C245.04 51.3041 243.843 51.8007 242.595 51.8021H235.115V67.038Z" fill="#CCCCCC"/>
<path d="M225.136 13.991C225.101 13.0973 224.722 12.2517 224.078 11.6315C223.433 11.0113 222.574 10.6646 221.679 10.6641H157.688C156.77 10.6641 155.889 11.0289 155.24 11.6783C154.59 12.3276 154.226 13.2084 154.226 14.1268C154.226 15.0451 154.59 15.9259 155.24 16.5753C155.889 17.2247 156.77 17.5895 157.688 17.5895H221.679C222.597 17.5882 223.477 17.223 224.126 16.5739C224.775 15.9248 225.141 15.0447 225.142 14.1268C225.143 14.0815 225.141 14.0361 225.136 13.991V13.991Z" fill="#CCCCCC"/>
<path d="M225.136 25.6317C225.101 24.7379 224.722 23.8923 224.078 23.2721C223.433 22.6519 222.574 22.3052 221.679 22.3047H157.688C156.77 22.3047 155.889 22.6695 155.24 23.3189C154.59 23.9683 154.226 24.849 154.226 25.7674C154.226 26.6858 154.59 27.5665 155.24 28.2159C155.889 28.8653 156.77 29.2301 157.688 29.2301H221.679C222.597 29.2288 223.477 28.8636 224.126 28.2145C224.775 27.5654 225.141 26.6854 225.142 25.7674C225.143 25.7221 225.141 25.6767 225.136 25.6317V25.6317Z" fill="#CCCCCC"/>
<path d="M225.136 37.2645C225.102 36.3707 224.722 35.5251 224.078 34.9049C223.433 34.2847 222.574 33.938 221.679 33.9375H157.688C157.181 33.9375 156.68 34.0492 156.22 34.2646C155.76 34.4801 155.354 34.794 155.029 35.1841C154.887 35.3567 154.761 35.5422 154.652 35.7381H185.252C186.353 35.7394 187.409 36.1777 188.188 36.9566C188.967 37.7356 189.406 38.7917 189.407 39.8934V40.8629H221.679C222.597 40.8616 223.477 40.4964 224.126 39.8473C224.776 39.1982 225.141 38.3182 225.142 37.4002C225.143 37.3549 225.141 37.3096 225.136 37.2645Z" fill="#CCCCCC"/>
<path d="M6.79222 189.675C6.94292 189.799 7.09368 189.918 7.24796 190.034H45.3112C45.5947 189.918 45.877 189.798 46.158 189.675C50.1764 187.927 53.9165 185.598 57.2591 182.764C59.4786 180.884 61.5204 178.942 63.0007 177.123C65.0658 174.584 66.9677 171.817 67.8523 168.665C68.7351 165.512 68.4714 161.899 66.4995 159.284C65.8889 158.48 65.1382 157.793 64.2836 157.255C64.1418 157.165 63.9983 157.079 63.8512 156.999C61.3979 155.678 58.5362 155.334 55.8398 156.035C52.027 157.02 48.8584 159.771 46.5977 162.997C44.3369 166.221 42.8692 169.924 41.4231 173.586C39.9554 167.05 35.511 161.195 29.5074 158.219C23.5056 155.242 16.0487 155.278 10.1744 158.502C8.32606 159.523 6.65644 160.838 5.23119 162.396C5.08953 162.548 4.95128 162.704 4.81496 162.862C1.94959 166.18 0.157097 170.429 0.00999802 174.81C-0.056137 177.639 0.519771 180.447 1.69445 183.021C2.86914 185.596 4.61204 187.871 6.79222 189.675V189.675Z" fill="#F2F2F2"/>
<path d="M43.7896 190.031H44.3278C44.3349 189.911 44.3439 189.793 44.3547 189.673C44.5429 187.326 44.9367 185 45.5318 182.722C46.8969 177.521 49.2288 172.623 52.4055 168.285C55.5732 163.933 59.5665 160.247 64.1579 157.437C64.1915 157.418 64.2202 157.391 64.242 157.359C64.2637 157.327 64.2779 157.291 64.2834 157.252C64.2922 157.202 64.2866 157.151 64.2672 157.104C64.2478 157.057 64.2154 157.016 64.1738 156.987C64.1323 156.957 64.0833 156.94 64.0324 156.938C63.9816 156.935 63.9312 156.947 63.8869 156.972C63.8745 156.979 63.8626 156.987 63.8511 156.996C61.2498 158.581 58.8351 160.454 56.6525 162.579C52.7483 166.388 49.6003 170.901 47.3745 175.88C45.4108 180.241 44.208 184.906 43.8182 189.673C43.8074 189.793 43.7985 189.913 43.7896 190.031Z" fill="white"/>
<path d="M4.81451 162.864C4.8184 162.866 4.82267 162.867 4.82704 162.867C5.21997 162.939 5.61474 163.015 6.00592 163.095C9.21676 163.755 12.3599 164.709 15.3952 165.946C18.4226 167.182 21.3347 168.683 24.0974 170.432C26.8636 172.18 29.4721 174.166 31.8933 176.367C34.3146 178.565 36.5356 180.974 38.5303 183.566C40.0211 185.507 41.3765 187.549 42.587 189.677C42.6552 189.795 42.7216 189.916 42.788 190.036H43.4034C43.3388 189.916 43.2724 189.795 43.2043 189.677C41.7398 187.07 40.0605 184.59 38.184 182.261C36.1088 179.685 33.8084 177.298 31.3102 175.129C28.8278 172.973 26.1636 171.035 23.3473 169.337C20.5193 167.633 17.546 166.183 14.4622 165.003C11.4696 163.858 8.37993 162.987 5.23074 162.397C5.14287 162.381 5.05675 162.365 4.96879 162.349C4.63333 162.288 4.48974 162.794 4.81451 162.864Z" fill="white"/>
<path d="M15.5176 181.59C19.2659 181.074 23.0724 181.16 26.7936 181.844C30.504 182.522 34.086 183.774 37.4107 185.556C39.2791 186.56 41.0525 187.731 42.7089 189.056C42.9795 189.272 42.5965 189.651 42.3283 189.437C39.4217 187.125 36.1635 185.293 32.6776 184.012C29.2191 182.733 25.584 181.995 21.9005 181.826C19.8163 181.73 17.7277 181.825 15.6607 182.109C15.592 182.125 15.5196 182.115 15.4581 182.08C15.3966 182.045 15.3507 181.988 15.3296 181.921C15.3111 181.852 15.3204 181.778 15.3556 181.716C15.3908 181.655 15.449 181.609 15.5176 181.59H15.5176Z" fill="white"/>
<path d="M184.975 35.7344H79.1546C77.9062 35.7361 76.7094 36.2329 75.8266 37.1156C74.9438 37.9984 74.4471 39.1952 74.4453 40.4437V82.8272C74.4471 84.0757 74.9438 85.2724 75.8266 86.1552C76.7094 87.038 77.9062 87.5347 79.1546 87.5365H86.634V102.772H86.9111C89.9223 102.769 92.8094 101.572 94.9386 99.4423C97.0679 97.313 98.2656 94.426 98.2687 91.4147V87.5365H184.975C186.223 87.5347 187.42 87.038 188.303 86.1552C189.186 85.2724 189.682 84.0757 189.684 82.8272V40.4437C189.682 39.1952 189.186 37.9984 188.303 37.1156C187.42 36.2329 186.223 35.7361 184.975 35.7344V35.7344ZM189.13 82.8272C189.129 83.9288 188.691 84.985 187.912 85.7639C187.133 86.5429 186.077 86.9811 184.975 86.9825H97.7147V91.4147C97.7109 94.231 96.6091 96.9348 94.6435 98.9516C92.6779 100.968 90.0033 102.139 87.1881 102.216V86.9825H79.1546C78.053 86.9811 76.9968 86.5429 76.2179 85.7639C75.4389 84.985 75.0007 83.9288 74.9993 82.8272V40.4437C75.0007 39.342 75.4389 38.2859 76.2179 37.5069C76.9968 36.728 78.053 36.2897 79.1546 36.2884H184.975C186.077 36.2897 187.133 36.728 187.912 37.5069C188.691 38.2859 189.129 39.342 189.13 40.4437V82.8272Z" fill="#3F3D56"/>
<path d="M164.061 46.3984H100.07C99.1754 46.399 98.3159 46.7456 97.6714 47.3659C97.027 47.9861 96.6475 48.8317 96.6127 49.7254C96.6081 49.7705 96.6062 49.8158 96.6072 49.8611C96.6085 50.7791 96.9737 51.6591 97.6228 52.3082C98.2719 52.9573 99.1519 53.3226 100.07 53.3239H164.061C164.979 53.3239 165.86 52.959 166.509 52.3097C167.159 51.6603 167.523 50.7795 167.523 49.8611C167.523 48.9428 167.159 48.062 166.509 47.4126C165.86 46.7633 164.979 46.3984 164.061 46.3984Z" fill="#6C33EB"/>
<path d="M164.061 58.0391H100.07C99.1754 58.0396 98.3159 58.3863 97.6714 59.0065C97.027 59.6267 96.6475 60.4723 96.6127 61.366C96.6081 61.4111 96.6062 61.4565 96.6072 61.5018C96.6085 62.4197 96.9737 63.2997 97.6228 63.9488C98.2719 64.598 99.1519 64.9632 100.07 64.9645H164.061C164.979 64.9645 165.86 64.5997 166.509 63.9503C167.159 63.3009 167.523 62.4201 167.523 61.5018C167.523 60.5834 167.159 59.7026 166.509 59.0533C165.86 58.4039 164.979 58.0391 164.061 58.0391Z" fill="#6C33EB"/>
<path d="M164.061 69.6641H100.07C99.1754 69.6646 98.3159 70.0113 97.6714 70.6315C97.027 71.2517 96.6475 72.0973 96.6127 72.991C96.6081 73.0361 96.6062 73.0815 96.6072 73.1268C96.6085 74.0447 96.9737 74.9247 97.6228 75.5738C98.2719 76.223 99.1519 76.5882 100.07 76.5895H164.061C164.979 76.5895 165.86 76.2247 166.509 75.5753C167.159 74.9259 167.523 74.0451 167.523 73.1268C167.523 72.2084 167.159 71.3276 166.509 70.6783C165.86 70.0289 164.979 69.6641 164.061 69.6641Z" fill="#6C33EB"/>
<path d="M62.2531 130.953C62.1284 130.953 62.0038 130.945 61.88 130.93C61.4538 130.878 61.0434 130.736 60.6758 130.514C60.3082 130.292 59.9916 129.995 59.7468 129.642C59.502 129.289 59.3345 128.889 59.2553 128.467C59.1761 128.045 59.187 127.61 59.2872 127.193C59.311 127.096 59.3397 127 59.3732 126.906L50.1306 115.074C49.7237 114.549 49.497 113.907 49.484 113.242C49.471 112.578 49.6725 111.928 50.0585 111.387L53.296 106.891L57.5276 110.155L55.8276 113.076L62.5599 124.876C62.6952 124.889 62.8295 124.91 62.9619 124.942C63.6872 125.116 64.3234 125.55 64.75 126.162C65.1767 126.774 65.364 127.521 65.2767 128.262C65.1893 129.003 64.8333 129.686 64.2761 130.182C63.7189 130.678 62.9991 130.952 62.2531 130.953L62.2531 130.953Z" fill="#A0616A"/>
<path d="M78.2481 187.022L81.6443 187.021L83.2599 173.922L78.2476 173.922L78.2481 187.022Z" fill="#A0616A"/>
<path d="M88.1943 190.172L77.5207 190.172L77.5205 186.048L84.0702 186.048C84.6118 186.048 85.1481 186.155 85.6484 186.362C86.1487 186.569 86.6034 186.873 86.9863 187.256C87.3693 187.639 87.6731 188.093 87.8803 188.594C88.0876 189.094 88.1943 189.63 88.1943 190.172V190.172Z" fill="#2F2E41"/>
<path d="M50.2691 187.022L53.6653 187.021L55.2809 173.922L50.2686 173.922L50.2691 187.022Z" fill="#A0616A"/>
<path d="M60.2158 190.172L49.5422 190.172L49.542 186.048L56.0917 186.048C56.6333 186.048 57.1695 186.155 57.6699 186.362C58.1702 186.569 58.6249 186.873 59.0078 187.256C59.3908 187.639 59.6946 188.093 59.9018 188.594C60.1091 189.094 60.2158 189.63 60.2158 190.172V190.172Z" fill="#2F2E41"/>
<path d="M52.354 107.525L59.9788 110.422L61.8403 105.251C62.0875 104.564 62.084 103.813 61.8305 103.128C61.5769 102.444 61.0896 101.871 60.4547 101.512V101.512C59.8124 101.148 59.0612 101.025 58.3366 101.167C57.6121 101.308 56.962 101.704 56.5038 102.283L52.354 107.525Z" fill="#6C33EB"/>
<path d="M77.6446 176.448C77.3401 176.447 77.0445 176.346 76.8041 176.159C76.5638 175.972 76.3924 175.71 76.317 175.415C72.5148 160.869 68.6541 153.578 64.5143 145.147C64.4108 144.937 64.2429 144.765 64.0351 144.657C63.8273 144.549 63.5903 144.509 63.3587 144.545C63.1272 144.581 62.913 144.69 62.7474 144.855C62.5819 145.021 62.4735 145.235 62.4382 145.467L57.3067 175.121C57.2555 175.452 57.0858 175.753 56.8292 175.968C56.5726 176.183 56.2466 176.297 55.9119 176.29L48.2935 176.104C48.1087 176.1 47.9265 176.059 47.7581 175.983C47.5897 175.907 47.4384 175.797 47.3136 175.661C47.1817 175.53 47.0808 175.372 47.0183 175.197C46.9558 175.022 46.9333 174.835 46.9524 174.65C50.4029 151.895 53.1197 131.297 58.3442 125.013C58.489 124.876 58.655 124.763 58.8359 124.679L58.6773 124.655C58.632 124.648 58.5114 124.629 58.5099 124.508L58.5084 124.391L58.6276 124.368C58.8178 124.361 59.0077 124.39 59.1875 124.452L71.1116 126.288C71.4419 126.338 71.7424 126.508 71.9572 126.764C72.1719 127.02 72.2863 127.345 72.2789 127.679C72.9272 130.712 73.9205 135.289 74.0094 135.515C80.3713 147.61 82.84 157.134 85.4059 173.397C85.459 173.742 85.3797 174.094 85.1838 174.383C84.9879 174.672 84.69 174.876 84.3499 174.954L77.9552 176.413C77.8533 176.436 77.7491 176.448 77.6446 176.448V176.448Z" fill="#2F2E41"/>
<path d="M70.9528 128.27C70.8458 128.27 70.7391 128.258 70.635 128.233L58.8955 125.44C58.7156 125.398 58.5462 125.32 58.3977 125.21C58.2493 125.1 58.1249 124.96 58.0324 124.801C57.9369 124.635 57.8758 124.452 57.8528 124.262C57.8298 124.073 57.8453 123.881 57.8983 123.697C59.1643 119.308 57.5043 113.868 55.5219 108.642C55.2698 107.114 55.5168 105.546 56.2263 104.169C56.9358 102.792 58.0701 101.681 59.4609 101L59.4928 100.984L65.6563 101.295C66.6683 101.561 67.6071 102.052 68.402 102.733C69.1968 103.413 69.8272 104.265 70.2456 105.223C72.6212 110.783 73.3014 117.918 72.3248 127.034C72.289 127.373 72.129 127.687 71.8757 127.915C71.6224 128.143 71.2936 128.27 70.9527 128.27L70.9528 128.27Z" fill="#6C33EB"/>
<path d="M72.5322 115.579C71.9056 115.58 71.2942 115.386 70.7833 115.023L66.2363 111.782L69.4805 107.535L72.409 109.221L84.1771 102.432C84.1889 102.296 84.2101 102.162 84.2405 102.029C84.3784 101.443 84.6872 100.91 85.1279 100.499C85.5685 100.088 86.1211 99.8166 86.7159 99.7195C87.3107 99.6224 87.921 99.7039 88.4695 99.9536C89.018 100.203 89.4801 100.61 89.7974 101.122C90.1147 101.635 90.273 102.23 90.2522 102.832C90.2314 103.434 90.0324 104.017 89.6805 104.506C89.3286 104.996 88.8395 105.369 88.275 105.581C87.7106 105.792 87.0962 105.831 86.5095 105.693C86.4125 105.67 86.3167 105.642 86.2225 105.609L74.401 114.935C73.8682 115.353 73.2098 115.58 72.5322 115.579Z" fill="#A0616A"/>
<path d="M64.7935 113.104L71.5385 108.518L68.3687 104.028C67.9478 103.432 67.3297 103.004 66.6236 102.819C65.9175 102.635 65.169 102.706 64.5102 103.02V103.02C63.8438 103.337 63.3129 103.883 63.0135 104.558C62.7141 105.232 62.6658 105.992 62.8774 106.699L64.7935 113.104Z" fill="#6C33EB"/>
<path d="M61.5494 98.6779C65.3071 98.6779 68.3532 95.6318 68.3532 91.8741C68.3532 88.1165 65.3071 85.0703 61.5494 85.0703C57.7918 85.0703 54.7456 88.1165 54.7456 91.8741C54.7456 95.6318 57.7918 98.6779 61.5494 98.6779Z" fill="#A0616A"/>
<path d="M62.173 98.84C61.1518 98.8356 60.364 97.7604 60.4098 96.7402C60.4556 95.7201 61.1407 94.8225 61.9663 94.2213C62.7918 93.6202 63.7599 93.254 64.6805 92.812C65.6011 92.3701 66.5136 91.8188 67.082 90.9704C67.4254 90.4151 67.6303 89.7855 67.6797 89.1345C67.729 88.4835 67.6212 87.8301 67.3655 87.2294C66.8365 86.028 65.9283 85.0332 64.78 84.3972C63.0742 83.3987 61.0549 83.0794 59.1242 83.5029C57.1936 83.9265 55.4934 85.0618 54.3622 86.6827L53.1965 89.8567C52.0087 91.285 51.8203 93.4062 52.5505 95.1144C53.2806 96.8225 54.8353 98.1078 56.5897 98.7187C58.3696 99.2907 60.275 99.3479 62.086 98.8835" fill="#2F2E41"/>
<path d="M54.8215 88.646C54.3554 87.9273 53.7196 87.3343 52.9702 86.9193C52.2209 86.5043 51.3809 86.28 50.5244 86.2663C49.6679 86.2525 48.8211 86.4497 48.0588 86.8405C47.2965 87.2312 46.642 87.8035 46.1531 88.5069C45.3346 89.6843 45.0374 91.1357 44.4746 92.4546C43.4553 94.8166 41.6016 96.7202 39.2676 97.8018C41.3112 98.1612 43.3472 97.1216 44.9811 95.8424C46.6149 94.5633 48.0518 93.002 49.8816 92.0235C51.3211 91.2566 52.9382 90.8852 54.5681 90.9472" fill="#2F2E41"/>
<path d="M112.09 190.593H6.54704C6.47357 190.593 6.40311 190.564 6.35116 190.512C6.2992 190.46 6.27002 190.39 6.27002 190.316C6.27002 190.243 6.2992 190.172 6.35116 190.12C6.40311 190.068 6.47357 190.039 6.54704 190.039H112.09C112.164 190.039 112.234 190.068 112.286 190.12C112.338 190.172 112.367 190.243 112.367 190.316C112.367 190.39 112.338 190.46 112.286 190.512C112.234 190.564 112.164 190.593 112.09 190.593Z" fill="#3F3D56"/>
<path d="M244.533 101.391C253.56 101.391 260.877 94.0736 260.877 85.0471C260.877 76.0206 253.56 68.7031 244.533 68.7031C235.507 68.7031 228.189 76.0206 228.189 85.0471C228.189 94.0736 235.507 101.391 244.533 101.391Z" fill="#E6E6E6"/>
<path d="M246.092 96.6904C245.427 96.6718 244.598 96.6485 243.96 96.1826C243.77 96.0381 243.614 95.8538 243.503 95.6426C243.392 95.4314 243.328 95.1984 243.316 94.96C243.304 94.7905 243.332 94.6207 243.397 94.4638C243.462 94.3069 243.563 94.1672 243.691 94.0555C243.881 93.9136 244.103 93.8215 244.338 93.7877C244.573 93.7539 244.813 93.7794 245.035 93.8619L244.492 89.8906L244.891 89.8359L245.529 94.5047L245.196 94.3519C244.81 94.1747 244.28 94.0847 243.95 94.363C243.87 94.4357 243.807 94.5262 243.766 94.6272C243.726 94.7283 243.71 94.8373 243.718 94.9457C243.728 95.1232 243.776 95.2965 243.859 95.4538C243.941 95.6111 244.057 95.7488 244.198 95.8574C244.694 96.2201 245.355 96.2669 246.104 96.288L246.092 96.6904Z" fill="#3F3D56"/>
<path d="M242.519 90.2422H240.35V90.6448H242.519V90.2422Z" fill="#3F3D56"/>
<path d="M249.364 90.2422H247.195V90.6448H249.364V90.2422Z" fill="#3F3D56"/>
<path d="M236.583 84.6807C234.836 84.4815 233.484 82.8083 233.335 81.1106C233.158 79.0909 234.335 77.1726 235.948 76.0393C237.636 74.854 239.738 74.359 241.773 74.2501C245.741 74.0526 249.641 75.3381 252.714 77.8565C254.239 79.1226 255.662 80.7353 256.202 82.6832C256.67 84.3749 256.289 86.2914 254.929 87.4762C254.592 87.7665 254.199 87.9839 253.774 88.1147C253.349 88.2455 252.902 88.2869 252.46 88.2361C251.405 88.1265 250.431 87.5714 249.587 86.9583C247.947 85.7658 246.601 84.1045 244.602 83.4813C243.137 83.0244 241.236 83.4266 240.34 84.7516C240.137 85.0549 240.006 85.4003 239.955 85.7619C239.937 85.8391 239.948 85.9203 239.988 85.9893C240.027 86.0583 240.091 86.1098 240.166 86.1334C240.244 86.1542 240.326 86.1437 240.395 86.1043C240.465 86.0648 240.516 85.9995 240.538 85.9225C240.773 84.2537 242.825 83.6309 244.265 84.012C246.364 84.5677 247.774 86.4412 249.496 87.6316C250.388 88.2964 251.439 88.7157 252.543 88.8476C253.5 88.9227 254.451 88.6308 255.201 88.031C256.673 86.869 257.235 84.8703 256.91 83.0708C256.533 80.9871 255.131 79.2011 253.592 77.8184C250.472 75.045 246.422 73.5488 242.248 73.628C240.12 73.6769 237.899 74.1163 236.065 75.2415C234.286 76.3328 232.911 78.1586 232.731 80.281C232.573 82.1491 233.575 84.103 235.296 84.9214C235.701 85.1136 236.136 85.2363 236.583 85.2847C236.968 85.3286 236.965 84.7243 236.583 84.6807L236.583 84.6807Z" fill="#3F3D56"/>
</g>
<defs>
<clipPath id="clip0_355_137">
<rect width="260.877" height="190.587" fill="white"/>
</clipPath>
</defs>
</svg>
