<svg width="265" height="230" viewBox="0 0 265 230" fill="none" xmlns="http://www.w3.org/2000/svg">
<g clip-path="url(#clip0_355_417)">
<path d="M248.297 71.1988C247.79 31.8943 227.739 0.28125 203.075 0.28125C188.253 0.28125 175.097 11.6982 166.846 29.3399L176.546 53.6784L163.141 38.6768C159.759 48.8274 157.84 60.4163 157.84 72.7245C157.813 82.0539 158.962 91.3495 161.26 100.392L187.255 96.2007L163.991 109.21C171.57 129.989 185.423 144.181 201.391 145.117L198.313 228.834L207.836 229.175L205.801 145.033C228.539 142.868 246.752 113.807 248.212 77.4381L232.499 68.6518L248.297 71.1988Z" fill="#F0F0F0"/>
<path d="M56.1899 121.617H53.9297V138.48H56.1899V121.617Z" fill="#6C33EB"/>
<path d="M64.3035 129.104L62.6481 130.646L55.0621 122.483L47.4733 130.646L45.8179 129.104L55.0621 119.164L64.3035 129.104Z" fill="#6C33EB"/>
<path d="M54.4337 146.96C50.8575 146.96 47.3616 145.9 44.3881 143.913C41.4146 141.926 39.097 139.102 37.7284 135.798C36.3599 132.494 36.0018 128.858 36.6995 125.351C37.3972 121.843 39.1193 118.622 41.6481 116.093C44.1768 113.564 47.3987 111.842 50.9062 111.144C54.4137 110.447 58.0493 110.805 61.3533 112.173C64.6573 113.542 67.4812 115.859 69.4681 118.833C71.4549 121.806 72.5154 125.302 72.5154 128.879C72.51 133.672 70.6032 138.268 67.2134 141.658C63.8236 145.048 59.2276 146.955 54.4337 146.96V146.96ZM54.4337 113.057C51.3045 113.057 48.2456 113.985 45.6438 115.723C43.042 117.462 41.0141 119.933 39.8166 122.824C38.6191 125.715 38.3058 128.896 38.9163 131.965C39.5267 135.034 41.0336 137.853 43.2463 140.066C45.4589 142.279 48.278 143.786 51.3471 144.396C54.4162 145.006 57.5973 144.693 60.4883 143.496C63.3793 142.298 65.8503 140.27 67.5888 137.668C69.3273 135.067 70.2552 132.008 70.2552 128.879C70.2504 124.684 68.582 120.662 65.616 117.696C62.6499 114.73 58.6284 113.062 54.4337 113.057V113.057Z" fill="#6C33EB"/>
<path d="M74.088 87.2188H72.8418V96.5162H74.088V87.2188Z" fill="#6C33EB"/>
<path d="M78.561 91.348L77.6486 92.1981L73.4658 87.6969L69.2819 92.1981L68.3691 91.348L73.4658 85.8672L78.561 91.348Z" fill="#6C33EB"/>
<path d="M73.1197 101.189C71.148 101.189 69.2205 100.604 67.5811 99.5086C65.9416 98.4131 64.6638 96.8561 63.9093 95.0344C63.1547 93.2128 62.9573 91.2083 63.342 89.2744C63.7266 87.3406 64.6761 85.5642 66.0703 84.17C67.4646 82.7757 69.241 81.8262 71.1748 81.4416C73.1087 81.0569 75.1132 81.2543 76.9348 82.0089C78.7565 82.7634 80.3135 84.0412 81.4089 85.6807C82.5044 87.3201 83.0891 89.2476 83.0891 91.2193C83.0861 93.8625 82.0348 96.3965 80.1658 98.2654C78.2969 100.134 75.7629 101.186 73.1197 101.189V101.189ZM73.1197 82.4962C71.3945 82.4962 69.7079 83.0078 68.2734 83.9663C66.8389 84.9248 65.7208 86.2872 65.0606 87.8812C64.4004 89.4751 64.2276 91.229 64.5642 92.9212C64.9008 94.6133 65.7316 96.1676 66.9515 97.3876C68.1715 98.6075 69.7258 99.4383 71.4179 99.7749C73.11 100.111 74.864 99.9388 76.4579 99.2785C78.0519 98.6183 79.4143 97.5002 80.3728 96.0657C81.3313 94.6312 81.8429 92.9447 81.8429 91.2194C81.8403 88.9067 80.9204 86.6894 79.2851 85.054C77.6497 83.4187 75.4325 82.4988 73.1197 82.4962V82.4962Z" fill="#6C33EB"/>
<path d="M35.3204 64.2109H34.0742V73.5083H35.3204V64.2109Z" fill="#6C33EB"/>
<path d="M39.7943 68.3398L38.8815 69.1899L34.6987 64.689L30.5148 69.1899L29.6021 68.3398L34.6987 62.8594L39.7943 68.3398Z" fill="#6C33EB"/>
<path d="M34.3522 78.1809C32.3804 78.1809 30.4529 77.5962 28.8135 76.5007C27.174 75.4053 25.8962 73.8483 25.1417 72.0266C24.3871 70.205 24.1897 68.2005 24.5744 66.2666C24.959 64.3327 25.9085 62.5564 27.3028 61.1621C28.697 59.7679 30.4734 58.8184 32.4072 58.4337C34.3411 58.0491 36.3456 58.2465 38.1673 59.0011C39.9889 59.7556 41.5459 61.0334 42.6414 62.6729C43.7368 64.3123 44.3215 66.2398 44.3215 68.2115C44.3185 70.8547 43.2672 73.3887 41.3983 75.2576C39.5293 77.1266 36.9953 78.1779 34.3522 78.1809V78.1809ZM34.3522 59.4884C32.6269 59.4884 30.9403 60 29.5058 60.9585C28.0713 61.917 26.9532 63.2794 26.293 64.8733C25.6328 66.4673 25.46 68.2212 25.7966 69.9134C26.1332 71.6055 26.964 73.1598 28.184 74.3798C29.4039 75.5997 30.9582 76.4305 32.6504 76.7671C34.3425 77.1037 36.0964 76.9309 37.6904 76.2707C39.2843 75.6105 40.6467 74.4924 41.6052 73.0579C42.5637 71.6234 43.0753 69.9368 43.0753 68.2116C43.0727 65.8988 42.1528 63.6816 40.5175 62.0462C38.8821 60.4109 36.6649 59.491 34.3522 59.4884V59.4884Z" fill="#6C33EB"/>
<path d="M104.676 178.542C104.397 178.255 104.183 177.912 104.048 177.536C103.912 177.161 103.858 176.76 103.889 176.362C103.92 175.963 104.035 175.576 104.228 175.226C104.42 174.875 104.684 174.57 105.004 174.33C105.14 174.223 105.284 174.128 105.435 174.044L103.041 163.727L108.61 165.726L110.03 175.217C110.364 175.811 110.471 176.505 110.331 177.172C110.192 177.839 109.815 178.432 109.272 178.842C108.601 179.363 107.764 179.621 106.917 179.565C106.07 179.51 105.272 179.146 104.676 178.542V178.542Z" fill="#FFB8B8"/>
<path d="M104.044 170.496L104.014 170.395C101.003 160.191 97.8915 149.642 94.0923 138.156L94.0674 138.081L94.1512 138.036C96.2688 136.904 99.4516 136.979 101.555 138.211C103.5 139.351 104.484 141.557 103.952 143.581L106.723 156.822C107.85 161.15 109.016 165.63 110.13 170.047L110.161 170.173L109.989 170.183C107.96 170.301 105.864 170.423 104.184 170.491L104.044 170.496Z" fill="#CCCCCC"/>
<path d="M78.4593 225.419H74.5107L72.6313 211.461H78.4593V225.419Z" fill="#FFB8B8"/>
<path d="M79.4666 228.924H66.7344V228.776C66.7344 226.272 68.9576 224.234 71.6903 224.234H79.4666V228.924Z" fill="#2F2E41"/>
<path d="M115.668 222.432L111.905 223.531L105.491 210.755L111.043 209.133L115.668 222.432Z" fill="#FFB8B8"/>
<path d="M105.658 229.034L105.609 228.893C104.78 226.507 106.223 223.948 108.827 223.187L116.236 221.023L117.789 225.491L105.658 229.034Z" fill="#2F2E41"/>
<path d="M95.6822 128.804C100.051 128.804 103.593 125.559 103.593 121.555C103.593 117.551 100.051 114.305 95.6822 114.305C91.3132 114.305 87.7715 117.551 87.7715 121.555C87.7715 125.559 91.3132 128.804 95.6822 128.804Z" fill="#FFB8B8"/>
<path d="M99.2335 120.206C99.2785 117.282 97.9432 114.386 95.8785 112.93C94.8804 112.22 93.6817 111.848 92.4573 111.868C91.2329 111.888 90.0468 112.298 89.0722 113.04C87.0395 114.562 85.7668 117.5 85.8745 120.422C90.429 120.434 94.9835 120.446 99.2335 120.206Z" fill="#2F2E41"/>
<path d="M80.7134 220.918L80.5551 220.904C77.1198 220.595 73.5675 220.276 70.2104 220.24L70.0278 220.238L70.0528 220.072C70.8481 214.792 71.1853 209.304 71.5114 203.996C71.8334 198.755 72.1663 193.335 72.9418 188.188C73.2698 186.81 73.5895 185.448 73.9082 184.091C76.5446 172.862 79.0349 162.255 84.1751 151.755L84.2237 151.656L84.3414 151.669C89.1644 152.204 93.7989 153.817 97.3908 156.21L97.4604 156.256L97.457 156.335C97.358 157.951 97.3464 159.571 97.4222 161.188C99.0384 163.201 100.121 165.59 100.568 168.133C101.016 170.676 100.815 173.29 99.984 175.735C101.398 180.067 102.86 184.544 104.352 188.962C107.975 198.064 111.724 207.484 115.567 217.033L115.63 217.19L115.453 217.228C112.688 217.823 109.836 218.436 107.022 218.674L106.916 218.683L106.865 218.597C99.7291 206.446 93.89 193.579 89.4441 180.207C88.4839 182.891 87.1005 185.314 85.7604 187.66C84.4841 189.784 83.356 191.994 82.3843 194.273C81.7911 198.736 81.6338 203.572 81.4818 208.249C81.338 212.67 81.2022 216.846 80.7309 220.773L80.7134 220.918Z" fill="#2F2E41"/>
<path d="M92.9812 113.062C96.4102 112.385 100.203 113.029 102.896 115.15C105.589 117.27 106.956 120.938 105.85 124.084C104.744 127.229 100.988 129.443 97.5918 128.63C98.5646 126.118 97.4698 123.033 95.0917 121.585C92.2715 119.869 91.4951 115.771 92.9812 113.062Z" fill="#2F2E41"/>
<path d="M97.1441 156.525L97.0187 156.472C92.6444 154.643 88.3552 153.24 84.3364 151.96L84.2132 151.935L84.2129 151.608L84.2929 151.633C84.3097 151.599 84.3286 151.561 84.3477 151.522C84.4026 151.411 84.44 151.335 84.4718 151.285L84.471 151.284C84.806 150.659 85.0724 150.054 85.3299 149.469C85.5957 148.866 85.87 148.243 86.2245 147.584C85.3767 146.834 84.787 145.837 84.5397 144.733C84.2924 143.629 84.4 142.475 84.8471 141.435C85.7349 139.507 87.9985 138.005 90.3768 137.756C91.2483 135.557 93.1902 130.938 93.1902 130.938C93.1902 130.938 97.2736 130.835 98.9158 130.644L98.9434 130.641L98.9705 130.646C102.556 131.366 105.549 134.475 106.249 138.207C106.84 141.356 105.942 144.959 103.721 148.351C102.575 150.018 101.315 151.605 99.95 153.1C98.9496 154.246 98.0048 155.329 97.22 156.419L97.1441 156.525Z" fill="#CCCCCC"/>
<path d="M105.062 117.362C102.662 117.033 100.777 114.785 101.05 112.575C101.323 110.365 103.708 108.559 106.128 108.73C108.548 108.901 110.602 111.022 110.501 113.244C110.4 115.466 108.127 117.781 105.062 117.362Z" fill="#2F2E41"/>
<path d="M104.688 115.931C102.287 115.602 100.403 113.353 100.676 111.143C100.862 109.632 102.038 108.31 103.536 107.68C101.601 108.068 99.9347 109.614 99.7094 111.439C99.4366 113.649 101.321 115.897 103.721 116.226C104.613 116.355 105.523 116.238 106.353 115.888C105.804 115.994 105.242 116.008 104.688 115.931V115.931Z" fill="#2F2E41"/>
<path d="M58.1277 154.888C58.5988 154.185 59.3136 153.682 60.134 153.475C60.9544 153.268 61.8223 153.372 62.5703 153.768C62.7233 153.849 62.8698 153.942 63.0083 154.046L72.825 148.539L72.6232 154.017L63.332 158.407C62.8074 158.9 62.1423 159.218 61.4289 159.317C60.7155 159.416 59.9889 159.291 59.3497 158.959C58.9869 158.788 58.6641 158.543 58.4024 158.239C58.1406 157.936 57.9458 157.58 57.8305 157.196C57.7152 156.812 57.6821 156.408 57.7333 156.01C57.7846 155.613 57.9189 155.23 58.1277 154.888V154.888Z" fill="#FFB8B8"/>
<path d="M66.1987 151.655L66.2931 151.596C75.7885 145.594 85.6044 139.391 96.1551 132.281L96.2242 132.234L96.2982 132.292C98.1689 133.744 99.1517 136.52 98.5847 138.748C98.06 140.809 96.1187 142.393 93.8591 142.608L81.1601 149.414C77.0826 151.83 72.862 154.33 68.6885 156.765L68.5702 156.834L68.5023 156.688C67.7047 154.974 66.8805 153.204 66.2515 151.775L66.1987 151.655Z" fill="#CCCCCC"/>
<path d="M264.658 229.497H0.342377C0.251573 229.497 0.164488 229.461 0.10028 229.397C0.0360715 229.333 0 229.246 0 229.155C0 229.064 0.0360715 228.977 0.10028 228.913C0.164488 228.849 0.251573 228.812 0.342377 228.812H264.658C264.748 228.812 264.836 228.849 264.9 228.913C264.964 228.977 265 229.064 265 229.155C265 229.246 264.964 229.333 264.9 229.397C264.836 229.461 264.748 229.497 264.658 229.497Z" fill="#CACACA"/>
</g>
<defs>
<clipPath id="clip0_355_417">
<rect width="265" height="229.222" fill="white" transform="translate(0 0.28125)"/>
</clipPath>
</defs>
</svg>
