<svg width="255" height="208" viewBox="0 0 255 208" fill="none" xmlns="http://www.w3.org/2000/svg">
<g clip-path="url(#clip0_355_169)">
<path d="M244.311 135.11C244.099 143.032 242.772 150.884 240.37 158.436C240.315 158.611 240.257 158.784 240.2 158.959H225.49C225.505 158.802 225.521 158.627 225.537 158.436C226.518 147.16 232.172 78.5329 225.411 66.7969C226.002 67.7489 245.452 99.2823 244.311 135.11Z" fill="#F0F0F0"/>
<path d="M243.208 158.433C243.085 158.608 242.956 158.784 242.826 158.956H231.791C231.874 158.807 231.971 158.632 232.083 158.433C233.907 155.143 239.302 145.306 244.311 135.108C249.694 124.148 254.632 112.773 254.216 108.656C254.345 109.585 258.069 137.89 243.208 158.433Z" fill="#F0F0F0"/>
<path d="M29.4904 22.2344C22.7291 33.9705 28.384 102.598 29.3648 113.873C29.3805 114.064 29.3962 114.24 29.4119 114.397H14.7019C14.6444 114.221 14.5868 114.049 14.5319 113.873C12.1292 106.322 10.8023 98.4696 10.5902 90.5478C9.44989 54.7197 28.8992 23.1864 29.4904 22.2344Z" fill="#F0F0F0"/>
<path d="M0.685339 64.1016C0.269442 68.2185 5.20766 79.5936 10.5905 90.5528C15.5993 100.751 20.9952 110.588 22.8183 113.878C22.9308 114.077 23.0275 114.252 23.1112 114.402H12.0761C11.9453 114.229 11.8172 114.054 11.6942 113.878C-3.16745 93.3358 0.55714 65.0301 0.685339 64.1016Z" fill="#F0F0F0"/>
<path d="M252.751 12.8961H5.9578C5.8628 12.8961 5.7717 12.8583 5.70453 12.7912C5.63735 12.724 5.59961 12.6329 5.59961 12.5379C5.59961 12.4429 5.63735 12.3518 5.70453 12.2846C5.7717 12.2174 5.8628 12.1797 5.9578 12.1797H252.751C252.846 12.1797 252.937 12.2174 253.005 12.2846C253.072 12.3518 253.109 12.4429 253.109 12.5379C253.109 12.6329 253.072 12.724 253.005 12.7912C252.937 12.8583 252.846 12.8961 252.751 12.8961V12.8961Z" fill="#CACACA"/>
<path d="M14.0197 7.8802C16.1957 7.8802 17.9598 6.11616 17.9598 3.9401C17.9598 1.76404 16.1957 0 14.0197 0C11.8436 0 10.0796 1.76404 10.0796 3.9401C10.0796 6.11616 11.8436 7.8802 14.0197 7.8802Z" fill="#3F3D56"/>
<path d="M27.631 7.8802C29.8071 7.8802 31.5711 6.11616 31.5711 3.9401C31.5711 1.76404 29.8071 0 27.631 0C25.455 0 23.6909 1.76404 23.6909 3.9401C23.6909 6.11616 25.455 7.8802 27.631 7.8802Z" fill="#3F3D56"/>
<path d="M41.2423 7.8802C43.4184 7.8802 45.1824 6.11616 45.1824 3.9401C45.1824 1.76404 43.4184 0 41.2423 0C39.0663 0 37.3022 1.76404 37.3022 3.9401C37.3022 6.11616 39.0663 7.8802 41.2423 7.8802Z" fill="#3F3D56"/>
<path d="M244.596 2.40932H234.925C234.83 2.40954 234.737 2.39118 234.65 2.35527C234.563 2.31937 234.484 2.26664 234.417 2.20009C234.35 2.13355 234.297 2.0545 234.261 1.96747C234.225 1.88045 234.207 1.78716 234.207 1.69294C234.207 1.59873 234.225 1.50543 234.261 1.41841C234.297 1.33138 234.35 1.25233 234.417 1.18579C234.484 1.11925 234.563 1.06651 234.65 1.03061C234.737 0.994706 234.83 0.976344 234.925 0.976564H244.596C244.69 0.976344 244.783 0.994706 244.87 1.03061C244.958 1.06651 245.037 1.11925 245.103 1.18579C245.17 1.25233 245.223 1.33138 245.259 1.41841C245.295 1.50543 245.314 1.59873 245.314 1.69294C245.314 1.78716 245.295 1.88045 245.259 1.96747C245.223 2.0545 245.17 2.13355 245.103 2.20009C245.037 2.26664 244.958 2.31937 244.87 2.35527C244.783 2.39118 244.69 2.40954 244.596 2.40932V2.40932Z" fill="#3F3D56"/>
<path d="M244.596 5.09683H234.925C234.83 5.09705 234.737 5.07868 234.65 5.04278C234.563 5.00688 234.484 4.95414 234.417 4.8876C234.35 4.82105 234.297 4.74201 234.261 4.65498C234.225 4.56796 234.207 4.47467 234.207 4.38045C234.207 4.28623 234.225 4.19294 234.261 4.10591C234.297 4.01889 234.35 3.93984 234.417 3.8733C234.484 3.80675 234.563 3.75402 234.65 3.71812C234.737 3.68221 234.83 3.66384 234.925 3.66406H244.596C244.69 3.66384 244.783 3.68221 244.87 3.71812C244.958 3.75402 245.037 3.80675 245.103 3.8733C245.17 3.93984 245.223 4.01889 245.259 4.10591C245.295 4.19294 245.314 4.28623 245.314 4.38045C245.314 4.47467 245.295 4.56796 245.259 4.65498C245.223 4.74201 245.17 4.82105 245.103 4.8876C245.037 4.95414 244.958 5.00688 244.87 5.04278C244.783 5.07868 244.69 5.09705 244.596 5.09683V5.09683Z" fill="#3F3D56"/>
<path d="M244.596 7.78432H234.925C234.83 7.78454 234.737 7.76618 234.65 7.73027C234.563 7.69437 234.484 7.64164 234.417 7.5751C234.35 7.50855 234.297 7.42951 234.261 7.34248C234.225 7.25546 234.207 7.16216 234.207 7.06794C234.207 6.97373 234.225 6.88043 234.261 6.79341C234.297 6.70638 234.35 6.62733 234.417 6.56079C234.484 6.49425 234.563 6.44152 234.65 6.40562C234.737 6.36971 234.83 6.35134 234.925 6.35156H244.596C244.69 6.35134 244.783 6.36971 244.87 6.40562C244.958 6.44152 245.037 6.49425 245.103 6.56079C245.17 6.62733 245.223 6.70638 245.259 6.79341C245.295 6.88043 245.314 6.97373 245.314 7.06794C245.314 7.16216 245.295 7.25546 245.259 7.34248C245.223 7.42951 245.17 7.50855 245.103 7.5751C245.037 7.64164 244.958 7.69437 244.87 7.73027C244.783 7.76618 244.69 7.78454 244.596 7.78432V7.78432Z" fill="#3F3D56"/>
<path d="M240.128 158.644H147.106C146.38 158.643 145.685 158.354 145.172 157.841C144.659 157.328 144.37 156.633 144.37 155.908V34.7438C144.37 34.0184 144.659 33.323 145.172 32.8101C145.685 32.2972 146.38 32.0086 147.106 32.0078H240.128C240.854 32.0086 241.549 32.2971 242.062 32.8101C242.575 33.323 242.863 34.0184 242.864 34.7438V155.908C242.863 156.633 242.575 157.328 242.062 157.841C241.549 158.354 240.854 158.643 240.128 158.644V158.644ZM147.106 32.7895C146.587 32.7901 146.091 32.9962 145.724 33.3626C145.358 33.7289 145.152 34.2257 145.151 34.7438V155.908C145.152 156.426 145.358 156.922 145.724 157.289C146.091 157.655 146.587 157.861 147.106 157.862H240.128C240.646 157.861 241.143 157.655 241.509 157.289C241.876 156.922 242.082 156.426 242.082 155.908V34.7438C242.082 34.2257 241.876 33.7289 241.509 33.3626C241.143 32.9962 240.646 32.7901 240.128 32.7895H147.106Z" fill="#E6E6E6"/>
<path d="M211.679 85.0835H172.203C171.478 85.0827 170.782 84.7942 170.27 84.2812C169.757 83.7683 169.468 83.0729 169.467 82.3476V51.4703C169.468 50.745 169.757 50.0495 170.27 49.5366C170.782 49.0237 171.478 48.7352 172.203 48.7344H211.679C212.405 48.7352 213.1 49.0237 213.613 49.5366C214.126 50.0495 214.414 50.745 214.415 51.4703V82.3476C214.414 83.0729 214.126 83.7683 213.613 84.2812C213.1 84.7942 212.405 85.0827 211.679 85.0835V85.0835Z" fill="#E6E6E6"/>
<path d="M211.596 136.755H172.12C171.395 136.755 170.699 136.466 170.187 135.953C169.674 135.44 169.385 134.745 169.384 134.019V103.142C169.385 102.417 169.674 101.721 170.187 101.209C170.699 100.696 171.395 100.407 172.12 100.406H211.596C212.322 100.407 213.017 100.696 213.53 101.209C214.043 101.721 214.331 102.417 214.332 103.142V134.019C214.331 134.745 214.043 135.44 213.53 135.953C213.017 136.466 212.322 136.755 211.596 136.755V136.755ZM172.12 101.188C171.602 101.189 171.105 101.395 170.739 101.761C170.373 102.127 170.167 102.624 170.166 103.142V134.019C170.167 134.538 170.373 135.034 170.739 135.401C171.105 135.767 171.602 135.973 172.12 135.974H211.596C212.114 135.973 212.611 135.767 212.977 135.401C213.344 135.034 213.55 134.538 213.55 134.019V103.142C213.55 102.624 213.344 102.127 212.977 101.761C212.611 101.395 212.114 101.189 211.596 101.188H172.12Z" fill="#3F3D56"/>
<path d="M222.54 145.357H183.064C182.339 145.356 181.643 145.068 181.13 144.555C180.617 144.042 180.329 143.346 180.328 142.621V111.744C180.329 111.018 180.617 110.323 181.13 109.81C181.643 109.297 182.339 109.009 183.064 109.008H222.54C223.265 109.009 223.961 109.297 224.474 109.81C224.987 110.323 225.275 111.018 225.276 111.744V142.621C225.275 143.346 224.987 144.042 224.474 144.555C223.961 145.068 223.265 145.356 222.54 145.357V145.357Z" fill="#6C33EB"/>
<path d="M207.231 136.317H187.412C187.388 136.317 187.363 136.315 187.338 136.311L196.711 120.075C196.769 119.974 196.852 119.89 196.952 119.832C197.052 119.773 197.166 119.742 197.283 119.742C197.399 119.742 197.513 119.773 197.613 119.832C197.714 119.89 197.797 119.974 197.854 120.075L204.144 130.971L204.446 131.492L207.231 136.317Z" fill="white"/>
<path opacity="0.2" d="M207.23 136.315H200.464L203.786 131.49L204.025 131.143L204.144 130.969L204.446 131.49L207.23 136.315Z" fill="black"/>
<path d="M218.265 136.313H201.124L204.446 131.489L204.685 131.141L209.013 124.853C209.09 124.757 209.185 124.679 209.294 124.622C209.403 124.565 209.523 124.532 209.646 124.525C209.768 124.518 209.891 124.536 210.006 124.579C210.121 124.623 210.226 124.689 210.313 124.776C210.335 124.8 210.356 124.826 210.375 124.853L218.265 136.313Z" fill="white"/>
<path d="M217.463 120.012C219.084 120.012 220.399 118.698 220.399 117.077C220.399 115.455 219.084 114.141 217.463 114.141C215.841 114.141 214.527 115.455 214.527 117.077C214.527 118.698 215.841 120.012 217.463 120.012Z" fill="white"/>
<path d="M106.705 158.615H13.6822C12.9569 158.614 12.2615 158.325 11.7486 157.812C11.2357 157.3 10.9471 156.604 10.9463 155.879V125.002C10.9471 124.276 11.2357 123.581 11.7486 123.068C12.2615 122.555 12.9569 122.266 13.6822 122.266H106.705C107.43 122.267 108.126 122.555 108.638 123.068C109.151 123.581 109.44 124.276 109.441 125.002V155.879C109.44 156.604 109.151 157.3 108.638 157.812C108.126 158.325 107.43 158.614 106.705 158.615V158.615Z" fill="#E6E6E6"/>
<path d="M106.314 114.445H13.2916C12.5663 114.444 11.8709 114.156 11.3579 113.643C10.845 113.13 10.5565 112.435 10.5557 111.709V36.275C10.5565 35.5496 10.845 34.8542 11.3579 34.3413C11.8708 33.8284 12.5662 33.5399 13.2916 33.5391H106.314C107.04 33.5399 107.735 33.8284 108.248 34.3413C108.761 34.8542 109.049 35.5497 109.05 36.275V111.709C109.049 112.435 108.761 113.13 108.248 113.643C107.735 114.156 107.04 114.444 106.314 114.445V114.445ZM13.2916 34.3208C12.7735 34.3214 12.2768 34.5275 11.9104 34.8938C11.5441 35.2602 11.338 35.7569 11.3374 36.275V111.709C11.338 112.227 11.5441 112.724 11.9104 113.09C12.2768 113.457 12.7735 113.663 13.2916 113.664H106.314C106.832 113.663 107.329 113.457 107.695 113.09C108.062 112.724 108.268 112.227 108.268 111.709V36.275C108.268 35.7569 108.062 35.2602 107.695 34.8938C107.329 34.5275 106.832 34.3214 106.314 34.3208H13.2916Z" fill="#3F3D56"/>
<path d="M121.557 128.125H28.5348C27.8094 128.124 27.114 127.836 26.6011 127.323C26.0882 126.81 25.7997 126.114 25.7988 125.389V49.9547C25.7997 49.2293 26.0882 48.5339 26.6011 48.021C27.114 47.5081 27.8094 47.2196 28.5348 47.2188H121.557C122.283 47.2196 122.978 47.5081 123.491 48.021C124.004 48.5339 124.292 49.2293 124.293 49.9547V125.389C124.292 126.114 124.004 126.81 123.491 127.323C122.978 127.836 122.283 128.124 121.557 128.125V128.125Z" fill="#6C33EB"/>
<path d="M85.6587 109.562H38.1682C38.1087 109.562 38.0493 109.558 37.9907 109.547L60.4516 70.642C60.5886 70.3997 60.7876 70.1982 61.0281 70.0579C61.2686 69.9177 61.5419 69.8438 61.8203 69.8438C62.0987 69.8438 62.3721 69.9177 62.6126 70.0579C62.8531 70.1982 63.052 70.3997 63.1891 70.642L78.2632 96.7506L78.9853 97.9999L85.6587 109.562Z" fill="white"/>
<path opacity="0.2" d="M85.6583 109.561H69.4438L77.4035 97.9992L77.9765 97.1663L78.263 96.75L78.9853 97.9992L85.6583 109.561Z" fill="black"/>
<path d="M112.101 109.557H71.0254L78.985 97.9954L79.5578 97.1626L89.9299 82.0956C90.1133 81.8654 90.3431 81.6764 90.6043 81.5408C90.8655 81.4052 91.1523 81.326 91.4461 81.3084C91.7399 81.2909 92.0341 81.3353 92.3096 81.4388C92.5851 81.5423 92.8357 81.7026 93.0452 81.9093C93.0989 81.9682 93.1488 82.0304 93.1946 82.0956L112.101 109.557Z" fill="white"/>
<path d="M109.284 69.6956C113.17 69.6956 116.32 66.5458 116.32 62.6603C116.32 58.7748 113.17 55.625 109.284 55.625C105.399 55.625 102.249 58.7748 102.249 62.6603C102.249 66.5458 105.399 69.6956 109.284 69.6956Z" fill="white"/>
<path d="M141.392 124.192C142.026 123.843 142.762 123.726 143.473 123.861L154.62 113.445L152.77 104.156L160.089 104.553L160.743 115.827L145.996 127.311C145.931 127.843 145.731 128.349 145.414 128.781C145.098 129.213 144.675 129.556 144.188 129.778C143.7 130 143.164 130.093 142.63 130.048C142.096 130.003 141.583 129.821 141.14 129.521C140.696 129.22 140.338 128.811 140.098 128.332C139.858 127.853 139.746 127.32 139.771 126.785C139.796 126.25 139.959 125.731 140.243 125.277C140.527 124.823 140.922 124.449 141.392 124.192L141.392 124.192Z" fill="#FFB8B8"/>
<path d="M129.083 202.592H124.292L122.012 184.109H129.084L129.083 202.592Z" fill="#FFB6B6"/>
<path d="M130.306 207.241L114.855 207.24V207.045C114.855 205.45 115.489 203.92 116.617 202.793C117.744 201.665 119.274 201.031 120.869 201.031H120.869L130.306 201.032L130.306 207.241Z" fill="#2F2E41"/>
<path d="M165.042 202.592H160.25L157.971 184.109H165.043L165.042 202.592Z" fill="#FFB6B6"/>
<path d="M166.264 207.241L150.813 207.24V207.045C150.813 205.45 151.447 203.92 152.575 202.793C153.702 201.665 155.232 201.031 156.827 201.031H156.827L166.264 201.032L166.264 207.241Z" fill="#2F2E41"/>
<path d="M156.303 98.6843C155.724 97.9537 154.904 97.454 153.989 97.2755C153.075 97.0969 152.126 97.2513 151.316 97.7107V97.7107C150.514 98.1648 149.899 98.8876 149.579 99.7514C149.259 100.615 149.255 101.564 149.567 102.431L151.916 108.958L161.541 105.301L156.303 98.6843Z" fill="#6C33EB"/>
<path d="M155.439 127.507C155.001 127.178 154.53 126.896 154.034 126.664L136.518 129.359L136.903 140.33C128.431 156.321 122.829 174.563 119.772 194.803L130.743 197.305C135.653 178.287 141.229 161.22 148.259 148.415L155.67 196.842L168.277 196.535C166.617 168.066 165.336 134.877 155.439 127.507Z" fill="#2F2E41"/>
<path d="M142.365 95.9279C146.136 95.9279 149.193 92.8712 149.193 89.1007C149.193 85.3301 146.136 82.2734 142.365 82.2734C138.595 82.2734 135.538 85.3301 135.538 89.1007C135.538 92.8712 138.595 95.9279 142.365 95.9279Z" fill="#FFB8B8"/>
<path d="M157.379 106.646C157.691 104.758 157.384 102.819 156.504 101.12C155.623 99.4209 154.217 98.0523 152.494 97.2188V97.2188L144.795 97.6037C143.542 97.9283 142.379 98.5346 141.395 99.3763C140.411 100.218 139.633 101.273 139.118 102.461C135.781 110.272 135.306 120.258 136.711 131.673L154.947 127.335C152.446 121.704 154.456 114.349 157.379 106.646Z" fill="#6C33EB"/>
<path d="M133.9 87.4347V87.4346C133.9 86.5107 134.082 85.5959 134.435 84.7423C134.789 83.8888 135.307 83.1132 135.961 82.4599C136.614 81.8066 137.389 81.2884 138.243 80.9349C139.096 80.5813 140.011 80.3993 140.935 80.3993H141.339C142.613 79.3861 144.193 78.8349 145.821 78.8359C147.739 78.8359 149.578 79.5977 150.934 80.9538C152.29 82.3098 153.052 84.149 153.052 86.0667V95.2517C148.376 95.1352 143.082 96.0568 137.418 97.5968C138.845 93.6423 139.794 90.0067 139.146 87.4347H133.9Z" fill="#2F2E41"/>
<path d="M119.438 119.095C120.162 119.094 120.863 119.345 121.422 119.805L136.203 116.027L139.044 106.992L145.272 110.857L140.428 121.058L121.977 124.043C121.664 124.478 121.245 124.826 120.76 125.053C120.275 125.279 119.739 125.378 119.205 125.338C118.671 125.298 118.156 125.122 117.71 124.826C117.263 124.53 116.901 124.124 116.656 123.648C116.412 123.171 116.294 122.64 116.314 122.104C116.334 121.569 116.491 121.048 116.77 120.591C117.049 120.134 117.442 119.756 117.909 119.494C118.376 119.233 118.903 119.095 119.438 119.095V119.095Z" fill="#FFB8B8"/>
<path d="M148.257 104.251C148.525 103.358 148.464 102.399 148.086 101.548C147.708 100.696 147.038 100.007 146.196 99.6065V99.6065C145.365 99.2102 144.42 99.1205 143.529 99.3535C142.638 99.5864 141.858 100.127 141.326 100.879L137.325 106.546L145.839 112.335L148.257 104.251Z" fill="#6C33EB"/>
<path d="M186.277 207.892H90.7949C90.7336 207.892 90.673 207.88 90.6163 207.857C90.5597 207.833 90.5083 207.799 90.4649 207.756C90.4216 207.713 90.3872 207.661 90.3637 207.605C90.3402 207.548 90.3281 207.488 90.3281 207.426C90.3281 207.365 90.3402 207.304 90.3637 207.248C90.3872 207.191 90.4216 207.14 90.4649 207.097C90.5083 207.054 90.5597 207.019 90.6163 206.996C90.673 206.973 90.7336 206.961 90.7949 206.961H186.277C186.339 206.961 186.399 206.973 186.456 206.996C186.513 207.019 186.564 207.054 186.607 207.097C186.651 207.14 186.685 207.191 186.709 207.248C186.732 207.304 186.744 207.365 186.744 207.426C186.744 207.488 186.732 207.548 186.709 207.605C186.685 207.661 186.651 207.713 186.607 207.756C186.564 207.799 186.513 207.833 186.456 207.857C186.399 207.88 186.339 207.892 186.277 207.892V207.892Z" fill="#CACACA"/>
</g>
<defs>
<clipPath id="clip0_355_169">
<rect width="254.543" height="207.89" fill="white" transform="translate(0.179199)"/>
</clipPath>
</defs>
</svg>
