<svg width="168" height="150" viewBox="0 0 168 150" fill="none" xmlns="http://www.w3.org/2000/svg">
<path d="M167.9 13.8643V111.934C167.9 114.2 167 116.374 165.397 117.977C163.795 119.579 161.621 120.48 159.354 120.48H17.9951C16.827 120.479 15.6715 120.239 14.5997 119.775C13.5279 119.31 12.5625 118.632 11.763 117.78C10.2687 116.201 9.43993 114.107 9.4488 111.934V13.8643C9.4488 12.7424 9.66993 11.6316 10.0995 10.5953C10.5292 9.55897 11.1588 8.61751 11.9526 7.82472C12.7463 7.03193 13.6885 6.40337 14.7253 5.97499C15.7622 5.5466 16.8733 5.3268 17.9951 5.32813H159.354C160.476 5.3268 161.587 5.5466 162.624 5.97499C163.661 6.40337 164.603 7.03193 165.397 7.82472C166.19 8.61751 166.82 9.55897 167.25 10.5953C167.679 11.6316 167.9 12.7424 167.9 13.8643V13.8643Z" fill="#6C33EB"/>
<path d="M159.354 13.1797H17.9341V96.9476H159.354V13.1797Z" fill="#F8F8F8"/>
<path d="M107.315 120.477H69.9933C69.9933 120.477 73.4139 131.469 59.4678 143.822H117.83C103.874 131.469 107.315 120.477 107.315 120.477Z" fill="#6C33EB"/>
<path d="M88.6491 111.566C90.6952 111.566 92.3538 109.907 92.3538 107.861C92.3538 105.815 90.6952 104.156 88.6491 104.156C86.603 104.156 84.9443 105.815 84.9443 107.861C84.9443 109.907 86.603 111.566 88.6491 111.566Z" fill="white"/>
<path d="M88.6492 112.593C87.7133 112.595 86.7978 112.319 86.0187 111.8C85.2395 111.282 84.6317 110.544 84.2721 109.68C83.9126 108.816 83.8175 107.864 83.9988 106.946C84.1802 106.028 84.6299 105.184 85.291 104.522C85.952 103.859 86.7948 103.408 87.7126 103.224C88.6304 103.041 89.5819 103.134 90.4468 103.492C91.3117 103.85 92.051 104.456 92.5711 105.234C93.0913 106.012 93.369 106.927 93.369 107.863C93.369 109.115 92.8721 110.317 91.9872 111.204C91.1024 112.09 89.9019 112.59 88.6492 112.593V112.593ZM88.6492 105.173C88.1144 105.171 87.591 105.328 87.1454 105.624C86.6999 105.92 86.3523 106.341 86.1467 106.835C85.9411 107.329 85.8867 107.872 85.9906 108.397C86.0944 108.922 86.3518 109.404 86.73 109.782C87.1082 110.16 87.5902 110.417 88.1149 110.521C88.6395 110.625 89.1832 110.571 89.677 110.365C90.1707 110.16 90.5923 109.812 90.8882 109.366C91.1841 108.921 91.341 108.398 91.339 107.863C91.339 107.149 91.0556 106.465 90.5512 105.961C90.0467 105.456 89.3626 105.173 88.6492 105.173V105.173Z" fill="white"/>
<path d="M122.875 143.828H54.4234C52.8987 143.828 51.6626 145.064 51.6626 146.589C51.6626 148.114 52.8987 149.35 54.4234 149.35H122.875C124.4 149.35 125.636 148.114 125.636 146.589C125.636 145.064 124.4 143.828 122.875 143.828Z" fill="#6C33EB"/>
<path d="M141.46 1.74219H0.0395508V85.5H141.46V1.74219Z" fill="#6C33EB"/>
<path d="M141.459 1.74219V85.5H79.4429C70.6904 73.2898 65.9834 58.6442 65.9834 43.6211C65.9834 28.5979 70.6904 13.9523 79.4429 1.74219H141.459Z" fill="white"/>
<path d="M141.46 86.5144H79.4432C79.2822 86.5136 79.1237 86.4746 78.9807 86.4005C78.8378 86.3263 78.7145 86.2192 78.6211 86.0881C69.7433 73.7072 64.9688 58.8554 64.9688 43.6205C64.9688 28.3856 69.7433 13.5337 78.6211 1.15287C78.7145 1.02169 78.8378 0.914608 78.9807 0.840482C79.1237 0.766356 79.2822 0.727307 79.4432 0.726562H141.48C141.749 0.726562 142.007 0.833507 142.198 1.02386C142.388 1.21421 142.495 1.47237 142.495 1.74156V85.4994C142.495 85.6344 142.468 85.768 142.416 85.8925C142.364 86.017 142.287 86.1298 142.191 86.2244C142.094 86.3189 141.98 86.3932 141.854 86.443C141.729 86.4928 141.595 86.5171 141.46 86.5144V86.5144ZM79.9609 84.4844H140.445V2.75656H79.9101C71.4735 14.7128 66.9443 28.9873 66.9443 43.6205C66.9443 58.2536 71.4735 72.5281 79.9101 84.4844H79.9609Z" fill="#6C33EB"/>
<path d="M35.2497 22.5925H14.4422C14.1731 22.5925 13.9149 22.4856 13.7245 22.2952C13.5342 22.1049 13.4272 21.8467 13.4272 21.5775C13.4272 21.3083 13.5342 21.0501 13.7245 20.8598C13.9149 20.6694 14.1731 20.5625 14.4422 20.5625H35.2497C35.5189 20.5625 35.7771 20.6694 35.9675 20.8598C36.1578 21.0501 36.2647 21.3083 36.2647 21.5775C36.2647 21.8467 36.1578 22.1049 35.9675 22.2952C35.7771 22.4856 35.5189 22.5925 35.2497 22.5925Z" fill="#6C33EB"/>
<path d="M48.7189 51.9441H14.4017C14.1325 51.9441 13.8744 51.8371 13.684 51.6468C13.4937 51.4564 13.3867 51.1983 13.3867 50.9291C13.3867 50.6599 13.4937 50.4017 13.684 50.2113C13.8744 50.021 14.1325 49.9141 14.4017 49.9141H48.7189C48.9881 49.9141 49.2462 50.021 49.4366 50.2113C49.6269 50.4017 49.7339 50.6599 49.7339 50.9291C49.7339 51.1983 49.6269 51.4564 49.4366 51.6468C49.2462 51.8371 48.9881 51.9441 48.7189 51.9441Z" fill="white"/>
<path d="M48.7189 42.3347H14.4017C14.1325 42.3347 13.8744 42.2278 13.684 42.0374C13.4937 41.8471 13.3867 41.5889 13.3867 41.3197C13.3867 41.0505 13.4937 40.7923 13.684 40.602C13.8744 40.4116 14.1325 40.3047 14.4017 40.3047H48.7189C48.9881 40.3047 49.2462 40.4116 49.4366 40.602C49.6269 40.7923 49.7339 41.0505 49.7339 41.3197C49.7339 41.5889 49.6269 41.8471 49.4366 42.0374C49.2462 42.2278 48.9881 42.3347 48.7189 42.3347Z" fill="white"/>
<path d="M44.7909 62.7812H18.3198C16.156 62.7812 14.4019 64.5331 14.4019 66.6941C14.4019 68.8551 16.156 70.6069 18.3198 70.6069H44.7909C46.9547 70.6069 48.7088 68.8551 48.7088 66.6941C48.7088 64.5331 46.9547 62.7812 44.7909 62.7812Z" fill="white"/>
<path d="M44.801 71.6264H18.3197C17.6537 71.6566 16.9886 71.5515 16.3644 71.3175C15.7401 71.0835 15.1699 70.7254 14.6879 70.2648C14.206 69.8043 13.8224 69.2508 13.5603 68.6378C13.2982 68.0249 13.1631 67.3652 13.1631 66.6985C13.1631 66.0319 13.2982 65.3722 13.5603 64.7592C13.8224 64.1463 14.206 63.5928 14.6879 63.1322C15.1699 62.6717 15.7401 62.3136 16.3644 62.0795C16.9886 61.8455 17.6537 61.7405 18.3197 61.7707H44.801C45.467 61.7405 46.1321 61.8455 46.7564 62.0795C47.3806 62.3136 47.9509 62.6717 48.4328 63.1322C48.9148 63.5928 49.2984 64.1463 49.5604 64.7592C49.8225 65.3722 49.9576 66.0319 49.9576 66.6985C49.9576 67.3652 49.8225 68.0249 49.5604 68.6378C49.2984 69.2508 48.9148 69.8043 48.4328 70.2648C47.9509 70.7254 47.3806 71.0835 46.7564 71.3175C46.1321 71.5515 45.467 71.6566 44.801 71.6264V71.6264ZM18.3197 63.821C17.9247 63.7976 17.5291 63.8552 17.1572 63.9903C16.7853 64.1253 16.445 64.335 16.157 64.6064C15.8691 64.8778 15.6397 65.2051 15.4829 65.5684C15.3261 65.9317 15.2452 66.3232 15.2452 66.7188C15.2452 67.1145 15.3261 67.506 15.4829 67.8692C15.6397 68.2325 15.8691 68.5599 16.157 68.8313C16.445 69.1027 16.7853 69.3123 17.1572 69.4474C17.5291 69.5824 17.9247 69.64 18.3197 69.6167H44.801C45.196 69.64 45.5916 69.5824 45.9635 69.4474C46.3354 69.3123 46.6758 69.1027 46.9637 68.8313C47.2516 68.5599 47.481 68.2325 47.6378 67.8692C47.7946 67.506 47.8755 67.1145 47.8755 66.7188C47.8755 66.3232 47.7946 65.9317 47.6378 65.5684C47.481 65.2051 47.2516 64.8778 46.9637 64.6064C46.6758 64.335 46.3354 64.1253 45.9635 63.9903C45.5916 63.8552 45.196 63.7976 44.801 63.821H18.3197Z" fill="white"/>
<path d="M9.10369 11.7377C10.4378 11.7377 11.5194 10.6561 11.5194 9.32195C11.5194 7.98779 10.4378 6.90625 9.10369 6.90625C7.76953 6.90625 6.68799 7.98779 6.68799 9.32195C6.68799 10.6561 7.76953 11.7377 9.10369 11.7377Z" fill="white"/>
<path d="M9.10371 6.92094C9.58235 6.91893 10.0508 7.05915 10.4496 7.32382C10.8484 7.58849 11.1596 7.96567 11.3437 8.40749C11.5278 8.84931 11.5765 9.33586 11.4836 9.80541C11.3907 10.275 11.1605 10.7063 10.822 11.0448C10.4835 11.3832 10.0522 11.6135 9.58264 11.7064C9.11309 11.7993 8.62654 11.7506 8.18472 11.5665C7.7429 11.3824 7.36571 11.0712 7.10105 10.6724C6.83638 10.2736 6.69616 9.80512 6.69817 9.32648C6.69817 8.68849 6.9516 8.07663 7.40273 7.6255C7.85386 7.17437 8.46572 6.92094 9.10371 6.92094V6.92094ZM9.10371 5.39844C8.32438 5.39844 7.56257 5.62967 6.91472 6.06285C6.26686 6.49604 5.76211 7.1117 5.46433 7.83191C5.16656 8.55211 5.08917 9.34447 5.24195 10.1087C5.39473 10.8729 5.77082 11.5746 6.3226 12.125C6.87438 12.6753 7.57705 13.0496 8.34165 13.2004C9.10625 13.3512 9.89841 13.2718 10.6178 12.9721C11.3373 12.6725 11.9516 12.1662 12.3831 11.5172C12.8147 10.8682 13.0439 10.1058 13.0419 9.32648C13.0392 8.28377 12.6231 7.28468 11.8849 6.54832C11.1466 5.81196 10.1464 5.39843 9.10371 5.39844V5.39844Z" fill="white"/>
<path d="M19.2331 11.7377C20.5672 11.7377 21.6488 10.6561 21.6488 9.32195C21.6488 7.98779 20.5672 6.90625 19.2331 6.90625C17.8989 6.90625 16.8174 7.98779 16.8174 9.32195C16.8174 10.6561 17.8989 11.7377 19.2331 11.7377Z" fill="white"/>
<path d="M19.233 6.92095C19.7112 6.92095 20.1787 7.06289 20.5761 7.32878C20.9736 7.59467 21.2832 7.97256 21.4658 8.41456C21.6483 8.85656 21.6956 9.3428 21.6015 9.81167C21.5075 10.2805 21.2764 10.711 20.9375 11.0484C20.5987 11.3858 20.1673 11.6151 19.698 11.7072C19.2288 11.7992 18.7427 11.7499 18.3015 11.5655C17.8603 11.3811 17.4837 11.0699 17.2195 10.6713C16.9553 10.2728 16.8153 9.8047 16.8173 9.3265C16.8173 9.00974 16.8799 8.6961 17.0014 8.40359C17.1229 8.11107 17.301 7.84543 17.5255 7.62192C17.7499 7.39841 18.0163 7.22143 18.3093 7.10114C18.6023 6.98085 18.9163 6.91961 19.233 6.92095ZM19.233 5.39845C18.4532 5.39644 17.6904 5.62596 17.0413 6.05792C16.3921 6.48989 15.8857 7.10485 15.5864 7.82487C15.2871 8.5449 15.2082 9.33757 15.3598 10.1025C15.5115 10.8673 15.8868 11.57 16.4381 12.1214C16.9895 12.6727 17.6922 13.048 18.457 13.1997C19.2219 13.3513 20.0146 13.2724 20.7346 12.9731C21.4547 12.6738 22.0696 12.1674 22.5016 11.5183C22.9335 10.8691 23.1631 10.1063 23.1611 9.3265C23.1584 8.28554 22.7437 7.28798 22.0076 6.55191C21.2715 5.81584 20.274 5.40113 19.233 5.39845Z" fill="white"/>
<path d="M29.3527 11.7377C30.6869 11.7377 31.7684 10.6561 31.7684 9.32195C31.7684 7.98779 30.6869 6.90625 29.3527 6.90625C28.0186 6.90625 26.937 7.98779 26.937 9.32195C26.937 10.6561 28.0186 11.7377 29.3527 11.7377Z" fill="white"/>
<path d="M29.3527 6.92094C29.831 6.92094 30.2984 7.06287 30.6959 7.32877C31.0934 7.59466 31.403 7.97254 31.5855 8.41455C31.768 8.85655 31.8153 9.34278 31.7213 9.81166C31.6272 10.2805 31.3961 10.711 31.0573 11.0484C30.7184 11.3858 30.287 11.6151 29.8178 11.7071C29.3485 11.7992 28.8625 11.7499 28.4212 11.5655C27.98 11.3811 27.6034 11.0699 27.3392 10.6713C27.075 10.2727 26.935 9.80469 26.937 9.32648C26.9397 8.68756 27.1954 8.07572 27.6482 7.62488C28.1009 7.17404 28.7138 6.92093 29.3527 6.92094V6.92094ZM29.3527 5.39844C28.5734 5.39844 27.8116 5.62967 27.1637 6.06285C26.5159 6.49604 26.0111 7.1117 25.7134 7.83191C25.4156 8.55211 25.3382 9.34447 25.491 10.1087C25.6438 10.8729 26.0198 11.5746 26.5716 12.125C27.1234 12.6753 27.8261 13.0496 28.5907 13.2004C29.3553 13.3512 30.1474 13.2718 30.8669 12.9721C31.5863 12.6725 32.2007 12.1662 32.6322 11.5172C33.0637 10.8682 33.293 10.1058 33.2909 9.32648C33.2883 8.28377 32.8721 7.28468 32.1339 6.54832C31.3956 5.81196 30.3955 5.39843 29.3527 5.39844V5.39844Z" fill="white"/>
<path d="M70.7748 54.6838C70.5294 54.6862 70.2914 54.5997 70.1049 54.4402C69.9017 54.2638 69.7769 54.014 69.7579 53.7456C69.7389 53.4773 69.8272 53.2123 70.0034 53.009L93.2773 26.142C93.379 26.0338 93.5017 25.9475 93.6378 25.8882C93.7738 25.8289 93.9206 25.7978 94.069 25.7969C94.2198 25.7991 94.3681 25.8349 94.5033 25.9016C94.6385 25.9683 94.7571 26.0643 94.8506 26.1826L115.719 52.7553C115.802 52.8603 115.864 52.9809 115.9 53.1098C115.936 53.2388 115.947 53.3737 115.931 53.5068C115.915 53.6399 115.873 53.7684 115.807 53.8851C115.741 54.0017 115.652 54.1041 115.546 54.1864C115.335 54.3512 115.067 54.4256 114.8 54.3933C114.534 54.361 114.291 54.2245 114.125 54.0139L94.0081 28.4054L71.536 54.3387C71.4409 54.4469 71.3238 54.5337 71.1926 54.5932C71.0613 54.6527 70.9189 54.6836 70.7748 54.6838V54.6838Z" fill="#6C33EB"/>
<path d="M137.765 51.9471C137.606 51.9459 137.45 51.9077 137.309 51.8354C137.168 51.7631 137.046 51.6589 136.953 51.5309L123.758 33.8598L110.228 46.4559C110.133 46.5575 110.018 46.6385 109.89 46.6938C109.762 46.7491 109.625 46.7776 109.486 46.7774C109.346 46.7773 109.209 46.7485 109.081 46.6929C108.954 46.6373 108.839 46.5561 108.744 46.4542C108.649 46.3524 108.576 46.2322 108.53 46.101C108.483 45.9698 108.464 45.8305 108.474 45.6917C108.484 45.5529 108.522 45.4175 108.586 45.2941C108.65 45.1706 108.739 45.0617 108.847 44.974L123.199 31.6065C123.304 31.5071 123.429 31.4312 123.566 31.384C123.702 31.3367 123.847 31.3191 123.991 31.3324C124.133 31.3457 124.271 31.3887 124.395 31.4587C124.519 31.5286 124.627 31.624 124.712 31.7384L138.577 50.3231C138.657 50.4297 138.715 50.5511 138.748 50.6802C138.781 50.8093 138.788 50.9437 138.77 51.0756C138.751 51.2076 138.706 51.3345 138.638 51.4492C138.57 51.5639 138.48 51.6641 138.374 51.7441C138.198 51.8759 137.984 51.9471 137.765 51.9471V51.9471Z" fill="#6C33EB"/>
<path d="M131.401 12.7566H112.187C111.918 12.7566 111.66 12.6496 111.469 12.4593C111.279 12.2689 111.172 12.0108 111.172 11.7416C111.172 11.4724 111.279 11.2142 111.469 11.0238C111.66 10.8335 111.918 10.7266 112.187 10.7266H131.401C131.67 10.7266 131.928 10.8335 132.119 11.0238C132.309 11.2142 132.416 11.4724 132.416 11.7416C132.416 12.0108 132.309 12.2689 132.119 12.4593C131.928 12.6496 131.67 12.7566 131.401 12.7566V12.7566Z" fill="#6C33EB"/>
<path d="M154.401 81.54L128.721 74.7395C128.574 74.7008 128.419 74.7014 128.272 74.7413C128.125 74.7811 127.99 74.8588 127.883 74.9666C127.775 75.0744 127.697 75.2085 127.657 75.3557C127.617 75.5028 127.617 75.6578 127.655 75.8052L134.456 101.485C134.495 101.633 134.572 101.769 134.681 101.878C134.789 101.987 134.924 102.066 135.072 102.106C135.22 102.146 135.377 102.146 135.525 102.107C135.674 102.067 135.809 101.989 135.918 101.881L141.49 96.3082L152.787 107.605C152.868 107.687 152.964 107.752 153.071 107.796C153.177 107.84 153.291 107.863 153.406 107.863C153.521 107.863 153.635 107.84 153.741 107.796C153.848 107.752 153.944 107.687 154.025 107.605L160.521 101.109C160.603 101.028 160.668 100.932 160.712 100.825C160.756 100.719 160.779 100.605 160.779 100.49C160.779 100.375 160.756 100.261 160.712 100.155C160.668 100.048 160.603 99.952 160.521 99.8709L149.224 88.5739L154.797 83.0016C154.905 82.893 154.983 82.7576 155.023 82.6091C155.062 82.4607 155.062 82.3044 155.022 82.1562C154.982 82.0079 154.903 81.8728 154.794 81.7646C154.685 81.6564 154.549 81.579 154.401 81.54V81.54Z" fill="white"/>
<path d="M153.406 108.879C152.908 108.878 152.43 108.681 152.076 108.331L141.49 97.744L136.638 102.606C136.403 102.84 136.11 103.008 135.79 103.093C135.469 103.179 135.132 103.179 134.811 103.093C134.491 103.008 134.198 102.839 133.965 102.604C133.731 102.368 133.564 102.075 133.482 101.753L126.671 76.0636C126.587 75.7439 126.588 75.4076 126.675 75.0885C126.762 74.7694 126.93 74.4786 127.165 74.2453C127.399 74.012 127.691 73.8444 128.01 73.7591C128.33 73.6739 128.666 73.674 128.985 73.7596L154.665 80.5703C154.985 80.6554 155.277 80.8233 155.512 81.0572C155.747 81.2911 155.916 81.5826 156.002 81.9025C156.089 82.2224 156.089 82.5594 156.004 82.8796C155.919 83.1999 155.751 83.4921 155.517 83.7269L150.666 88.5786L161.242 99.1549C161.594 99.512 161.791 99.9933 161.791 100.495C161.791 100.996 161.594 101.477 161.242 101.834L154.746 108.331C154.389 108.682 153.907 108.879 153.406 108.879V108.879ZM141.49 95.2878C141.624 95.287 141.756 95.3126 141.88 95.3631C142.003 95.4136 142.116 95.488 142.211 95.5821L153.376 106.747L159.679 100.454L148.514 89.2891C148.325 89.0989 148.219 88.8417 148.219 88.5735C148.219 88.3054 148.325 88.0481 148.514 87.8579L153.903 82.4582L128.691 75.7693L135.38 100.982L140.81 95.5923C140.99 95.4082 141.233 95.2994 141.49 95.2878Z" fill="#6C33EB"/>
</svg>
